<svg id="Слой_1" data-name="Слой 1" xmlns="http://www.w3.org/2000/svg" xmlns:xlink="http://www.w3.org/1999/xlink" viewBox="0 0 321.27 321.29">
  <defs>
    <style>
      .cls-1, .cls-11, .cls-12, .cls-3, .cls-8 {
        fill: none;
      }

      .cls-2 {
        fill: #fcc;
      }

      .cls-11, .cls-3 {
        stroke: #fff;
      }

      .cls-11, .cls-12, .cls-3, .cls-8 {
        stroke-linecap: round;
        stroke-linejoin: round;
      }

      .cls-3, .cls-8, .cls-9 {
        stroke-width: 2.34px;
      }

      .cls-4 {
        clip-path: url(#clip-path);
      }

      .cls-5, .cls-6 {
        fill: #fff;
      }

      .cls-5 {
        opacity: 0.4;
      }

      .cls-7, .cls-9 {
        fill: #339;
      }

      .cls-12, .cls-8, .cls-9 {
        stroke: #339;
      }

      .cls-9 {
        stroke-miterlimit: 10;
      }

      .cls-10 {
        fill: #f54e56;
      }

      .cls-11 {
        stroke-width: 2.13px;
      }

      .cls-12 {
        stroke-width: 2.13px;
      }
    </style>
    <clipPath id="clip-path">
      <path class="cls-1" d="M287.93,203.53A53.38,53.38,0,0,0,251.33,218a53.63,53.63,0,0,0-68.25,19.24c-4.23-.35-8.54-.54-12.93-.54a149.53,149.53,0,0,0-35.44,4.15A68.68,68.68,0,0,0,28.93,215.71a53.48,53.48,0,1,0-4.69,102.35,68.68,68.68,0,0,0,82,10.38c16.5,9.4,39,15.2,63.91,15.2,35.91,0,67-12.09,82-29.67a53.8,53.8,0,0,0,12.57-8.77,53.5,53.5,0,1,0,23.24-101.67Z"/>
    </clipPath>
  </defs>
  <title>снеговик 2</title>
  <g>
    <circle class="cls-2" cx="160.47" cy="160.59" r="160.24"/>
    <g>
      <circle class="cls-2" cx="161.01" cy="160.35" r="160"/>
      <path class="cls-3" d="M284.89,110.87a159.12,159.12,0,0,1,11.6,50.4"/>
      <path class="cls-3" d="M262.47,72.67A160.18,160.18,0,0,1,277,95.46"/>
      <path class="cls-3" d="M230.45,41.85a161.67,161.67,0,0,1,24.19,21.51"/>
      <g class="cls-4">
        <ellipse class="cls-5" cx="160.51" cy="160.98" rx="160.23" ry="160"/>
      </g>
      <g>
        <circle class="cls-2" cx="158.59" cy="206.66" r="63.77"/>
        <g>
          <g>
            <circle class="cls-6" cx="157.35" cy="61.87" r="8.3"/>
            <path class="cls-6" d="M137.27,160.22a37.33,37.33,0,1,1,40.67-2.51"/>
            <path class="cls-7" d="M136.06,97.49c-.42-12.1,8.43-26.29,20.11-26.83S178,83.45,178.65,95.54h0a34.4,34.4,0,0,0-42.59,1.95Z"/>
            <path class="cls-6" d="M182.4,152c19.84,10.49,33,31.24,32.21,54.68-1.13,33-29.56,58.84-63.51,57.68s-60.55-28.87-59.42-61.88c.8-23.45,15.37-43.27,35.92-52.38"/>
            <path class="cls-8" d="M162.65,163.83a36.29,36.29,0,0,1-4.06.22"/>
            <path class="cls-8" d="M178.44,158.34a36.92,36.92,0,0,1-8.69,4"/>
            <path class="cls-8" d="M142.06,160.2a37.33,37.33,0,1,1,40.46-4.82"/>
            <path class="cls-8" d="M136.05,96.91c0-12.45,10.09-26.74,22.54-26.74s22.54,14.29,22.54,26.74"/>
            <path class="cls-3" d="M147.9,78.87a26,26,0,0,1,3.47-4.17"/>
            <path class="cls-3" d="M144.81,84.72a30.36,30.36,0,0,1,1.63-3.46"/>
            <path class="cls-8" d="M186.71,151.27a63,63,0,1,1-56.19,0"/>
            <path class="cls-8" d="M128.42,217a63.32,63.32,0,0,1-25.21-25.77"/>
            <path class="cls-8" d="M146.56,223.7a63.29,63.29,0,0,1-10.28-3"/>
            <path class="cls-8" d="M209.8,199.21a63.64,63.64,0,0,1-15.68,15"/>
            <circle class="cls-8" cx="158.59" cy="61.05" r="8.3"/>
            <path class="cls-8" d="M144.43,63.36a7.6,7.6,0,0,1-.21-1.28A8.13,8.13,0,0,1,145,57.8"/>
            <path class="cls-8" d="M148.28,68.75a8.4,8.4,0,0,1-2-1.58"/>
          </g>
          <circle class="cls-9" cx="172.87" cy="125.8" r="2.25"/>
          <circle class="cls-9" cx="144.31" cy="126" r="2.25"/>
          <rect class="cls-7" x="156.63" y="130.46" width="3.92" height="10.89" rx="1.39" transform="translate(294.5 -22.68) rotate(90)"/>
          <circle class="cls-10" cx="180.36" cy="133.4" r="6.19"/>
          <circle class="cls-10" cx="136.82" cy="133.4" r="6.19"/>
          <circle class="cls-10" cx="170.39" cy="200.43" r="3.71"/>
          <path class="cls-8" d="M177.87,233.89a6.71,6.71,0,0,1-.48,1.41,6.36,6.36,0,0,1-1.74,2.24"/>
          <path class="cls-8" d="M165,196.82a6.45,6.45,0,0,1,5.35-2.84"/>
          <path class="cls-8" d="M175.62,222a6.44,6.44,0,0,0,2.28-2.65"/>
          <path class="cls-8" d="M174.47,205.46a6.47,6.47,0,0,0,2.29-2.65"/>
          <circle class="cls-7" cx="172.13" cy="216.04" r="3.71"/>
          <circle class="cls-7" cx="171.42" cy="232.64" r="3.71"/>
        </g>
      </g>
      <line class="cls-3" x1="58.46" y1="82.99" x2="58.46" y2="99.07"/>
      <line class="cls-3" x1="115.81" y1="35.44" x2="115.81" y2="51.53"/>
      <line class="cls-3" x1="53.44" y1="91.03" x2="65.43" y2="91.03"/>
      <g>
        <path class="cls-11" d="M26.21,148.08c0,8.11-5.64,14.68-12.6,14.68S1,156.19,1,148.08"/>
        <path class="cls-11" d="M26.21,148.08c0-8.11,5.64-14.68,12.6-14.68S51.42,140,51.42,148.08"/>
      </g>
      <g>
        <path class="cls-12" d="M250.67,246.31c0,7.36-5.12,13.33-11.44,13.33s-11.44-6-11.44-13.33"/>
        <path class="cls-12" d="M285,259.64c-6.32,0-11.44-6-11.44-13.33"/>
        <path class="cls-12" d="M250.67,246.31c0-7.36,5.12-13.33,11.44-13.33s11.45,6,11.45,13.33"/>
      </g>
      <g>
        <line class="cls-3" x1="242.54" y1="155.97" x2="270.24" y2="188.01"/>
        <line class="cls-3" x1="242.54" y1="188.01" x2="270.24" y2="155.97"/>
      </g>
      <g>
        <line class="cls-3" x1="228.54" y1="101.36" x2="242.39" y2="117.38"/>
        <line class="cls-3" x1="228.54" y1="117.38" x2="242.39" y2="101.36"/>
      </g>
      <g>
        <line class="cls-8" x1="79.4" y1="252.05" x2="90.1" y2="264.43"/>
        <line class="cls-8" x1="79.4" y1="264.43" x2="90.1" y2="252.05"/>
      </g>
    </g>
  </g>
</svg>
