<svg id="Слой_1" data-name="Слой 1" xmlns="http://www.w3.org/2000/svg" viewBox="0 0 321.27 321.29">
  <defs>
    <style>
      .cls-1 {
        fill: #fcc;
      }

      .cls-2, .cls-7, .cls-8, .cls-9 {
        fill: none;
      }

      .cls-2, .cls-4, .cls-7, .cls-8, .cls-9 {
        stroke: #339;
        stroke-linecap: round;
        stroke-linejoin: round;
      }

      .cls-2, .cls-4 {
        stroke-width: 2.3px;
      }

      .cls-3 {
        fill: #f54e56;
      }

      .cls-4, .cls-5, .cls-6 {
        fill: #fff;
      }

      .cls-6 {
        opacity: 0.4;
      }

      .cls-7 {
        stroke-width: 2.72px;
      }

      .cls-8 {
        stroke-width: 2.27px;
      }

      .cls-9 {
        stroke-width: 2.35px;
      }
    </style>
  </defs>
  <title>Для 2 стр</title>
  <circle class="cls-1" cx="160.63" cy="160.65" r="160.63"/>
  <g>
    <g>
      <path class="cls-2" d="M216.15,141.93V155h4.57a3.58,3.58,0,0,1,3.58,3.58v14.11a3.58,3.58,0,0,1-3.58,3.58h-4.57v9.8"/>
      <ellipse class="cls-3" cx="164.74" cy="199.79" rx="8.65" ry="7.3"/>
      <g>
        <path class="cls-4" d="M126,143.07l-17.35.07V158A67.34,67.34,0,0,1,126,143.07Z"/>
        <path class="cls-4" d="M216.32,163.82V142.69l-22.17.09A67.39,67.39,0,0,1,216.32,163.82Z"/>
        <path class="cls-4" d="M216.58,237.1a67,67,0,0,0-.26-73.28v20.73c1.36,9.82-6.24,17.42-15.61,17.42H125.59a17,17,0,0,1-17-17V158a67,67,0,0,0-4.76,78.86"/>
      </g>
      <path class="cls-2" d="M200.39,201.16H125.27a17,17,0,0,1-17-17V142.33L216,141.88v41.85C217.35,193.56,209.76,201.16,200.39,201.16Z"/>
      <path class="cls-5" d="M207.65,194.06a13.14,13.14,0,0,1-15.74-9.87h0A15,15,0,1,0,172,201.75h0C184,209,200.43,206,207.65,194.06Z"/>
      <path class="cls-5" d="M116.41,194.06a13.14,13.14,0,0,0,15.74-9.87h0A15,15,0,1,1,152,201.75h0C140.11,209,123.63,206,116.41,194.06Z"/>
      <path class="cls-2" d="M207.65,194.06a13.14,13.14,0,0,1-15.74-9.87h0A15,15,0,1,0,172,201.75h0C184,209,200.43,206,207.65,194.06Z"/>
      <path class="cls-2" d="M115.89,194.06a13.14,13.14,0,0,0,15.74-9.87h0a15,15,0,1,1,19.87,17.55h0C139.59,209,123.11,206,115.89,194.06Z"/>
      <line class="cls-2" x1="176.03" y1="164" x2="201.37" y2="164"/>
      <line class="cls-2" x1="123.09" y1="164" x2="148.43" y2="164"/>
      <g>
        <rect class="cls-5" x="105.88" y="112.92" width="117.01" height="32.12" rx="9.92"/>
        <path class="cls-3" d="M209.75,95.58h21.19c0-30.65-27.21-55.5-58.34-55.5"/>
        <path class="cls-2" d="M208.94,95.37h22.67c0-31.91-27-57.78-60.28-57.78"/>
        <circle class="cls-5" cx="220.67" cy="80.92" r="20.77"/>
        <circle class="cls-2" cx="219.38" cy="79.64" r="22.05"/>
        <path class="cls-2" d="M228.73,91.37a21.94,21.94,0,0,1-9.77,4.3"/>
        <path class="cls-2" d="M234.88,81.87a21.84,21.84,0,0,1-2.53,5.18"/>
        <path class="cls-3" d="M173.2,40.08a55.42,55.42,0,0,0-45.06,23.06,44.48,44.48,0,0,0-10.36,28.59v19.65h91.14l0-16.34s2.79-24-13.06-35.26"/>
        <path class="cls-2" d="M171.33,37.59a61,61,0,0,0-49,24.15,45.63,45.63,0,0,0-11.27,29.95v20.59h97.89V95.37"/>
        <rect class="cls-2" x="102.37" y="112.28" width="117.01" height="30.86" rx="9.73"/>
        <path class="cls-2" d="M123.05,138.26a10.55,10.55,0,0,1-10.55-10.55"/>
        <line class="cls-2" x1="139.78" y1="138.26" x2="128.49" y2="138.26"/>
        <path class="cls-2" d="M140.64,60.81a45.61,45.61,0,0,0-16.2,27.59"/>
        <path class="cls-2" d="M197.64,60.85a45.54,45.54,0,0,1,11.28,29.94v20.59"/>
        <line class="cls-2" x1="124.44" y1="94.95" x2="124.44" y2="98.47"/>
      </g>
      <rect class="cls-3" x="218.5" y="157.55" width="3.46" height="7.99" rx="1.73"/>
      <circle class="cls-3" cx="161.86" cy="177.97" r="6.74"/>
    </g>
    <path class="cls-6" d="M301.52,236.82A160.69,160.69,0,0,1,19.11,237"/>
    <line class="cls-2" x1="19.11" y1="236.82" x2="301.52" y2="236.82"/>
    <line class="cls-2" x1="117.71" y1="281.19" x2="144.17" y2="281.19"/>
    <line class="cls-2" x1="215.84" y1="281.19" x2="233.89" y2="281.19"/>
    <line class="cls-2" x1="160.68" y1="281.19" x2="195.04" y2="281.19"/>
    <line class="cls-2" x1="87.62" y1="281.19" x2="102.97" y2="281.19"/>
    <line class="cls-2" x1="131.19" y1="262.11" x2="189.44" y2="262.11"/>
    <line class="cls-2" x1="95.2" y1="256.68" x2="121.21" y2="256.68"/>
    <line class="cls-7" x1="203.31" y1="256.68" x2="229.32" y2="256.68"/>
    <polyline class="cls-3" points="40.19 210.01 44.11 236.82 77.44 237.02 68.21 189.8 57.9 185.32"/>
    <polyline class="cls-8" points="41.13 210.01 44.95 236.82 77.44 237.02 72.07 203.46"/>
    <g>
      <rect class="cls-5" x="244.31" y="216.84" width="42.26" height="30.51" rx="12.87"/>
      <rect class="cls-5" x="239.42" y="226.61" width="17.22" height="12.44" rx="5.05"/>
      <path class="cls-2" d="M247.41,239A4.48,4.48,0,0,0,248,239,12.85,12.85,0,0,0,259,245.07h16.51a12.87,12.87,0,0,0,12.87-12.88v-4.75a12.87,12.87,0,0,0-12.87-12.88H259a12.86,12.86,0,0,0-12.83,12.05"/>
      <path class="cls-2" d="M246.13,226.61h-2.58a5,5,0,0,0-5,5V234a5,5,0,0,0,5,5H248"/>
    </g>
    <g>
      <rect class="cls-5" x="34.51" y="190.17" width="42.26" height="33.27" rx="13.45" transform="translate(247.65 111.95) rotate(78.77)"/>
      <rect class="cls-5" x="38.73" y="176.49" width="17.22" height="12.44" rx="5.05" transform="translate(217.33 100.68) rotate(78.77)"/>
      <path class="cls-9" d="M73.58,211.75l-3.21-16.19A13.13,13.13,0,0,0,55.5,185.43l-1.14-5.74a5.16,5.16,0,0,0-6.16-3.92l-2.4.48a5.16,5.16,0,0,0-4.2,6l1.39,7a5.26,5.26,0,0,0,.18.6,12.76,12.76,0,0,0-4.12,12L42.27,218c1.38,7,8.42,11.46,15.72,10l4.89-1C70.17,225.56,75,218.73,73.58,211.75Z"/>
      <path class="cls-9" d="M57.69,215.11c5.73-.55,10-5,9.51-10L66.09,193.5c-.46-4.79-5.14-8.28-10.59-8.06"/>
      <line class="cls-9" x1="43.17" y1="189.82" x2="55.5" y2="185.43"/>
    </g>
    <line class="cls-2" x1="246.13" y1="226.61" x2="246.13" y2="232.1"/>
  </g>
</svg>
