<svg xmlns="http://www.w3.org/2000/svg" viewBox="0 0 960 459.09"><defs><style>.cls-1,.cls-10,.cls-11,.cls-12,.cls-15,.cls-2,.cls-3{fill:none;stroke-linecap:round;stroke-linejoin:round;}.cls-1,.cls-11,.cls-2{stroke:#fff;}.cls-15,.cls-2{stroke-width:2px;}.cls-10,.cls-12,.cls-13,.cls-15,.cls-3{stroke:#339;}.cls-13,.cls-4,.cls-5,.cls-7{fill:#fff;}.cls-5,.cls-8{opacity:0.6;}.cls-6,.cls-8{fill:#fcc;}.cls-7{opacity:0.4;}.cls-14,.cls-9{fill:#339;}.cls-10,.cls-11,.cls-15{stroke-dasharray:8 3;}.cls-12{stroke-dasharray:8.77 3.29;}.cls-13{stroke-miterlimit:10;}.cls-14{font-size:6.85px;}</style></defs><g id="в1"><circle class="cls-1" cx="284.48" cy="236.72" r="19.33"/><circle class="cls-2" cx="616.37" cy="413.99" r="19.33"/><circle class="cls-3" cx="718.71" cy="278.23" r="19.33"/><circle class="cls-1" cx="550.19" cy="31.6" r="19.33"/><ellipse class="cls-4" cx="476.45" cy="402.45" rx="55.3" ry="56.64"/><ellipse class="cls-5" cx="485.62" cy="203.86" rx="145.5" ry="150.39"/><ellipse class="cls-6" cx="488.87" cy="203.93" rx="146.23" ry="149.77"/><ellipse class="cls-7" cx="488.87" cy="203.93" rx="109.6" ry="112.25"/><ellipse class="cls-8" cx="488.87" cy="203.93" rx="55.33" ry="56.67"/><ellipse class="cls-4" cx="526.72" cy="31.22" rx="30.48" ry="31.22"/><path class="cls-9" d="M542.8,28.64a22.38,22.38,0,0,0-10,16L506,37a21.37,21.37,0,0,1,38.16-6.63"/><path class="cls-9" d="M467.31,180l-1.47-51.17c.5-16.77,10.61-31,26.7-32.34s30.23,10.86,31.58,27.34l6.3,50.76"/><path class="cls-9" d="M512.1,102.06c12.75,7.78,21.8,22,25.15,38.55l5.6,31.57-12.43,1.24"/><path class="cls-9" d="M491.79,96.52c-26,2.23-41.68,24.65-43.12,52.23l-2,32.36,21.39-1.9"/><line class="cls-9" x1="466.29" y1="144.7" x2="467.08" y2="178.68"/><polyline class="cls-9" points="464.69 414.65 464.69 380.36 488.36 380.36 488.36 436.18 464.69 436.18"/><polyline class="cls-9" points="488.36 408.68 488.36 373.91 508.98 373.91 508.98 430.52 488.36 430.52"/><path class="cls-9" d="M467.74,436.18H444.62C444.62,422.8,455,412,467.74,412"/><path class="cls-9" d="M554.47,243.25a55.26,55.26,0,0,1,18.46-3.15c30.23,0,54.74,24.19,54.74,54s-24.51,54-54.74,54-54.74-24.19-54.74-54a53.72,53.72,0,0,1,21.33-42.81"/><polyline class="cls-9" points="545.46 257.59 535.55 240.01 548.21 232.53 558.12 250.11"/><path class="cls-9" d="M433.23,232.25c-35.9.34-35.32,5.88-35.32,9v75.52h36l.14-3.83v0h27.31V241.25C461.38,238.13,456.94,232,433.23,232.25Z"/><polygon class="cls-9" points="434.07 312.94 433.93 316.77 434.07 316.77 434.07 312.94"/><ellipse class="cls-4" cx="546.95" cy="28.92" rx="3.36" ry="3.44"/><path class="cls-4" d="M527.57,47.67,507.25,41.2a3.74,3.74,0,0,1-2.39-4.65l.35-1.14,28.09,8.94-.09.28A4.49,4.49,0,0,1,527.57,47.67Z"/><path class="cls-3" d="M533.35,44.16a22.06,22.06,0,0,1,10.12-15.74"/><path class="cls-10" d="M539.71,36.75a21.72,21.72,0,0,1,3.09-4"/><path class="cls-3" d="M505.31,35a21.36,21.36,0,0,1,38.16-6.62"/><path class="cls-11" d="M516.5,26.11a20.27,20.27,0,0,1,2-1.46"/><path class="cls-11" d="M510,35a22.11,22.11,0,0,1,4.19-6.69"/><ellipse class="cls-3" cx="546.86" cy="28.92" rx="3.36" ry="3.44"/><path class="cls-10" d="M547.79,34.39a3.35,3.35,0,0,1-1.12.32"/><path class="cls-10" d="M544.39,34.34a3.46,3.46,0,0,1-1.59-1.64"/><path class="cls-3" d="M527.56,47.65l-20.31-6.47a3.73,3.73,0,0,1-2.39-4.64l.35-1.15,28.08,9-.08.27A4.49,4.49,0,0,1,527.56,47.65Z"/><line class="cls-3" x1="511.71" y1="50.21" x2="509.77" y2="53.71"/><line class="cls-12" x1="508.17" y1="56.58" x2="497.26" y2="76.22"/><line class="cls-3" x1="496.46" y1="77.66" x2="494.51" y2="81.16"/><path class="cls-13" d="M527.57,171.94l1,9.2-1.21-10.5,12.63-1.1,1.14,6.4a3.74,3.74,0,0,1-3.31,4.41l-9.25.79"/><polyline class="cls-13" points="528.76 180.91 462.38 186.61 464.32 177.14 527.61 171.72"/><path class="cls-13" d="M443.93,177.79l20.34-1.74.32,8.21a2.46,2.46,0,0,1-2.21,2.56l-14.27,1.23a4.24,4.24,0,0,1-4.53-4.54Z"/><path class="cls-13" d="M471.06,99.29s2-10.75,19.21-11.12c17.58-.37,17.52,10,17.52,10h0a28.54,28.54,0,0,0-17.93-4.45l-.76.07A43.57,43.57,0,0,0,471.06,99.29Z"/><path class="cls-1" d="M515.88,106.13a30.32,30.32,0,0,1,5.43,15l7.45,60"/><path class="cls-3" d="M470.68,104.05a26.94,26.94,0,0,1,19.05-10.22,28.73,28.73,0,0,1,22,7.56"/><path class="cls-1" d="M466.68,110.47a32.36,32.36,0,0,1,2.24-4"/><path class="cls-1" d="M464.5,177.34,463,126.17a40.3,40.3,0,0,1,2.32-12.52"/><path class="cls-3" d="M528.76,181.13l9.11-.78a3.75,3.75,0,0,0,3.31-4.42l-6.73-38c-3.35-16.55-12.41-30.77-25.16-38.55"/><path class="cls-3" d="M443.93,177.79l20.34-1.74.32,8.21a2.46,2.46,0,0,1-2.21,2.56l-14.27,1.23a4.24,4.24,0,0,1-4.53-4.54l2.28-37.39c1.44-27.58,17.13-50,43.12-52.23"/><line class="cls-1" x1="448.62" y1="162.04" x2="448.9" y2="157.37"/><line class="cls-1" x1="448.02" y1="171.71" x2="448.46" y2="164.54"/><path class="cls-3" d="M447.58,185.22a4.24,4.24,0,0,1-1.64-2.5"/><path class="cls-3" d="M451.24,185.93l-.88.08a4.05,4.05,0,0,1-1.81-.26"/><polyline class="cls-3" points="464.32 177.36 527.61 171.93 528.76 181.13 527.45 170.63 540.05 169.55"/><path class="cls-3" d="M470.94,99.42s2-10.75,19.21-11.11c17.58-.38,17.52,10,17.52,10"/><polyline class="cls-1" points="482.2 119.05 482.61 122.72 483.02 126.38"/><line class="cls-1" x1="484.15" y1="122.5" x2="482.61" y2="122.72"/><line class="cls-1" x1="485.22" y1="120.51" x2="485.89" y2="125"/><path class="cls-1" d="M491.3,123.12c-.14.93-.53,1.59-1.09,1.68-.87.14-1.82-1.21-2.11-3s.19-3.37,1.07-3.51a1.23,1.23,0,0,1,1.08.53"/><path class="cls-1" d="M490.86,119.82a6.23,6.23,0,0,1,.42,1.46c0,.22.05.43.07.64"/><polyline class="cls-1" points="495.18 117.77 495.36 121.08 495.55 124.4"/><line class="cls-1" x1="496.74" y1="120.97" x2="495.36" y2="121.08"/><line class="cls-1" x1="497.99" y1="121.15" x2="498.16" y2="122.95"/><path class="cls-1" d="M500.36,119.19c.13-1,.55-1.71,1.11-1.77.8-.08,1.58,1.18,1.75,2.81s-.34,3-1.13,3.1a.71.71,0,0,1-.38-.06"/><path class="cls-1" d="M500.75,122.13a5.59,5.59,0,0,1-.41-1.6"/><path class="cls-4" d="M393.63,324.13v-7.79h37.86v7.43a6.34,6.34,0,0,1-6.27,6.42H399.55A6,6,0,0,1,393.63,324.13Z"/><path class="cls-4" d="M431.49,312.69h28.6v9.79a4,4,0,0,1-4,4.06H431"/><path class="cls-3" d="M431.49,316.34v7.43a6.34,6.34,0,0,1-6.27,6.42H399.7a6.14,6.14,0,0,1-6.07-6.21V240.82c0-3.12-.61-8.66,37-9,24.84-.23,29.48,5.88,29.48,9V322.3a4,4,0,0,1-4,4.06H431.49"/><path class="cls-1" d="M441.64,240.2c1.83.17,5.06.58,6.56.83"/><path class="cls-1" d="M436.07,239.87l2,.08"/><path class="cls-3" d="M393.63,324.13v-7.79h37.86v7.43a6.34,6.34,0,0,1-6.27,6.42H399.55A6,6,0,0,1,393.63,324.13Z"/><path class="cls-3" d="M400.15,326.32a6.1,6.1,0,0,1-2.23-4.74"/><line class="cls-3" x1="407.99" y1="327.64" x2="402.88" y2="327.64"/><line class="cls-3" x1="413.59" y1="327.64" x2="410.97" y2="327.64"/><line class="cls-1" x1="398.92" y1="292.45" x2="398.92" y2="301.14"/><line class="cls-1" x1="398.92" y1="285.29" x2="398.92" y2="289.45"/><path class="cls-1" d="M437.06,263.33a7.88,7.88,0,0,1-5.57,2.32"/><line class="cls-3" x1="460.09" y1="312.69" x2="431.49" y2="312.69"/><line class="cls-3" x1="431.49" y1="316.34" x2="431.49" y2="312.69"/><line class="cls-1" x1="431.49" y1="265.65" x2="431.49" y2="315.06"/><rect class="cls-13" x="485.71" y="368.96" width="20.8" height="11.07"/><rect class="cls-13" x="464.91" y="374.5" width="20.8" height="11.07"/><polyline class="cls-3" points="461.84 412.56 461.84 374.54 485.71 374.54 485.71 436.44 461.84 436.44"/><polyline class="cls-3" points="485.71 406.99 485.71 368.96 506.51 368.96 506.51 430.87 485.71 430.87"/><path class="cls-3" d="M464.91,436.44H441.59c0-13.19,10.44-23.88,23.32-23.88"/><path class="cls-1" d="M450.4,424.5a23.14,23.14,0,0,1,1.31-2.06"/><path class="cls-1" d="M447.28,436.44a24.43,24.43,0,0,1,1.47-8.37"/><rect class="cls-3" x="485.71" y="368.96" width="20.8" height="11.07"/><rect class="cls-3" x="464.91" y="374.5" width="20.8" height="11.07"/><polyline class="cls-1" points="467.21 412.56 469.31 412.56 469.31 409.71"/><line class="cls-1" x1="502.24" y1="413.99" x2="502.24" y2="416.76"/><line class="cls-1" x1="502.24" y1="405.49" x2="502.24" y2="410.68"/><line class="cls-1" x1="469.31" y1="407.67" x2="469.31" y2="403.15"/><polyline class="cls-10" points="488.98 192.63 488.98 212.38 431.49 215.72 431.49 225.17"/><polyline class="cls-10" points="413.59 341.69 413.59 351.03 471.08 354.92 471.08 363.41"/><path class="cls-10" d="M534.62,192.64a30.39,30.39,0,0,1-2,14.24c-3.52,8.54-11.41,16.92-16.08,10.67-2.07-7.61,13-8.65,13.53,7.62"/><path class="cls-3" d="M626.33,317.81c-7.66,23.35-29.2,40.17-54.57,40.17-31.78,0-57.55-26.39-57.55-59a59.35,59.35,0,0,1,22.42-46.69"/><path class="cls-3" d="M552.35,243.53a55.67,55.67,0,0,1,11.75-2.92"/><path class="cls-1" d="M629.63,328.49a58.73,58.73,0,0,1-7.28,11.95"/><path class="cls-1" d="M634.92,307.29a59.84,59.84,0,0,1-3.31,16.32"/><path class="cls-1" d="M634.6,296.18c.21,1.77.35,3.57.41,5.38"/><path class="cls-3" d="M527.24,261.84a12.73,12.73,0,0,0-3.34-17.41l4.12-7.36"/><polyline class="cls-3" points="538.28 255.26 527.47 236.09 542.98 226.92 546.34 232.87"/><path class="cls-3" d="M543.54,227.9h7.62a12.4,12.4,0,0,0,12.25,12.54"/><path class="cls-1" d="M535.65,318.53a58.61,58.61,0,0,1-4.68-8"/><path class="cls-1" d="M540.62,324.74c-.68-.75-1.35-1.51-2-2.3"/><path class="cls-1" d="M552,334.34a57.19,57.19,0,0,1-7.4-5.65"/><line class="cls-1" x1="546.59" y1="233.31" x2="553.79" y2="246.09"/><path class="cls-3" d="M629,305.16a60,60,0,0,1-2.67,12.65"/><path class="cls-1" d="M585.79,241.86c25,6.41,43.52,29.58,43.52,57.17,0,2.07-.11,4.12-.31,6.13"/><path class="cls-3" d="M564.1,240.61a56.56,56.56,0,0,1,21.69,1.25"/><path class="cls-1" d="M592.11,263.59a58.55,58.55,0,0,1,10.45,15.64"/><path class="cls-1" d="M599.15,262.77a58.69,58.69,0,0,1,10.72,15.46"/><text class="cls-14" transform="translate(446.67 102.01)">02</text><text class="cls-14" transform="translate(393.63 225.12)">03</text><text class="cls-14" transform="translate(450.4 368.51)">04</text><text class="cls-14" transform="translate(485.71 363.98)">05</text><text class="cls-14" transform="translate(543.18 219.36)">06</text><text class="cls-14" transform="translate(504.7 18.19)">01</text><rect class="cls-4" y="220.67" width="30.03" height="6.41"/><rect class="cls-4" x="929.97" y="220.67" width="30.03" height="6.41"/><rect class="cls-9" x="266.75" y="211.04" width="6.08" height="25.68" rx="2.08"/><rect class="cls-9" x="351.67" y="211.04" width="6.08" height="25.68" rx="2.08"/><rect class="cls-9" x="181.82" y="211.04" width="6.08" height="25.68" rx="2.08"/><rect class="cls-9" x="96.9" y="211.04" width="6.08" height="25.68" rx="2.08"/><rect class="cls-9" x="602.57" y="211.04" width="6.08" height="25.68" rx="2.08"/><rect class="cls-9" x="687.41" y="211.04" width="6.08" height="25.68" rx="2.08"/><rect class="cls-9" x="772.26" y="211.04" width="6.08" height="25.68" rx="2.08"/><rect class="cls-9" x="857.1" y="211.04" width="6.08" height="25.68" rx="2.08"/><path class="cls-3" d="M308,98.89c0-3.82,2.66-6.91,5.93-6.91s5.93,3.09,5.93,6.91"/><path class="cls-3" d="M331.72,98.89c0,3.81-2.65,6.91-5.93,6.91s-5.93-3.1-5.93-6.91"/><path class="cls-3" d="M331.72,98.89c0-3.82,2.66-6.91,5.93-6.91s5.93,3.09,5.93,6.91"/><path class="cls-3" d="M355.44,98.89c0,3.81-2.66,6.91-5.93,6.91s-5.93-3.1-5.93-6.91"/><path class="cls-3" d="M355.44,98.89c0-3.82,2.65-6.91,5.93-6.91s5.93,3.09,5.93,6.91"/><path class="cls-3" d="M379.16,98.89c0,3.81-2.66,6.91-5.93,6.91s-5.93-3.1-5.93-6.91"/><path class="cls-3" d="M379.16,98.89c0-3.82,2.65-6.91,5.93-6.91S391,95.07,391,98.89"/><path class="cls-3" d="M402.87,98.89c0,3.81-2.65,6.91-5.93,6.91S391,102.7,391,98.89"/><path class="cls-3" d="M598.58,173.42c0-3.82,2.66-6.91,5.93-6.91s5.93,3.09,5.93,6.91"/><path class="cls-3" d="M622.3,173.42c0,3.81-2.66,6.91-5.93,6.91s-5.93-3.1-5.93-6.91"/><path class="cls-3" d="M622.3,173.42c0-3.82,2.65-6.91,5.93-6.91s5.93,3.09,5.93,6.91"/><path class="cls-3" d="M646,173.42c0,3.81-2.66,6.91-5.93,6.91s-5.93-3.1-5.93-6.91"/><path class="cls-3" d="M646,173.42c0-3.82,2.65-6.91,5.92-6.91s5.93,3.09,5.93,6.91"/><path class="cls-3" d="M669.73,173.42c0,3.81-2.65,6.91-5.93,6.91s-5.93-3.1-5.93-6.91"/><path class="cls-3" d="M669.73,173.42c0-3.82,2.66-6.91,5.93-6.91s5.93,3.09,5.93,6.91"/><path class="cls-3" d="M693.45,173.42c0,3.81-2.65,6.91-5.93,6.91s-5.93-3.1-5.93-6.91"/><path class="cls-1" d="M657.87,375c0-3.81,2.66-6.9,5.93-6.9s5.93,3.09,5.93,6.9"/><path class="cls-1" d="M681.59,375c0,3.82-2.65,6.91-5.93,6.91s-5.93-3.09-5.93-6.91"/><path class="cls-1" d="M681.59,375c0-3.81,2.66-6.9,5.93-6.9s5.93,3.09,5.93,6.9"/><path class="cls-1" d="M705.31,375c0,3.82-2.66,6.91-5.93,6.91s-5.93-3.09-5.93-6.91"/><path class="cls-1" d="M705.31,375c0-3.81,2.65-6.9,5.93-6.9s5.93,3.09,5.93,6.9"/><path class="cls-1" d="M729,375c0,3.82-2.66,6.91-5.93,6.91s-5.93-3.09-5.93-6.91"/><path class="cls-1" d="M729,375c0-3.81,2.65-6.9,5.93-6.9s5.92,3.09,5.92,6.9"/><path class="cls-1" d="M752.74,375c0,3.82-2.65,6.91-5.93,6.91s-5.93-3.09-5.93-6.91"/><path class="cls-1" d="M183.88,286.78c0-3.82,2.66-6.91,5.93-6.91s5.93,3.09,5.93,6.91"/><path class="cls-1" d="M207.6,286.78c0,3.81-2.66,6.9-5.93,6.9s-5.93-3.09-5.93-6.9"/><path class="cls-1" d="M207.6,286.78c0-3.82,2.65-6.91,5.93-6.91s5.93,3.09,5.93,6.91"/><path class="cls-1" d="M231.32,286.78c0,3.81-2.66,6.9-5.93,6.9s-5.93-3.09-5.93-6.9"/><path class="cls-2" d="M663.8,222.29c0-3.81,2.66-6.91,5.93-6.91s5.93,3.1,5.93,6.91"/><path class="cls-2" d="M687.52,222.29c0,3.82-2.65,6.91-5.93,6.91s-5.93-3.09-5.93-6.91"/><path class="cls-2" d="M687.52,222.29c0-3.81,2.66-6.91,5.93-6.91s5.93,3.1,5.93,6.91"/><path class="cls-2" d="M711.24,222.29c0,3.82-2.66,6.91-5.93,6.91s-5.93-3.09-5.93-6.91"/><circle class="cls-3" cx="547.09" cy="216.9" r="8"/><path class="cls-1" d="M538.29,348.11c0,.23,0,.46,0,.69a14.62,14.62,0,1,1-.29-2.95"/><circle class="cls-3" cx="308" cy="192.64" r="8"/><circle class="cls-3" cx="638.02" cy="203.04" r="8"/><circle class="cls-3" cx="154" cy="249.45" r="8"/><line class="cls-2" x1="331.13" y1="310.52" x2="344.17" y2="325.59"/><line class="cls-2" x1="331.13" y1="325.59" x2="344.17" y2="310.52"/><line class="cls-15" x1="554.59" y1="402.18" x2="567.62" y2="417.25"/><line class="cls-15" x1="554.59" y1="417.25" x2="567.62" y2="402.18"/><line class="cls-2" x1="622.53" y1="76.71" x2="635.48" y2="91.68"/><line class="cls-2" x1="622.53" y1="91.68" x2="635.48" y2="76.71"/><line class="cls-3" x1="598.51" y1="358.67" x2="606.62" y2="368.06"/><line class="cls-3" x1="598.51" y1="368.06" x2="606.62" y2="358.67"/><line class="cls-3" x1="435.46" y1="81.37" x2="443.57" y2="90.75"/><line class="cls-3" x1="435.46" y1="90.75" x2="443.57" y2="81.37"/><line class="cls-10" x1="250.36" y1="285.29" x2="310.2" y2="285.29"/><line class="cls-10" x1="295.99" y1="296.18" x2="331.72" y2="296.18"/><line class="cls-10" x1="611.35" y1="144.7" x2="672.44" y2="144.7"/><line class="cls-10" x1="627.33" y1="354.25" x2="688.42" y2="354.25"/><line class="cls-10" x1="726.03" y1="419.8" x2="844.66" y2="419.8"/><line class="cls-11" x1="596.75" y1="132.93" x2="633.37" y2="132.93"/><line class="cls-11" x1="714.17" y1="405.49" x2="762.64" y2="405.49"/></g></svg>