<svg id="Слой_1" data-name="Слой 1" xmlns="http://www.w3.org/2000/svg" xmlns:xlink="http://www.w3.org/1999/xlink" viewBox="0 0 321.27 321.29">
  <defs>
    <style>
      .cls-1, .cls-6, .cls-7, .cls-8 {
        fill: none;
      }

      .cls-2 {
        fill: #fcc;
      }

      .cls-3 {
        clip-path: url(#clip-path);
      }

      .cls-4 {
        fill: #fff;
      }

      .cls-5 {
        fill: #f54e56;
      }

      .cls-6 {
        stroke: #339;
      }

      .cls-6, .cls-7, .cls-8 {
        stroke-linecap: round;
        stroke-linejoin: round;
      }

      .cls-6, .cls-7 {
        stroke-width: 2.57px;
      }

      .cls-7, .cls-8 {
        stroke: #fff;
      }

      .cls-8 {
        stroke-width: 2.57px;
      }
    </style>
    <clipPath id="clip-path">
      <path class="cls-1" d="M357.73,268.84c4.61-5.65,7.09-11.63,7.09-17.81,0-35.49-81.57-64.27-182.2-64.27-11.58,0-22.91.39-33.89,1.12-30.63-20.3-91.2-34.12-160.93-34.12-100.62,0-182.2,28.78-182.2,64.27s81.58,64.27,182.2,64.27c11.59,0,22.91-.38,33.89-1.11a118.2,118.2,0,0,0,13.07,7.4c-4.62,5.65-7.1,11.63-7.1,17.81,0,35.49,81.57,64.27,182.2,64.27s182.2-28.78,182.2-64.27C392.06,292.38,379.33,279.41,357.73,268.84Z"/>
    </clipPath>
  </defs>
  <title>Для 2 стр</title>
  <g>
    <circle class="cls-2" cx="160.63" cy="161.04" r="160.63"/>
    <g class="cls-3">
      <circle class="cls-4" cx="160.61" cy="161.36" r="160.63"/>
    </g>
    <g>
      <g>
        <rect class="cls-4" x="161.91" y="125.05" width="37.14" height="53.55" transform="translate(126.32 -77.72) rotate(36.65)"/>
        <rect class="cls-5" x="176.74" y="125.52" width="8.95" height="53.62" transform="translate(126.76 -78.06) rotate(36.65)"/>
        <path class="cls-5" d="M197.21,123.28h5.6a1.48,1.48,0,0,1,1.48,1.48v7.08a0,0,0,0,1,0,0h-8.56a0,0,0,0,1,0,0v-7.08A1.48,1.48,0,0,1,197.21,123.28Z" transform="translate(115.69 -94.18) rotate(36.65)"/>
        <path class="cls-5" d="M208.36,123.8h7.24a4.42,4.42,0,0,1,4.42,4.42V136a4.42,4.42,0,0,1-4.42,4.42H203.94a0,0,0,0,1,0,0v-12.2a4.42,4.42,0,0,1,4.42-4.42Z" transform="translate(120.78 -100.42) rotate(36.65)"/>
        <path class="cls-5" d="M184.17,109.09h11.66a4.42,4.42,0,0,1,4.42,4.42v7.79a4.42,4.42,0,0,1-4.42,4.42h-7.24a4.42,4.42,0,0,1-4.42-4.42v-12.2A0,0,0,0,1,184.17,109.09Z" transform="translate(276.33 326.33) rotate(-143.35)"/>
        <rect class="cls-6" x="155.17" y="127.17" width="53.13" height="53.13" transform="translate(127.7 -78.09) rotate(36.65)"/>
        <line class="cls-6" x1="193.34" y1="165.65" x2="188.71" y2="171.88"/>
        <line class="cls-6" x1="196.59" y1="161.29" x2="195.03" y2="163.39"/>
        <path class="cls-6" d="M197.56,124.86h5.6a1.48,1.48,0,0,1,1.48,1.48v7.08a0,0,0,0,1,0,0h-8.56a0,0,0,0,1,0,0v-7.08a1.48,1.48,0,0,1,1.48-1.48Z" transform="translate(116.71 -94.07) rotate(36.65)"/>
        <path class="cls-6" d="M208.87,125.45h7.24a4.42,4.42,0,0,1,4.42,4.42v7.24a4.42,4.42,0,0,1-4.42,4.42H204.45a0,0,0,0,1,0,0V129.86a4.42,4.42,0,0,1,4.42-4.42Z" transform="translate(121.7 -100.45) rotate(36.65)"/>
        <path class="cls-7" d="M211.65,130a5.27,5.27,0,0,1,2.78-.3"/>
        <path class="cls-7" d="M195.65,121.16A5.27,5.27,0,0,0,194,114.7"/>
        <path class="cls-6" d="M184.68,110.74h11.66a4.42,4.42,0,0,1,4.42,4.42v7.24a4.42,4.42,0,0,1-4.42,4.42H189.1a4.42,4.42,0,0,1-4.42-4.42V110.74a0,0,0,0,1,0,0Z" transform="translate(276.43 329.11) rotate(-143.35)"/>
        <rect class="cls-6" x="177.67" y="127.33" width="8.56" height="53.13" transform="translate(127.84 -78.18) rotate(36.65)"/>
        <line class="cls-6" x1="169.68" y1="135.24" x2="167.42" y2="138.27"/>
        <line class="cls-6" x1="177.66" y1="124.51" x2="171.34" y2="133"/>
      </g>
      <line class="cls-6" x1="57.97" y1="147.6" x2="74.62" y2="150.1"/>
      <line class="cls-6" x1="43.98" y1="122" x2="60.63" y2="124.51"/>
      <line class="cls-6" x1="11.12" y1="140.54" x2="50.93" y2="146.53"/>
      <line class="cls-6" x1="15.79" y1="127.83" x2="58.88" y2="134.32"/>
      <line class="cls-6" x1="69.21" y1="165.12" x2="90.12" y2="168.27"/>
      <line class="cls-6" x1="16.14" y1="157.13" x2="60.63" y2="163.83"/>
      <line class="cls-6" x1="60.63" y1="176.86" x2="81.55" y2="180.01"/>
      <line class="cls-6" x1="181.79" y1="228.6" x2="202.71" y2="231.75"/>
      <line class="cls-6" x1="115.99" y1="218.69" x2="168.53" y2="226.6"/>
      <path class="cls-4" d="M174.59,175.22a73.44,73.44,0,0,0-61.68-83.56L92,88.51l8.51,100.18,114.33,17.22,20.5-21.54Z"/>
      <path class="cls-5" d="M160.63,171.14c7-34.52-18.22-61.54-51.4-66.54L91.93,102l7.33,84.77L213.59,204l20.5-21.54Z"/>
      <path class="cls-6" d="M132.13,111.5a54.57,54.57,0,0,0-17.24-5.61l-19-2.86"/>
      <path class="cls-6" d="M160,146.73a55.11,55.11,0,0,0-20.75-30.8"/>
      <path class="cls-6" d="M161,168.41a55.47,55.47,0,0,0,.57-10.49"/>
      <path class="cls-6" d="M173.34,173.29a73.43,73.43,0,0,0-61.68-83.56L90.75,86.57l8.51,100.19L213.59,204l20.5-21.54Z"/>
      <line class="cls-6" x1="120.32" y1="189.93" x2="118.07" y2="204.83"/>
      <line class="cls-6" x1="197.17" y1="201.3" x2="194.87" y2="216.61"/>
      <line class="cls-6" x1="71.12" y1="197.75" x2="259.53" y2="226.82"/>
      <line class="cls-6" x1="64.93" y1="190.66" x2="253.34" y2="219.72"/>
      <path class="cls-6" d="M261.88,211.17a8.82,8.82,0,0,1,7.42,10.05c-.73,4.82-4.95,6.32-9.77,5.6"/>
      <line class="cls-8" x1="188.71" y1="53.56" x2="188.71" y2="71.24"/>
      <line class="cls-8" x1="259.53" y1="109.94" x2="259.53" y2="127.62"/>
      <g>
        <line class="cls-7" x1="80.46" y1="118.81" x2="108.86" y2="151.66"/>
        <line class="cls-7" x1="80.46" y1="151.66" x2="108.86" y2="118.81"/>
      </g>
      <g>
        <line class="cls-7" x1="48.33" y1="77.77" x2="63.56" y2="95.38"/>
        <line class="cls-7" x1="48.33" y1="95.38" x2="63.56" y2="77.77"/>
      </g>
    </g>
  </g>
</svg>
