<svg id="Слой_1" data-name="Слой 1" xmlns="http://www.w3.org/2000/svg" xmlns:xlink="http://www.w3.org/1999/xlink" viewBox="0 0 1919.76 305.7">
  <defs>
    <style>
      .cls-1, .cls-10, .cls-11, .cls-12, .cls-16, .cls-17, .cls-18, .cls-19, .cls-20, .cls-4, .cls-5 {
        fill: none;
      }

      .cls-2 {
        clip-path: url(#clip-path);
      }

      .cls-13, .cls-3 {
        fill: #339;
      }

      .cls-10, .cls-15, .cls-16, .cls-18, .cls-4, .cls-9 {
        stroke: #339;
      }

      .cls-10, .cls-11, .cls-12, .cls-16, .cls-17, .cls-18, .cls-19, .cls-20, .cls-4, .cls-5 {
        stroke-linecap: round;
        stroke-linejoin: round;
      }

      .cls-15, .cls-16, .cls-17, .cls-19, .cls-20, .cls-4, .cls-5 {
        stroke-width: 1.37px;
      }

      .cls-11, .cls-12, .cls-20, .cls-5 {
        stroke: #fff;
      }

      .cls-6 {
        fill: #fcc;
      }

      .cls-7 {
        clip-path: url(#clip-path-2);
      }

      .cls-8 {
        fill: #f54e56;
      }

      .cls-14, .cls-15, .cls-9 {
        fill: #fff;
      }

      .cls-15, .cls-9 {
        stroke-miterlimit: 10;
      }

      .cls-10, .cls-11, .cls-9 {
        stroke-width: 0.92px;
      }

      .cls-12, .cls-18 {
        stroke-width: 2.75px;
      }

      .cls-13 {
        font-size: 9.41px;
        font-family: HammerFat, Hammer Fat;
      }

      .cls-16, .cls-18, .cls-19, .cls-20 {
        stroke-dasharray: 11 4.12;
      }

      .cls-17, .cls-19 {
        stroke: #f54e56;
      }
    </style>
    <clipPath id="clip-path">
      <rect class="cls-1" x="-8.24" y="-477.54" width="1921.66" height="305.7"/>
    </clipPath>
    <clipPath id="clip-path-2">
      <rect class="cls-1" x="-0.83" width="1921.66" height="305.7"/>
    </clipPath>
  </defs>
  <title>иллюстрат</title>
  <g class="cls-2">
    <g>
      <path class="cls-3" d="M963.62-9.07,934.05,2.54c-6.72-17.12,1.07-36.2,17.4-42.61"/>
      <g>
        <path class="cls-4" d="M960.14-7.31,930.3,4.4c-6.62-16.87,1.37-35.8,17.84-42.26"/>
        <path class="cls-5" d="M937.57,1.55a33.46,33.46,0,0,1-2.32-11.46"/>
      </g>
    </g>
  </g>
  <rect class="cls-6" width="1920" height="305.7"/>
  <g class="cls-7">
    <g>
      <circle class="cls-8" cx="636.36" cy="305.31" r="26.57"/>
      <g>
        <g>
          <g>
            <polyline class="cls-3" points="110.38 130.42 126.57 103.21 145.36 114.39 119 158.69 100.22 147.51"/>
            <polyline class="cls-3" points="131.99 136.86 148.41 109.26 164.77 119 138.04 163.93 121.67 154.2"/>
            <path class="cls-3" d="M102.64,149,84.29,138c6.32-10.62,19.66-14.35,29.79-8.32"/>
          </g>
          <g>
            <rect class="cls-9" x="144.67" y="108.28" width="19.21" height="10.22" transform="matrix(0.86, 0.51, -0.51, 0.86, 79.66, -62.93)"/>
            <rect class="cls-9" x="125.55" y="102.85" width="19.21" height="10.22" transform="translate(74.19 -53.92) rotate(30.75)"/>
            <polyline class="cls-10" points="109.1 127.42 127.05 97.24 146 108.51 116.77 157.65 97.83 146.37"/>
            <polyline class="cls-10" points="130.68 134.27 148.63 104.09 165.14 113.91 135.91 163.04 119.41 153.22"/>
            <path class="cls-10" d="M100.27,147.83l-18.51-11c6.23-10.47,19.56-14,29.78-7.95"/>
            <path class="cls-11" d="M94.38,131.5a22.57,22.57,0,0,1,2-1"/>
            <path class="cls-11" d="M86.27,139.5a22.57,22.57,0,0,1,5.12-5.95"/>
            <rect class="cls-10" x="144.67" y="108.28" width="19.21" height="10.22" transform="matrix(0.86, 0.51, -0.51, 0.86, 79.66, -62.93)"/>
            <rect class="cls-10" x="125.55" y="102.85" width="19.21" height="10.22" transform="translate(74.19 -53.92) rotate(30.75)"/>
            <polyline class="cls-11" points="113.37 129.96 115.04 130.95 116.38 128.69"/>
            <line class="cls-11" x1="140.49" y1="147.63" x2="139.19" y2="149.82"/>
            <line class="cls-11" x1="144.51" y1="140.88" x2="142.05" y2="145"/>
            <line class="cls-11" x1="117.35" y1="127.06" x2="119.48" y2="123.48"/>
          </g>
        </g>
        <circle class="cls-12" cx="1733.29" cy="141.56" r="26.57"/>
        <circle class="cls-4" cx="1212.8" cy="140.32" r="26.57"/>
        <text class="cls-13" transform="matrix(0.93, -0.37, 0.37, 0.93, 776.25, 51.53)">02</text>
        <text class="cls-13" transform="matrix(0.93, -0.37, 0.37, 0.93, 770.23, 235.68)">03</text>
        <text class="cls-13" transform="matrix(0.93, -0.37, 0.37, 0.93, 958.68, 153.2)">06</text>
        <g>
          <rect class="cls-3" x="606.94" y="278.61" width="8.36" height="35.3" rx="2.85" transform="translate(-65.99 243.8) rotate(-21.43)"/>
          <rect class="cls-3" x="1036.61" y="109.93" width="8.36" height="35.3" rx="2.85" transform="translate(25.35 389.14) rotate(-21.43)"/>
          <rect class="cls-3" x="1145.17" y="67.32" width="8.36" height="35.3" rx="2.85" transform="translate(48.43 425.86) rotate(-21.43)"/>
          <rect class="cls-3" x="1253.73" y="24.7" width="8.36" height="35.3" rx="2.85" transform="translate(71.51 462.58) rotate(-21.43)"/>
          <rect class="cls-3" x="1362.29" y="-17.91" width="8.36" height="35.3" rx="2.85" transform="translate(94.59 499.3) rotate(-21.43)"/>
        </g>
        <g>
          <rect class="cls-14" x="1890.6" y="168.67" width="41.27" height="8.81" transform="translate(68.93 710.35) rotate(-21.43)"/>
          <rect class="cls-8" x="1581.38" y="283.27" width="8.36" height="35.3" rx="2.85" transform="translate(-0.31 600.19) rotate(-21.43)"/>
          <rect class="cls-8" x="1689.94" y="240.65" width="8.36" height="35.3" rx="2.85" transform="translate(22.77 636.91) rotate(-21.43)"/>
          <rect class="cls-8" x="1798.5" y="198.04" width="8.36" height="35.3" rx="2.85" transform="translate(45.85 673.63) rotate(-21.43)"/>
        </g>
        <g>
          <rect class="cls-8" x="32.85" y="30.29" width="8.36" height="35.3" rx="2.85" transform="translate(-14.96 16.85) rotate(-21.43)"/>
          <rect class="cls-8" x="141.41" y="-12.33" width="8.36" height="35.3" rx="2.85" transform="translate(8.12 53.57) rotate(-21.43)"/>
        </g>
        <g>
          <path class="cls-4" d="M597.24,117.14c-1.92-4.88-.08-10.18,4.11-11.82s9.14,1,11.06,5.86"/>
          <path class="cls-4" d="M627.58,105.23c1.92,4.88.08,10.17-4.11,11.81s-9.14-1-11.06-5.86"/>
          <path class="cls-4" d="M627.58,105.23c-1.91-4.89-.07-10.18,4.12-11.82s9.14,1,11.06,5.86"/>
          <path class="cls-4" d="M657.93,93.31c1.92,4.88.07,10.18-4.12,11.82s-9.14-1-11-5.86"/>
          <path class="cls-4" d="M657.93,93.31c-1.92-4.88-.07-10.17,4.12-11.81s9.14,1,11.05,5.86"/>
          <path class="cls-4" d="M688.28,81.4c1.91,4.88.07,10.17-4.12,11.82s-9.14-1-11.06-5.86"/>
          <path class="cls-4" d="M688.28,81.4c-1.92-4.88-.08-10.17,4.11-11.82s9.14,1,11.06,5.86"/>
          <path class="cls-4" d="M718.62,69.49c1.92,4.88.07,10.17-4.12,11.82s-9.14-1-11-5.87"/>
        </g>
        <g>
          <path class="cls-4" d="M1006.46,66.55c-1.92-4.88-.07-10.17,4.12-11.82s9.14,1,11,5.86"/>
          <path class="cls-4" d="M1036.81,54.64c1.91,4.88.07,10.17-4.12,11.82s-9.14-1-11.06-5.87"/>
          <path class="cls-4" d="M1036.81,54.64c-1.92-4.88-.08-10.17,4.11-11.82s9.14,1,11.06,5.86"/>
          <path class="cls-4" d="M1067.15,42.73c1.92,4.88.08,10.17-4.11,11.81s-9.14-1-11.06-5.86"/>
          <path class="cls-4" d="M1067.15,42.73c-1.91-4.89-.07-10.18,4.12-11.82s9.14,1,11.06,5.86"/>
          <path class="cls-4" d="M1097.5,30.81c1.91,4.89.07,10.18-4.12,11.82s-9.14-1-11.05-5.86"/>
          <path class="cls-4" d="M1097.5,30.81c-1.92-4.88-.07-10.17,4.12-11.81s9.14,1,11.05,5.86"/>
          <path class="cls-4" d="M1127.84,18.9c1.92,4.88.08,10.17-4.11,11.82s-9.14-1-11.06-5.86"/>
        </g>
        <g>
          <path class="cls-4" d="M205.91,254.65c-1.91-4.88-.07-10.18,4.12-11.82s9.14,1,11.06,5.86"/>
          <path class="cls-4" d="M236.26,242.74c1.91,4.88.07,10.17-4.12,11.81s-9.14-1-11-5.86"/>
          <path class="cls-4" d="M236.26,242.74c-1.92-4.89-.07-10.18,4.12-11.82s9.14,1,11.05,5.86"/>
          <path class="cls-4" d="M266.6,230.82c1.92,4.88.08,10.18-4.11,11.82s-9.14-1-11.06-5.86"/>
          <path class="cls-4" d="M266.6,230.82c-1.91-4.88-.07-10.17,4.12-11.81s9.14,1,11.06,5.86"/>
          <path class="cls-4" d="M297,218.91c1.92,4.88.07,10.17-4.12,11.82s-9.14-1-11.05-5.86"/>
          <path class="cls-4" d="M297,218.91c-1.92-4.88-.07-10.17,4.12-11.82s9.14,1,11.05,5.86"/>
          <path class="cls-4" d="M327.3,207c1.91,4.88.07,10.17-4.12,11.82s-9.14-1-11.06-5.87"/>
        </g>
        <g>
          <path class="cls-5" d="M1403.33,175.44c-1.92-4.88-.07-10.17,4.12-11.82s9.14,1,11,5.87"/>
          <path class="cls-5" d="M1433.68,163.53c1.91,4.88.07,10.17-4.12,11.82s-9.14-1-11.06-5.86"/>
          <path class="cls-5" d="M1433.68,163.53c-1.92-4.88-.08-10.17,4.11-11.82s9.14,1,11.06,5.86"/>
          <path class="cls-5" d="M1464,151.62c1.92,4.88.07,10.17-4.12,11.81s-9.14-1-11.05-5.86"/>
          <path class="cls-5" d="M1464,151.62c-1.92-4.89-.07-10.18,4.12-11.82s9.14,1,11,5.86"/>
          <path class="cls-5" d="M1494.37,139.7c1.91,4.89.07,10.18-4.12,11.82s-9.14-1-11.06-5.86"/>
          <path class="cls-5" d="M1494.37,139.7c-1.92-4.88-.08-10.17,4.11-11.81s9.14,1,11.06,5.86"/>
          <path class="cls-5" d="M1524.71,127.79c1.92,4.88.08,10.17-4.11,11.82s-9.14-1-11.06-5.86"/>
        </g>
        <g>
          <path class="cls-12" d="M1114.46,96.33c-1.92-4.89-.07-10.18,4.12-11.82s9.14,1,11.05,5.86"/>
          <path class="cls-12" d="M1144.81,84.41c1.91,4.88.07,10.18-4.12,11.82s-9.14-1-11.06-5.86"/>
          <path class="cls-12" d="M1144.81,84.41c-1.92-4.88-.08-10.17,4.11-11.81s9.14,1,11.06,5.86"/>
          <path class="cls-12" d="M1175.15,72.5c1.92,4.88.08,10.17-4.11,11.82s-9.14-1-11.06-5.86"/>
        </g>
        <g>
          <g>
            <g>
              <path class="cls-3" d="M841.79,140.87,814.22,76.14c-7.8-21.71-2-44.95,17.91-54.79s44.14-1.29,54.14,19.12l33.56,61.78"/>
              <path class="cls-3" d="M860,18.69c20.23,3.55,39,17.19,51.56,36.69l23,37.58-15.29,7.83"/>
              <path class="cls-3" d="M831.2,21.81c-32.13,15.9-41,52.46-28.93,88.48L816,152.68l26.4-13.17"/>
              <line class="cls-3" x1="822.77" y1="96.25" x2="840.85" y2="139.33"/>
            </g>
            <g>
              <path class="cls-8" d="M985.1,178.06a75.93,75.93,0,0,1,22-13.31c38.68-15.18,82.19,3.47,97.18,41.66s-4.21,81.45-42.89,96.63-82.19-3.46-97.18-41.65A73.83,73.83,0,0,1,970,195.9"/>
              <polyline class="cls-8" points="980.77 200.93 959.27 183.41 971.7 167.48 993.21 185"/>
            </g>
            <path class="cls-3" d="M824.44,224.88c-45.75,18.47-42.23,25.26-40.66,29.25l37.93,96.62,46.08-18.08-1.74-5-23.54-60,23.54,60L901,314l-36-91.72C863.41,218.26,854.67,212.67,824.44,224.88Z"/>
            <line class="cls-4" x1="827.7" y1="-4.68" x2="826.97" y2="0.77"/>
            <g>
              <path class="cls-15" d="M914.86,100.32l6,11.25L914,98.74,929.62,91l4.66,7.61a5.15,5.15,0,0,1-2,7.32l-11.45,5.65"/>
              <polyline class="cls-15" points="920.89 111.21 838.81 151.84 836.55 138.75 914.8 100.02"/>
              <path class="cls-15" d="M810.78,149.82l25.15-12.45,4.53,10.36a3.36,3.36,0,0,1-1.54,4.38l-17.64,8.74a5.82,5.82,0,0,1-8.07-3.54Z"/>
              <path class="cls-15" d="M806.06,35.75s-2.86-14.75,19-23.87c22.31-9.31,27.43,3.95,27.43,3.95h0a39.33,39.33,0,0,0-25.18,3.32l-.93.47A59.68,59.68,0,0,0,806.06,35.75Z"/>
              <path class="cls-5" d="M866.84,22a41.54,41.54,0,0,1,14.51,16.51l39.65,73"/>
              <path class="cls-4" d="M808,42a37,37,0,0,1,19.25-22.65A39.5,39.5,0,0,1,859.13,18"/>
              <path class="cls-5" d="M806.08,52.26a44.34,44.34,0,0,1,.86-6.25"/>
              <path class="cls-5" d="M836.87,138.92,809.3,74.18A55.78,55.78,0,0,1,806,57"/>
              <path class="cls-4" d="M921,111.49l11.27-5.58a5.15,5.15,0,0,0,2-7.32L906.6,53.42C894,33.93,875.27,20.29,855.05,16.73"/>
              <path class="cls-4" d="M810.78,149.82l25.15-12.45,4.53,10.36a3.36,3.36,0,0,1-1.54,4.38l-17.64,8.74a5.82,5.82,0,0,1-8.07-3.54l-15.86-49c-12-36-3.2-72.57,28.94-88.48"/>
              <line class="cls-5" x1="808.87" y1="127.32" x2="806.89" y2="121.2"/>
              <line class="cls-5" x1="812.97" y1="139.99" x2="809.93" y2="130.59"/>
              <path class="cls-4" d="M819.18,157.5a6,6,0,0,1-3.35-2.38"/>
              <path class="cls-4" d="M824.22,156.57l-1.08.54a5.64,5.64,0,0,1-2.44.58"/>
              <polyline class="cls-4" points="836.65 139.03 914.91 100.29 921 111.49 914.05 98.71 929.62 91"/>
              <path class="cls-4" d="M806,36s-2.86-14.75,19-23.88c22.31-9.3,27.43,4,27.43,4"/>
              <polyline class="cls-5" points="830.25 55.44 832.61 59.93 834.97 64.41"/>
              <line class="cls-5" x1="834.48" y1="58.87" x2="832.61" y2="59.93"/>
              <line class="cls-5" x1="834.84" y1="55.8" x2="837.95" y2="61.2"/>
              <path class="cls-5" d="M843.94,56.08c.28,1.26.11,2.3-.55,2.7-1,.62-2.94-.63-4.21-2.79s-1.46-4.41-.41-5a1.7,1.7,0,0,1,1.66.13"/>
              <path class="cls-5" d="M841.72,52.08A8.82,8.82,0,0,1,843,53.74c.15.26.29.52.41.78"/>
              <polyline class="cls-5" points="846.21 47.29 848.11 51.44 850.01 55.58"/>
              <line class="cls-5" x1="849.81" y1="50.6" x2="848.11" y2="51.44"/>
              <line class="cls-5" x1="851.51" y1="50.2" x2="852.63" y2="52.41"/>
              <path class="cls-5" d="M853.55,46.5c-.33-1.34-.15-2.46.54-2.82,1-.5,2.6.71,3.64,2.71s1.09,4,.11,4.54a1,1,0,0,1-.52.12"/>
              <path class="cls-5" d="M855.53,50.07a7.45,7.45,0,0,1-1.33-1.85"/>
            </g>
            <g>
              <path class="cls-4" d="M864.46,333.34l3.73,9.51a8.72,8.72,0,0,1-4.79,11.36L830.74,367a8.45,8.45,0,0,1-10.89-4.9l-41.76-106.4c-1.57-4-5.13-10.77,42.79-30.09,31.66-12.76,40.67-7.28,42.24-3.28L904,326.6a5.52,5.52,0,0,1-3,7.2l-31.51,12.37"/>
              <path class="cls-5" d="M839.21,230.82c2.42-.7,6.76-1.8,8.8-2.23"/>
              <path class="cls-5" d="M831.9,233.2l2.57-.89"/>
              <path class="cls-5" d="M845,262.72a10.75,10.75,0,0,1-6,5.76"/>
              <line class="cls-5" x1="839" y1="268.48" x2="863.82" y2="331.71"/>
            </g>
            <polyline class="cls-16" points="875.88 146.19 885.79 171.45 813.92 204.6 818.66 216.69"/>
            <path class="cls-16" d="M934.28,123.26a42,42,0,0,1,4.64,19.22c-.23,12.69-6.1,27.38-15.22,21.74-6.48-8.7,12.26-17.59,21.13,2.94"/>
            <g>
              <path class="cls-4" d="M1114.49,237.36c1.93,33.72-17.18,66.06-49.65,78.8-40.67,16-86.89-4.86-103.24-46.51a81.58,81.58,0,0,1,5.24-71"/>
              <path class="cls-4" d="M982.52,179.48a76.72,76.72,0,0,1,13.58-9.64"/>
              <path class="cls-5" d="M1124.08,249.37a80.84,80.84,0,0,1-3.32,18.95"/>
              <path class="cls-5" d="M1120.2,219.59a81.94,81.94,0,0,1,4,22.54"/>
              <path class="cls-5" d="M1114.2,205.53q1.75,3.24,3.23,6.68"/>
              <path class="cls-4" d="M959.6,215.52a17.51,17.51,0,0,0-13-20.6l1.57-11.49"/>
              <polyline class="cls-4" points="970.41 201.56 946.96 182.46 962.2 162.93 969.48 168.86"/>
              <path class="cls-4" d="M963.39,163.9l9.76-3.83a17,17,0,0,0,22,9.9"/>
              <g>
                <path class="cls-5" d="M998.83,283.83a82.23,82.23,0,0,1-10-7.9"/>
                <path class="cls-5" d="M1008.31,289.27c-1.25-.61-2.49-1.25-3.71-1.93"/>
                <path class="cls-5" d="M1027.72,295.83a80.63,80.63,0,0,1-12.3-3.5"/>
              </g>
              <line class="cls-5" x1="970.02" y1="169.3" x2="985.65" y2="182.03"/>
              <path class="cls-4" d="M1111.55,219.83a82.27,82.27,0,0,1,2.94,17.53"/>
              <path class="cls-5" d="M1024.47,160.54c35.21-4.35,70.54,16,84.4,51.3a84.21,84.21,0,0,1,2.68,8"/>
              <path class="cls-4" d="M996.1,169.84a79.34,79.34,0,0,1,9.53-4.51,78,78,0,0,1,18.84-4.79"/>
              <path class="cls-5" d="M1043.48,185.17a80.85,80.85,0,0,1,21.22,14.76"/>
              <path class="cls-5" d="M1052.07,180.59a80.58,80.58,0,0,1,21.48,14.4"/>
            </g>
          </g>
          <circle class="cls-4" cx="962.43" cy="148.05" r="11"/>
        </g>
        <path class="cls-17" d="M1334.69,166.43c.12.28.25.57.36.87a20.11,20.11,0,1,1-1.86-3.63"/>
        <circle class="cls-4" cx="661.72" cy="174.66" r="11"/>
        <circle class="cls-8" cx="1841.46" cy="133.95" r="11"/>
        <circle class="cls-8" cx="1071.79" cy="84.64" r="11"/>
        <circle class="cls-8" cx="79.18" cy="167.48" r="11"/>
        <circle class="cls-4" cx="240.71" cy="58.87" r="11"/>
        <g>
          <line class="cls-18" x1="1706.72" y1="48.5" x2="1730.97" y2="61.24"/>
          <line class="cls-18" x1="1714.29" y1="67.78" x2="1723.4" y2="41.95"/>
        </g>
        <g>
          <line class="cls-4" x1="1099.42" y1="303.62" x2="1114.51" y2="311.55"/>
          <line class="cls-4" x1="1104.13" y1="315.62" x2="1109.8" y2="299.54"/>
        </g>
        <g>
          <line class="cls-4" x1="751.51" y1="30.71" x2="766.61" y2="38.64"/>
          <line class="cls-4" x1="756.22" y1="42.71" x2="761.89" y2="26.63"/>
        </g>
        <g>
          <line class="cls-12" x1="430.16" y1="74.88" x2="454.41" y2="87.62"/>
          <line class="cls-12" x1="437.73" y1="94.17" x2="446.84" y2="68.34"/>
        </g>
        <g>
          <line class="cls-12" x1="79.18" y1="78.6" x2="103.43" y2="91.34"/>
          <line class="cls-12" x1="86.75" y1="97.89" x2="95.86" y2="72.05"/>
        </g>
        <line class="cls-19" x1="314.13" y1="83.17" x2="390.71" y2="53.11"/>
        <line class="cls-19" x1="378" y1="74.18" x2="423.71" y2="56.23"/>
        <line class="cls-16" x1="1008.38" y1="23.39" x2="1086.54" y2="-7.3"/>
        <line class="cls-16" x1="1585.79" y1="138.61" x2="1663.96" y2="107.92"/>
        <line class="cls-16" x1="1399.6" y1="284.44" x2="1551.39" y2="224.85"/>
        <line class="cls-20" x1="983.79" y1="15.67" x2="1030.64" y2="-2.73"/>
        <line class="cls-20" x1="1270.92" y1="305.43" x2="1332.94" y2="281.08"/>
        <circle class="cls-12" cx="123.38" cy="247.68" r="26.57"/>
        <circle class="cls-12" cx="164.09" cy="101.28" r="26.57"/>
        <g>
          <path class="cls-5" d="M156.88,176.9c-1.91-4.88-.07-10.17,4.12-11.81s9.14,1,11.06,5.86"/>
          <path class="cls-5" d="M187.23,165c1.91,4.88.07,10.17-4.12,11.82s-9.14-1-11.05-5.86"/>
          <path class="cls-5" d="M187.23,165c-1.92-4.88-.08-10.17,4.11-11.82s9.14,1,11.06,5.86"/>
          <path class="cls-5" d="M217.57,153.08c1.92,4.88.08,10.17-4.11,11.82s-9.14-1-11.06-5.87"/>
          <path class="cls-5" d="M217.57,153.08c-1.91-4.88-.07-10.17,4.12-11.82s9.14,1,11.06,5.86"/>
          <path class="cls-5" d="M247.92,141.17c1.92,4.88.07,10.17-4.12,11.81s-9.14-1-11.05-5.86"/>
          <path class="cls-5" d="M247.92,141.17c-1.92-4.89-.07-10.18,4.12-11.82s9.14,1,11,5.86"/>
          <path class="cls-5" d="M278.27,129.25c1.91,4.89.07,10.18-4.12,11.82s-9.14-1-11.06-5.86"/>
        </g>
        <line class="cls-16" x1="337.77" y1="184.29" x2="489.56" y2="124.71"/>
        <line class="cls-19" x1="302.1" y1="294.86" x2="453.89" y2="235.27"/>
        <line class="cls-20" x1="244.24" y1="187.69" x2="306.27" y2="163.34"/>
        <g>
          <path class="cls-17" d="M1365.78,60c-1.92-4.88-.08-10.18,4.11-11.82s9.14,1,11.06,5.86"/>
          <path class="cls-17" d="M1396.12,48.07c1.92,4.89.08,10.18-4.11,11.82s-9.14-1-11.06-5.86"/>
          <path class="cls-17" d="M1396.12,48.07c-1.91-4.88-.07-10.17,4.12-11.81s9.14,1,11,5.86"/>
          <path class="cls-17" d="M1426.47,36.16c1.91,4.88.07,10.17-4.12,11.82s-9.14-1-11.06-5.86"/>
          <path class="cls-17" d="M1426.47,36.16c-1.92-4.88-.08-10.17,4.11-11.82s9.14,1,11.06,5.87"/>
          <path class="cls-17" d="M1456.81,24.25c1.92,4.88.08,10.17-4.11,11.82s-9.14-1-11.06-5.86"/>
          <path class="cls-17" d="M1456.81,24.25c-1.91-4.88-.07-10.17,4.12-11.82s9.14,1,11.06,5.86"/>
          <path class="cls-17" d="M1487.16,12.34c1.92,4.88.07,10.17-4.12,11.81s-9.14-1-11-5.86"/>
        </g>
        <line class="cls-16" x1="1316.29" y1="48.83" x2="1394.46" y2="18.14"/>
        <line class="cls-16" x1="1475.5" y1="83.12" x2="1627.29" y2="23.54"/>
        <line class="cls-20" x1="1453.14" y1="70.77" x2="1515.16" y2="46.42"/>
      </g>
      <g>
        <path class="cls-3" d="M1724.12,147.69c-5.5,7.41-6.79,16.94-4.75,25.47l-38.21,3.67c-1.52-16.67,10.51-31.22,26.87-32.49a29.52,29.52,0,0,1,18.63,4.85"/>
        <g>
          <ellipse class="cls-14" cx="1729.57" cy="145.95" rx="4.61" ry="4.72" transform="translate(66.27 642.1) rotate(-21.43)"/>
          <path class="cls-14" d="M1714.18,179.68l-29.24,1.93a5.13,5.13,0,0,1-5.39-4.75l-.13-1.63,40.43-2.67,0,.4A6.16,6.16,0,0,1,1714.18,179.68Z"/>
          <path class="cls-4" d="M1719.82,172.29a30.38,30.38,0,0,1,5-25.23"/>
          <path class="cls-16" d="M1724.23,159.61a30.15,30.15,0,0,1,1.93-6.74"/>
          <path class="cls-4" d="M1679.37,174.71c-1.52-16.67,10.51-31.22,26.87-32.49a29.55,29.55,0,0,1,18.62,4.84"/>
          <path class="cls-20" d="M1689.2,157.65a30.6,30.6,0,0,1,1.84-2.88"/>
          <path class="cls-20" d="M1685.35,172.21a30.28,30.28,0,0,1,2-10.66"/>
          <ellipse class="cls-4" cx="1729.45" cy="146" rx="4.61" ry="4.72" transform="translate(66.25 642.05) rotate(-21.43)"/>
          <path class="cls-16" d="M1733.39,152.54a4.62,4.62,0,0,1-1.28,1"/>
          <path class="cls-16" d="M1729,154.17a4.63,4.63,0,0,1-2.85-1.3"/>
          <path class="cls-4" d="M1714.17,179.66l-29.24,1.93a5.12,5.12,0,0,1-5.39-4.75l-.13-1.63,40.43-2.67,0,.4A6.16,6.16,0,0,1,1714.17,179.66Z"/>
        </g>
      </g>
    </g>
  </g>
</svg>
