<svg id="Слой_1" data-name="Слой 1" xmlns="http://www.w3.org/2000/svg" viewBox="0 0 1293.31 1034.64"><defs><style>.cls-1{fill:#fcc;}.cls-10,.cls-15,.cls-16,.cls-17,.cls-18,.cls-19,.cls-2,.cls-20,.cls-21,.cls-22,.cls-23,.cls-24,.cls-5,.cls-6,.cls-7,.cls-9{fill:none;stroke-linecap:round;stroke-linejoin:round;}.cls-10,.cls-19,.cls-2,.cls-20,.cls-22{stroke:#fff;}.cls-2,.cls-22{stroke-width:8.25px;}.cls-2{stroke-dasharray:66 24.75;}.cls-3{opacity:0.7;}.cls-14,.cls-4{fill:#fff;}.cls-11,.cls-15,.cls-16,.cls-17,.cls-18,.cls-23,.cls-5,.cls-6,.cls-7,.cls-9{stroke:#339;}.cls-5{stroke-width:3.38px;}.cls-24,.cls-6{stroke-width:5.58px;}.cls-21,.cls-7{stroke-width:3.29px;}.cls-11,.cls-8{fill:#339;}.cls-10,.cls-11,.cls-9{stroke-width:8.14px;}.cls-11{stroke-miterlimit:10;}.cls-12{fill:#f54e56;}.cls-13{opacity:0.4;}.cls-14,.cls-15,.cls-16{opacity:0.8;}.cls-15{stroke-width:3.77px;}.cls-16{stroke-width:3.84px;}.cls-17,.cls-19{stroke-width:4px;}.cls-18{stroke-width:3.34px;}.cls-20{stroke-width:8.09px;}.cls-21,.cls-24{stroke:#f54e56;}.cls-22{stroke-dasharray:66 24.75;}.cls-22,.cls-23{opacity:0.5;}.cls-23{stroke-width:3.3px;stroke-dasharray:26.39 9.9;}</style></defs><title>конец сезона</title><rect class="cls-1" width="1293.31" height="1034.64"/><line class="cls-2" x1="616.06" y1="955.06" x2="1289.1" y2="955.06"/><line class="cls-2" x1="28.38" y1="889.65" x2="169.03" y2="889.65"/><g class="cls-3"><path class="cls-4" d="M107.67,707.53s-3.81,20.63,59.08,32c72.07,13,139.53-10.57,149-28-23.58-20.22-65.41-52.18-65.41-52.18,10.33-4.33,45.81-41.43,41.89-43.93l-52-29.72c-7-4.48-19.7-13.29-14.32-19.65L262.33,538c3.24-3.83-13.46-6.76-18.17-8.49l-28.11-10.3a9.61,9.61,0,0,1-5.72-12.37l15.15-49-74,61.27,33.13,36.58-65.84,65.41,31.42,32.28-42.48,54.16" transform="translate(0 0.03)"/><polyline class="cls-5" points="342.63 707.56 293.14 656.78 324.56 624.5 258.72 559.09 291.85 522.51 225.15 457.53 158.45 522.51 191.59 559.09 125.75 624.5 157.16 656.78 107.67 707.56"/><path class="cls-5" d="M342.63,707.53c0,20.35-52.59,36.84-117.48,36.84s-117.48-16.49-117.48-36.84" transform="translate(0 0.03)"/></g><path class="cls-6" d="M243.31,210.74c0,19.31-13.44,35-30,35s-30-15.66-30-35" transform="translate(0 0.03)"/><path class="cls-6" d="M333.36,245.71c-16.57,0-30-15.66-30-35" transform="translate(0 0.03)"/><path class="cls-6" d="M243.31,210.74c0-19.32,13.44-35,30-35s30,15.66,30,35" transform="translate(0 0.03)"/><path class="cls-6" d="M123.23,210.74c0-19.32,13.44-35,30-35s30,15.66,30,35" transform="translate(0 0.03)"/><path class="cls-6" d="M123.23,210.74c0,19.31-13.44,35-30,35s-30-15.66-30-35" transform="translate(0 0.03)"/><path class="cls-6" d="M3.15,210.74c0-19.32,13.44-35,30-35s30,15.66,30,35" transform="translate(0 0.03)"/><line class="cls-7" x1="223.13" y1="498.82" x2="247.53" y2="527.04"/><line class="cls-7" x1="223.13" y1="527.04" x2="247.53" y2="498.82"/><circle class="cls-1" cx="697.73" cy="631.09" r="221.74"/><circle class="cls-4" cx="702.05" cy="127.65" r="28.87"/><path class="cls-4" d="M771.86,469.59a129.82,129.82,0,1,0-141.41-8.71" transform="translate(0 0.03)"/><path class="cls-8" d="M776.06,251.47c1.47-42.06-29.31-91.41-69.92-93.27S630.38,202.67,628,244.69h0a119.61,119.61,0,0,1,148.07,6.78Z" transform="translate(0 0.03)"/><path class="cls-4" d="M615,441.11c-69,36.48-114.79,108.64-112,190.11C506.87,746,605.73,835.81,723.76,831.78S934.3,731.42,930.38,616.63c-2.78-81.54-53.46-150.46-124.89-182.11" transform="translate(0 0.03)"/><path class="cls-9" d="M683.61,482.16a131.74,131.74,0,0,0,14.12.76" transform="translate(0 0.03)"/><path class="cls-9" d="M628.72,463.07A129.15,129.15,0,0,0,658.91,477" transform="translate(0 0.03)"/><path class="cls-9" d="M755.22,469.52a129.82,129.82,0,1,0-140.68-16.77" transform="translate(0 0.03)"/><path class="cls-9" d="M776.11,249.47c0-43.29-35.09-93-78.38-93s-78.38,49.7-78.38,93" transform="translate(0 0.03)"/><path class="cls-10" d="M734.91,186.72a92.6,92.6,0,0,0-12.06-14.48" transform="translate(0 0.03)"/><path class="cls-10" d="M745.64,207.09A110.33,110.33,0,0,0,740,195" transform="translate(0 0.03)"/><path class="cls-9" d="M600,438.46A219.13,219.13,0,0,0,478.6,634.62c0,121,98.11,219.13,219.13,219.13s219.13-98.11,219.13-219.13A219.12,219.12,0,0,0,795.32,438.37" transform="translate(0 0.03)"/><path class="cls-9" d="M802.64,667.1a220.24,220.24,0,0,0,87.65-89.61" transform="translate(0 0.03)"/><path class="cls-9" d="M739.57,690.3a217.35,217.35,0,0,0,35.72-10.39" transform="translate(0 0.03)"/><circle class="cls-9" cx="697.73" cy="124.83" r="28.87"/><path class="cls-9" d="M747,132.83a29.66,29.66,0,0,0,.75-4.46,28.76,28.76,0,0,0-2.65-14.9" transform="translate(0 0.03)"/><path class="cls-9" d="M733.58,151.54a28.7,28.7,0,0,0,6.86-5.47" transform="translate(0 0.03)"/><circle class="cls-11" cx="648.07" cy="349.95" r="7.82"/><circle class="cls-11" cx="747.39" cy="350.66" r="7.82"/><circle class="cls-12" cx="622.04" cy="376.36" r="21.53"/><circle class="cls-12" cx="773.43" cy="376.36" r="21.53"/><circle class="cls-12" cx="656.7" cy="609.44" r="12.88"/><path class="cls-9" d="M630.71,725.75a22.47,22.47,0,0,0,7.7,12.66" transform="translate(0 0.03)"/><path class="cls-9" d="M675.54,596.85A22.4,22.4,0,0,0,657,587" transform="translate(0 0.03)"/><path class="cls-9" d="M638.53,684.52a22.57,22.57,0,0,1-7.95-9.22" transform="translate(0 0.03)"/><path class="cls-9" d="M642.5,626.9a22.51,22.51,0,0,1-7.94-9.21" transform="translate(0 0.03)"/><circle class="cls-8" cx="650.64" cy="663.72" r="12.88"/><circle class="cls-8" cx="653.13" cy="721.43" r="12.88"/><path class="cls-12" d="M425.59,588.57a7.73,7.73,0,0,0,4.11-4.79c1.78-7.71-13-17.71-33-22.34a78.91,78.91,0,0,0-24.26-2.07c-.16,0-.31,0-.47,0-11.82.94-20.9,8-20.29,15.72.42,5.26,5.2,9.48,11.92,11.36-20.29,7.39-33.78,22-32.53,37.68C332.77,645,360,659.93,391.83,657.4s56.38-21.53,54.72-42.42C445.67,603.93,437.65,594.57,425.59,588.57Z" transform="translate(0 0.03)"/><path class="cls-4" d="M464.42,615.59l2.17,6.65A14.93,14.93,0,0,1,457,641.06h0a14.94,14.94,0,0,1-18.82-9.56L417.49,568A14.92,14.92,0,0,1,427,549.16h0a14.92,14.92,0,0,1,18.82,9.56l18.56,56.87" transform="translate(0 0.03)"/><path class="cls-9" d="M363.32,556.33c-11.81.94-20.89,8-20.28,15.73" transform="translate(0 0.03)"/><path class="cls-9" d="M412.72,568.42c-6-4-14.66-7.71-24.67-10a79.23,79.23,0,0,0-24.26-2.08l-.47,0" transform="translate(0 0.03)"/><path class="cls-9" d="M401.76,650.81" transform="translate(0 0.03)"/><path class="cls-9" d="M335.21,601.61c-7.7,7.19-12,16-11.24,25.09,1.66,20.9,28.85,35.78,60.72,33.25q1.31-.11,2.58-.24" transform="translate(0 0.03)"/><path class="cls-9" d="M463.19,616,467,627.72a14.91,14.91,0,0,1-9.56,18.81h0a14.7,14.7,0,0,1-8.14.32" transform="translate(0 0.03)"/><path class="cls-9" d="M429.12,607.79l-11.2-34.34a14.92,14.92,0,0,1,9.55-18.81h0a14.92,14.92,0,0,1,18.82,9.55l11.48,35.18" transform="translate(0 0.03)"/><line class="cls-9" x1="351.01" y1="585.17" x2="368.88" y2="586.09"/><path class="cls-9" d="M708.54,361c0,9.48-5.62,17.17-12.54,17.17s-12.54-7.69-12.54-17.17" transform="translate(0 0.03)"/><g class="cls-13"><path class="cls-4" d="M783.64,377.93l4.9-2.12h0a5.82,5.82,0,0,0,3.22-2.79,5.88,5.88,0,1,0-10.4-5.47,5.88,5.88,0,1,0-10.4-5.47,5.82,5.82,0,0,0-.48,4.23h0l3.14,16,10-4.34" transform="translate(0 0.03)"/></g><g class="cls-13"><path class="cls-4" d="M610.78,379.66l-4.9-2.12h0a5.88,5.88,0,1,1,7.19-8.26,5.88,5.88,0,1,1,10.4-5.47A5.82,5.82,0,0,1,624,368h0l-3.13,16-10-4.34" transform="translate(0 0.03)"/></g><path class="cls-1" d="M451.6,762.93l-73.35-72.87,36.92-40.75-74.31-72.39-74.31,72.39,36.91,40.75-73.35,72.87,35,36L210,855.46c0,22.67,58.59,41,130.88,41s130.88-18.38,130.88-41L416.6,798.89Z" transform="translate(0 0.03)"/><path class="cls-14" d="M210,856s-4.25,23,65.82,35.62c80.29,14.49,155.45-11.78,166-31.16C415.58,838,369,802.35,369,802.35c11.5-4.82,51-46.15,46.66-48.93L357.72,720.3c-7.82-5-21.94-14.8-16-21.89l40.53-31.3c3.6-4.27-15-7.54-20.25-9.46l-31.32-11.47a10.74,10.74,0,0,1-6.37-13.79l16.89-54.55-82.49,68.27,36.91,40.75-73.35,72.87,35,36L210,856" transform="translate(0 0.03)"/><polyline class="cls-15" points="471.76 856.06 416.63 799.49 451.63 763.53 378.27 690.66 415.19 649.91 340.88 577.52 266.57 649.91 303.49 690.66 230.14 763.53 265.13 799.49 210 856.06"/><polyline class="cls-15" points="340.88 860.52 339.05 655.57 353.92 641.67"/><line class="cls-15" x1="340.88" y1="802.38" x2="395.53" y2="748.71"/><line class="cls-15" x1="339.53" y1="829.22" x2="284.88" y2="775.55"/><path class="cls-15" d="M261.73,756.14a11.57,11.57,0,0,1-9.61,5.1" transform="translate(0 0.03)"/><circle class="cls-12" cx="392.09" cy="819.11" r="10.07"/><path class="cls-15" d="M404.73,827.45a11.55,11.55,0,0,1-9.6,5.1" transform="translate(0 0.03)"/><path class="cls-15" d="M395.75,805.87a11.58,11.58,0,0,1,11.59,11.58" transform="translate(0 0.03)"/><circle class="cls-12" cx="305.22" cy="691.49" r="10.07"/><path class="cls-15" d="M316.59,699.23a12.44,12.44,0,0,1-9.91,7.5" transform="translate(0 0.03)"/><path class="cls-15" d="M298.1,706.93a12.54,12.54,0,0,1-4.59-4.64" transform="translate(0 0.03)"/><path class="cls-15" d="M371.29,738a12.52,12.52,0,0,1,1.65,3" transform="translate(0 0.03)"/><path class="cls-15" d="M374.17,747.77A12.42,12.42,0,0,1,369,759.06" transform="translate(0 0.03)"/><path class="cls-15" d="M362.17,761.72a12.54,12.54,0,0,1-6.52.08" transform="translate(0 0.03)"/><circle class="cls-12" cx="360.51" cy="636.84" r="10.07"/><path class="cls-15" d="M361.51,651a12.19,12.19,0,0,1-10.29-3.53" transform="translate(0 0.03)"/><path class="cls-15" d="M375.24,639.28a12.24,12.24,0,0,1-7.18,10.14" transform="translate(0 0.03)"/><circle class="cls-12" cx="358.91" cy="746.82" r="10.07"/><path class="cls-15" d="M349.17,627.59a12.43,12.43,0,0,1,2.54-2.26" transform="translate(0 0.03)"/><circle class="cls-12" cx="275.67" cy="836.6" r="10.07"/><path class="cls-15" d="M276.67,850.73a12.25,12.25,0,0,1-10.29-3.53" transform="translate(0 0.03)"/><path class="cls-15" d="M264.33,827.36a12.69,12.69,0,0,1,2.53-2.27" transform="translate(0 0.03)"/><path class="cls-15" d="M301.68,676.89a12.38,12.38,0,0,1,3.38-.35" transform="translate(0 0.03)"/><path class="cls-15" d="M471.76,856c0,22.67-58.6,41.05-130.88,41.05S210,878.7,210,856" transform="translate(0 0.03)"/><path class="cls-1" d="M1167.54,664l-74.73-74.24,37.61-41.52-75.71-73.76L979,548.27l37.61,41.52L941.88,664l35.65,36.64-56.17,57.64c0,23.1,59.7,41.82,133.35,41.82s133.35-18.72,133.35-41.82l-56.17-57.64Z" transform="translate(0 0.03)"/><path class="cls-14" d="M921.39,758.88s-4.33,23.42,67.06,36.3c81.8,14.76,158.37-12,169.16-31.75-26.77-22.95-74.25-59.23-74.25-59.23,11.72-4.91,52-47,47.54-49.86l-59-33.74c-8-5.08-22.36-15.08-16.26-22.3l41.29-31.9c3.68-4.35-15.28-7.68-20.62-9.63l-31.91-11.69a10.92,10.92,0,0,1-6.49-14.05l17.2-55.57-84,69.55,37.61,41.52-74.73,74.24,35.66,36.64-48.21,61.47" transform="translate(0 0.03)"/><polyline class="cls-16" points="1188.08 758.91 1131.91 701.27 1167.57 664.64 1092.83 590.4 1130.44 548.88 1054.73 475.12 979.02 548.88 1016.63 590.4 941.9 664.64 977.56 701.27 921.39 758.91"/><polyline class="cls-16" points="1054.73 763.46 1052.87 554.65 1068.02 540.48"/><line class="cls-16" x1="1054.73" y1="704.23" x2="1110.42" y2="649.54"/><line class="cls-16" x1="1053.36" y1="731.57" x2="997.68" y2="676.88"/><path class="cls-16" d="M1188.08,758.88c0,23.1-59.7,41.83-133.35,41.83S921.39,782,921.39,758.88" transform="translate(0 0.03)"/><rect class="cls-1" x="602.37" y="593.24" width="199.42" height="174.9" transform="translate(-193.78 288.69) rotate(-20.48)"/><rect class="cls-4" x="624.49" y="596.12" width="139.4" height="173" transform="translate(-194.96 286.06) rotate(-20.48)"/><rect class="cls-8" x="679.88" y="591.57" width="33.6" height="176.5" transform="translate(-193.82 286.75) rotate(-20.48)"/><path class="cls-8" d="M651.07,569.45h21.71a5.22,5.22,0,0,1,5.22,5.22v23a0,0,0,0,1,0,0H645.85a0,0,0,0,1,0,0v-23A5.22,5.22,0,0,1,651.07,569.45Z" transform="translate(-162.33 268.5) rotate(-20.48)"/><path class="cls-8" d="M686.58,529.26h29.29a15.53,15.53,0,0,1,15.53,15.53v23.66A15.53,15.53,0,0,1,715.87,584H671.05a0,0,0,0,1,0,0V544.79A15.53,15.53,0,0,1,686.58,529.26Z" transform="translate(-150.43 280.56) rotate(-20.48)"/><path class="cls-8" d="M584.41,561.62h44.82a15.53,15.53,0,0,1,15.53,15.53v23.66a15.53,15.53,0,0,1-15.53,15.53H599.93a15.53,15.53,0,0,1-15.53-15.53V561.62A0,0,0,0,1,584.41,561.62Z" transform="translate(1396.39 925.73) rotate(159.52)"/><rect class="cls-17" x="602.37" y="593.24" width="199.42" height="174.9" transform="translate(-193.78 288.69) rotate(-20.48)"/><line class="cls-17" x1="762.85" y1="667.27" x2="771.78" y2="691.19"/><line class="cls-17" x1="756.58" y1="650.49" x2="759.59" y2="658.56"/><path class="cls-18" d="M656.61,571.12h21.71a5.22,5.22,0,0,1,5.22,5.22v23a0,0,0,0,1,0,0H651.4a0,0,0,0,1,0,0v-23A5.22,5.22,0,0,1,656.61,571.12Z" transform="translate(-162.57 270.55) rotate(-20.48)"/><path class="cls-17" d="M691.82,531h29.29a15.53,15.53,0,0,1,15.53,15.53v21.87a15.53,15.53,0,0,1-15.53,15.53H676.29a0,0,0,0,1,0,0v-37.4A15.53,15.53,0,0,1,691.82,531Z" transform="translate(-150.39 282.44) rotate(-20.48)"/><path class="cls-19" d="M685.58,553.4a19.11,19.11,0,0,1,5-8.54" transform="translate(0 0.03)"/><line class="cls-19" x1="703" y1="578.08" x2="695.8" y2="580.77"/><path class="cls-19" d="M720.78,556.62c1,8.06-4.36,16.42-13.32,19.77" transform="translate(0 0.03)"/><path class="cls-19" d="M610.61,605.85A19.16,19.16,0,0,0,620,609" transform="translate(0 0.03)"/><path class="cls-19" d="M635.08,580.35c-4.5-6.77-14.05-9.55-23-6.2" transform="translate(0 0.03)"/><path class="cls-17" d="M589.64,563.35h44.82A15.53,15.53,0,0,1,650,578.88v21.87a15.53,15.53,0,0,1-15.53,15.53H605.17a15.53,15.53,0,0,1-15.53-15.53v-37.4A0,0,0,0,1,589.64,563.35Z" transform="translate(1406.82 925.52) rotate(159.52)"/><polyline class="cls-17" points="718.54 767.92 657.34 604.08 687.46 592.83 748.65 756.68 718.54 767.92"/><line class="cls-17" x1="620.42" y1="684.35" x2="624.77" y2="696"/><line class="cls-17" x1="605.02" y1="643.11" x2="617.21" y2="675.75"/><line class="cls-17" x1="771.27" y1="581.02" x2="708.72" y2="604.38"/><line class="cls-17" x1="650.15" y1="626.25" x2="584.46" y2="650.79"/><path class="cls-12" d="M781.83,639a7.69,7.69,0,0,0,4.11-4.78c1.78-7.71-13-17.72-33-22.34a79.23,79.23,0,0,0-24.26-2.08l-.47,0c-11.82.94-20.9,8-20.28,15.73.41,5.25,5.19,9.48,11.91,11.36-20.29,7.38-33.78,22-32.53,37.68,1.66,20.89,28.85,35.78,60.72,33.24s56.38-21.52,54.72-42.41C801.91,654.36,793.9,645,781.83,639Z" transform="translate(0 0.03)"/><path class="cls-4" d="M820.66,666l2.17,6.65a14.91,14.91,0,0,1-9.55,18.81h0a14.92,14.92,0,0,1-18.82-9.55L773.73,618.4a14.91,14.91,0,0,1,9.55-18.81h0a14.92,14.92,0,0,1,18.82,9.55L820.66,666" transform="translate(0 0.03)"/><path class="cls-9" d="M719.56,606.76c-11.81.94-20.89,8-20.28,15.72" transform="translate(0 0.03)"/><path class="cls-9" d="M769,618.85c-6-4.05-14.67-7.72-24.68-10A78.88,78.88,0,0,0,720,606.74l-.48,0" transform="translate(0 0.03)"/><path class="cls-9" d="M758,701.23" transform="translate(0 0.03)"/><path class="cls-9" d="M691.45,652c-7.7,7.19-12,16-11.24,25.09,1.66,20.89,28.85,35.78,60.72,33.25q1.3-.11,2.58-.24" transform="translate(0 0.03)"/><path class="cls-9" d="M819.43,666.42l3.83,11.73A14.92,14.92,0,0,1,813.71,697h0a14.9,14.9,0,0,1-8.14.32" transform="translate(0 0.03)"/><path class="cls-9" d="M785.36,658.22l-11.2-34.34a14.91,14.91,0,0,1,9.55-18.81h0a14.92,14.92,0,0,1,18.82,9.55L814,649.8" transform="translate(0 0.03)"/><line class="cls-9" x1="707.25" y1="635.6" x2="725.12" y2="636.51"/><line class="cls-20" x1="637.12" y1="160.23" x2="669.15" y2="197.28"/><line class="cls-20" x1="637.12" y1="197.28" x2="669.15" y2="160.23"/><line class="cls-10" x1="406.95" y1="306.12" x2="491.94" y2="404.42"/><line class="cls-10" x1="406.95" y1="404.42" x2="491.94" y2="306.12"/><line class="cls-21" x1="169.03" y1="642.7" x2="201.06" y2="679.74"/><line class="cls-21" x1="169.03" y1="679.74" x2="201.06" y2="642.7"/><line class="cls-21" x1="993.49" y1="612.43" x2="1025.52" y2="649.47"/><line class="cls-21" x1="993.49" y1="649.47" x2="1025.52" y2="612.43"/><circle class="cls-22" cx="1097.31" cy="215.36" r="110.16"/><circle class="cls-23" cx="979.1" cy="518.23" r="44.05"/><line class="cls-6" x1="959.47" y1="228.26" x2="1014.83" y2="292.28"/><line class="cls-6" x1="959.47" y1="292.28" x2="1014.83" y2="228.26"/><path class="cls-24" d="M1290.42,846.64c-16.58,0-30-15.66-30-35" transform="translate(0 0.03)"/><path class="cls-24" d="M1200.36,811.66c0,19.32-13.44,35-30,35s-30-15.66-30-35" transform="translate(0 0.03)"/><path class="cls-24" d="M1200.36,811.66c0-19.32,13.44-35,30-35s30,15.66,30,35" transform="translate(0 0.03)"/><path class="cls-24" d="M1080.28,811.66c0,19.32-13.44,35-30,35s-30-15.66-30-35" transform="translate(0 0.03)"/><path class="cls-24" d="M1080.28,811.66c0-19.32,13.44-35,30-35s30,15.66,30,35" transform="translate(0 0.03)"/></svg>