<svg id="Слой_1" data-name="Слой 1" xmlns="http://www.w3.org/2000/svg" xmlns:xlink="http://www.w3.org/1999/xlink" viewBox="0 0 321.27 321.29">
  <defs>
    <style>
      .cls-1, .cls-11, .cls-6, .cls-7, .cls-9 {
        fill: none;
      }

      .cls-2 {
        fill: #fcc;
      }

      .cls-3 {
        clip-path: url(#clip-path);
      }

      .cls-10, .cls-4, .cls-5 {
        fill: #fff;
      }

      .cls-5 {
        opacity: 0.4;
      }

      .cls-10, .cls-6, .cls-7, .cls-9 {
        stroke: #339;
      }

      .cls-10, .cls-11, .cls-6, .cls-7, .cls-9 {
        stroke-linecap: round;
        stroke-linejoin: round;
      }

      .cls-6 {
        stroke-width: 1.35px;
      }

      .cls-10, .cls-11, .cls-7 {
        stroke-width: 2.3px;
      }

      .cls-8 {
        fill: #f54e56;
      }

      .cls-9 {
        stroke-width: 1.37px;
      }

      .cls-11 {
        stroke: #fff;
      }
    </style>
    <clipPath id="clip-path">
      <path class="cls-1" d="M-36.49,268.17c-4.61-5.66-7.09-11.63-7.09-17.81,0-35.5,81.57-64.27,182.2-64.27,11.58,0,22.9.38,33.89,1.11,30.63-20.29,91.19-34.11,160.92-34.11,100.63,0,182.21,28.77,182.21,64.27s-81.58,64.27-182.21,64.27c-11.58,0-22.9-.39-33.88-1.12a115.07,115.07,0,0,1-13.07,7.4c4.62,5.66,7.1,11.63,7.1,17.81,0,35.5-81.58,64.27-182.2,64.27S-70.83,341.22-70.83,305.72C-70.83,291.7-58.09,278.73-36.49,268.17Z"/>
    </clipPath>
  </defs>
  <title>Для 2 стр</title>
  <g>
    <circle class="cls-2" cx="160.67" cy="160.65" r="160.63"/>
    <g class="cls-3">
      <circle class="cls-4" cx="160.62" cy="160.68" r="160.63"/>
    </g>
    <g>
      <path class="cls-5" d="M162.72,144.21c20.62,0,38.51-6,47.42-14.75a85,85,0,0,0-95.65-.81C123.1,137.85,141.46,144.21,162.72,144.21Z"/>
      <path class="cls-5" d="M114.49,128.65a81.67,81.67,0,0,1,7.21-4.36"/>
      <path class="cls-5" d="M210.14,129.46c2.73-2.68,4.9-5.62,5.77-8.72l.41-3.24c0-11.76-15.4-13.76-35.83-13.76-5.69,0-11.81.1-18.17.1h-.56c-6.36,0-12.44-.1-18.07-.1-20.21,0-34.44,1.32-34.44,13.08,0,4.24,1.88,8.25,5.24,11.83"/>
      <path class="cls-5" d="M121.7,124.29a85.19,85.19,0,0,1,88.44,5.17"/>
      <path class="cls-6" d="M114.49,128.65a81.67,81.67,0,0,1,7.21-4.36"/>
      <path class="cls-7" d="M180.49,103.74c-5.69,0-11.81.1-18.17.1h-.56c-6.36,0-12.44-.1-18.07-.1"/>
      <path class="cls-7" d="M206.37,127c1.28.8,2.54,1.64,3.77,2.5,2.73-2.68,5-5.4,5.84-8.51"/>
      <g>
        <rect class="cls-2" x="127.85" y="76.68" width="78.25" height="84.63" transform="translate(61.7 -56.96) rotate(23.63)"/>
        <rect class="cls-4" x="137.3" y="73.78" width="54.7" height="85.29" transform="translate(60.48 -56.24) rotate(23.63)"/>
        <rect class="cls-8" x="159.27" y="74.19" width="13.19" height="85.41" transform="translate(60.77 -56.69) rotate(23.63)"/>
        <path class="cls-8" d="M182.09,64.88h8.07a2.27,2.27,0,0,1,2.27,2.27V78.52a0,0,0,0,1,0,0H179.81a0,0,0,0,1,0,0V67.15a2.27,2.27,0,0,1,2.27-2.27Z" transform="translate(44.35 -68.6) rotate(23.63)"/>
        <path class="cls-8" d="M199.9,60.65H210a6.77,6.77,0,0,1,6.77,6.77V80.36A6.77,6.77,0,0,1,210,87.13H193.13a0,0,0,0,1,0,0V67.42a6.77,6.77,0,0,1,6.77-6.77Z" transform="translate(46.81 -75.97) rotate(23.63)"/>
        <path class="cls-8" d="M159.88,46.1H176.8a6.77,6.77,0,0,1,6.77,6.77V65.81a6.77,6.77,0,0,1-6.77,6.77H166.65a6.77,6.77,0,0,1-6.77-6.77V46.1A0,0,0,0,1,159.88,46.1Z" transform="translate(305.26 182.54) rotate(-156.37)"/>
        <rect class="cls-9" x="127.92" y="76.53" width="78.25" height="84.63" transform="translate(61.65 -57) rotate(23.63)"/>
        <line class="cls-7" x1="187.53" y1="132.38" x2="182.57" y2="143.7"/>
        <line class="cls-7" x1="191" y1="124.44" x2="189.33" y2="128.25"/>
        <path class="cls-7" d="M183.07,67.16h8.07a2.27,2.27,0,0,1,2.27,2.27V80.8a0,0,0,0,1,0,0H180.79a0,0,0,0,1,0,0V69.43A2.27,2.27,0,0,1,183.07,67.16Z" transform="translate(45.35 -68.8) rotate(23.63)"/>
        <path class="cls-7" d="M201,63H211.2A6.77,6.77,0,0,1,218,69.73V81.81a6.77,6.77,0,0,1-6.77,6.77H194.28a0,0,0,0,1,0,0V69.73A6.77,6.77,0,0,1,201,63Z" transform="translate(47.66 -76.27) rotate(23.63)"/>
        <path class="cls-7" d="M201.75,68a8.06,8.06,0,0,1,4-1.56"/>
        <line class="cls-7" x1="198.86" y1="82.15" x2="196.09" y2="80.94"/>
        <path class="cls-7" d="M210.23,79.8a8,8,0,0,1-9.66,3.1"/>
        <path class="cls-7" d="M165.46,64.22a8.09,8.09,0,0,0,1.56,4"/>
        <path class="cls-7" d="M179.89,62.43a8,8,0,0,0-4.28-9.19"/>
        <path class="cls-7" d="M161,48.42h16.92a6.77,6.77,0,0,1,6.77,6.77V67.26A6.77,6.77,0,0,1,177.95,74H167.8A6.77,6.77,0,0,1,161,67.26V48.42A0,0,0,0,1,161,48.42Z" transform="translate(306.71 186.61) rotate(-156.37)"/>
        <rect class="cls-7" x="161.1" y="76.68" width="12.61" height="84.63" transform="translate(61.74 -57.13) rotate(23.63)"/>
        <line class="cls-7" x1="143.97" y1="95.45" x2="141.56" y2="100.97"/>
        <line class="cls-7" x1="152.51" y1="75.94" x2="145.76" y2="91.38"/>
      </g>
      <path class="cls-1" d="M215.7,133.75l.55.45c0-2.74-.07-5.24-.07-5.24a14.42,14.42,0,0,1-.5,3.75C215.69,133,215.69,133.39,215.7,133.75Z"/>
      <path class="cls-1" d="M215.63,129s0,1.66.05,3.75a14.16,14.16,0,0,0,.5-3.59V117a14.19,14.19,0,0,1-.55,3.76Z"/>
      <path class="cls-1" d="M215.7,134.2l.56.49v-.49l-.55-.45Z"/>
      <path class="cls-1" d="M242.82,196.6c.14-1.84.11-3.71.11-5.58,0-22.53-10.29-42.79-26.68-56.82v.49c16.05,14,26.11,34.06,26.11,56.33,0,1.87,0,3.74-.1,5.58,9.79,34.65-41.52,64.19-85.12,64.35h.19C201,261,252.64,231.35,242.82,196.6Z"/>
      <path class="cls-8" d="M215.7,133.75c0-.36,0-.71,0-1-.07.27-.15.55-.24.82Z"/>
      <path class="cls-8" d="M215.7,133.75l-.26-.22a22.07,22.07,0,0,1-7.19,9.79,22.07,22.07,0,0,0,7.19-9.79c-1.71-1.42-3.47-2.78-5.3-4.07-8.91,8.76-26.8,14.75-47.42,14.75-21.26,0-39.62-6.36-48.23-15.56-1.67,1.13-3.29,2.3-4.86,3.54,1.59,7,8.27,13.12,18.08,17.47-9.81-4.35-16.49-10.51-18.08-17.47l-.38.31v8.65c0,14.49,22,26.35,49.78,27.32a2.78,2.78,0,0,1,3.91.07c29.4-.07,47.9-13.28,53.24-27.39.11-.27.11-3.42.08-6.46l-.56-.49Z"/>
      <path class="cls-8" d="M114.49,128.65c-3.36-3.58-5.24-7.59-5.24-11.83V129a14,14,0,0,0,.38,3.23C111.2,131,112.82,129.78,114.49,128.65Z"/>
      <path class="cls-8" d="M109.25,129v3.54l.38-.31A14,14,0,0,1,109.25,129Z"/>
      <path class="cls-8" d="M215.91,132.92c0-2.09-.06-3.75-.06-3.75V121a20,20,0,0,1-5.48,8.72c1.83,1.29,3.58,2.65,5.29,4.08C215.75,133.47,215.83,133.2,215.91,132.92Z"/>
      <path class="cls-8" d="M109.24,111.63l-.56,12.13-.16,3.53C90.3,140.53,78.17,161,77.08,184.42c-.29,6.25.63,10.93,1.86,16.81h0c-10.73,32.19,32.77,54.8,71.64,56.61H151c-38.77-1.88-72.09-27-71.45-56.56l0,0,0,0c0-.69,0-1.38.08-2.08-.06.7-.07,1.39-.08,2.08,8.18,17.4,25.12,31.76,44.7,39.46-19.58-7.7-36.52-22.06-44.7-39.46C78.87,230.88,112.19,256,151,257.85c43.57,1.86,96.18-25.27,88-60.34.22-1.83.27-3.7.36-5.56,1-22.25-8.09-42.74-23.48-57.48-.11,3-.26,6.18-.37,6.45-6,13.84-25.09,26.18-54.46,24.89a2.76,2.76,0,0,1,.71,2s11.36,10.36,5.8,19.78S171.36,207,171.36,207s-9.37-10-3.82-19.38-5.8-19.78-5.8-19.78a2.8,2.8,0,0,1-5.59-.26s-10.68,6.3-6.67,14.56,8.49,22.07,2.82,23.65c5.67-1.58,1.2-15.38-2.82-23.65s6.67-14.56,6.67-14.56a2.78,2.78,0,0,1,1-2C129.39,163.3,108,150.44,108.67,136l.4-8.64C90.86,140.55,78.72,161,77.64,184.45c-.29,6.24.63,10.92,1.85,16.81-1.22-5.89-2.14-10.57-1.85-16.81,1.08-23.44,13.22-43.9,31.43-57.13l.16-3.54.57-12.13M92.6,197.46c.46-10,14.8-34.14,14.8-34.14S93.06,187.46,92.6,197.46Zm34.77,44.47a87.36,87.36,0,0,0,18.07,4.3A87.36,87.36,0,0,1,127.37,241.93Zm103.89-35.35a54.42,54.42,0,0,0,6-17.08A54.42,54.42,0,0,1,231.26,206.58Zm2.2-22.3a54.36,54.36,0,0,1-8.57,15.94A54.36,54.36,0,0,0,233.46,184.28Zm-15,23.05a74.89,74.89,0,0,1-15.39,11.24A74.89,74.89,0,0,0,218.49,207.33Zm-46.74,38.53a90.54,90.54,0,0,0,16.1-4.19A90.54,90.54,0,0,1,171.75,245.86Zm22.16-6.61a89.51,89.51,0,0,0,15.5-8.77A89.51,89.51,0,0,1,193.91,239.25ZM212.6,228.1a74.39,74.39,0,0,0,13.45-13.5A74.39,74.39,0,0,1,212.6,228.1Z"/>
      <path class="cls-8" d="M159,168.47a2.79,2.79,0,1,0,3.91.07h-.22C161.47,168.54,160.25,168.51,159,168.47Z"/>
      <path class="cls-8" d="M160.94,167.7a2.79,2.79,0,0,0-1.91.77c1.22,0,2.44.07,3.69.07h.22A2.78,2.78,0,0,0,160.94,167.7Z"/>
      <path class="cls-7" d="M83.41,205.69C71.24,239.87,117.81,261,157.62,261c43.68,0,95.29-29.61,85.48-64.36"/>
      <path class="cls-7" d="M235.26,206a54.39,54.39,0,0,0,5.19-17.34"/>
      <path class="cls-7" d="M217.62,228.38a74.75,74.75,0,0,0,12.81-14.11"/>
      <path class="cls-7" d="M228.6,200a54.65,54.65,0,0,0,7.83-16.32"/>
      <path class="cls-7" d="M207.68,219.3a74.92,74.92,0,0,0,14.86-11.94"/>
      <path class="cls-7" d="M199.46,240.38a90.11,90.11,0,0,0,15.08-9.47"/>
      <path class="cls-7" d="M83.41,207.73c9,17,26.57,30.59,46.49,37.38"/>
      <path class="cls-7" d="M216.46,129s.2,11.66,0,12.19c-5.36,14.15-23.94,27.39-53.47,27.39s-53.46-12.26-53.46-27.39l-.83-24.33"/>
      <path class="cls-7" d="M128,149.66c-11.31-5-18.46-12.43-18.46-20.7l-.83-12.14"/>
      <path class="cls-7" d="M208.53,143.32c5-4.17,7.93-9.09,7.93-14.36V116.82"/>
      <path class="cls-7" d="M213.75,109.72a9.66,9.66,0,0,1,2.71,7.1c0,15.13-23.94,27.39-53.47,27.39S108.7,131.73,108.7,116.6c0-9,9.15-11.66,22.1-12.52"/>
      <circle class="cls-10" cx="161.22" cy="170.5" r="2.8"/>
      <path class="cls-7" d="M164,170.5s11.82,9.82,6.71,19.49,4.71,19.18,4.71,19.18"/>
      <path class="cls-7" d="M158.43,170.5s-10.39,6.79-6,14.86,9.51,21.65,3.92,23.48"/>
      <path class="cls-7" d="M109.53,168.54s-13.2,24.78-13.2,34.79"/>
      <path class="cls-7" d="M216.54,134.21c16.38,14,26.66,34.29,26.66,56.81,0,1.87,0,3.75-.1,5.58"/>
      <path class="cls-7" d="M83.41,207.73c-1.5-5.82-2.64-10.45-2.64-16.71,0-23.49,11.19-44.52,28.81-58.58"/>
    </g>
    <g>
      <line class="cls-11" x1="52.97" y1="73.68" x2="73.96" y2="97.96"/>
      <line class="cls-11" x1="52.97" y1="97.96" x2="73.96" y2="73.68"/>
    </g>
    <g>
      <line class="cls-11" x1="111.54" y1="28.12" x2="125.14" y2="43.85"/>
      <line class="cls-11" x1="111.54" y1="43.85" x2="125.14" y2="28.12"/>
    </g>
  </g>
</svg>
