<svg id="Слой_1" data-name="Слой 1" xmlns="http://www.w3.org/2000/svg" viewBox="0 0 321.27 321.29">
  <defs>
    <style>
      .cls-1 {
        fill: #fcc;
      }

      .cls-2 {
        fill: #fff;
      }

      .cls-2, .cls-3 {
        stroke: #fff;
      }

      .cls-2, .cls-3, .cls-4, .cls-5, .cls-6, .cls-7 {
        stroke-linecap: round;
        stroke-linejoin: round;
        stroke-width: 2.3px;
      }

      .cls-3, .cls-5, .cls-6 {
        fill: none;
      }

      .cls-4, .cls-7 {
        fill: #f54e56;
      }

      .cls-4, .cls-5 {
        stroke: #339;
      }

      .cls-6, .cls-7 {
        stroke: #f54e56;
      }
    </style>
  </defs>
  <title>Для 2 стр</title>
  <g>
    <circle class="cls-1" cx="160.63" cy="160.64" r="160.63"/>
    <g>
      <g>
        <polygon class="cls-2" points="74.06 172.62 61.88 165.72 49.3 171.85 52.09 158.14 42.38 148.06 56.28 146.48 62.86 134.14 68.66 146.87 82.44 149.31 72.12 158.76 74.06 172.62"/>
        <polygon class="cls-2" points="209.54 205.7 197.36 198.81 184.78 204.93 187.57 191.22 177.86 181.15 191.76 179.57 198.34 167.22 204.14 179.95 217.92 182.39 207.6 191.84 209.54 205.7"/>
        <polygon class="cls-2" points="161.46 78.14 149.29 71.25 136.71 77.37 139.5 63.66 129.79 53.59 143.69 52.01 150.27 39.66 156.07 52.39 169.85 54.83 159.53 64.28 161.46 78.14"/>
        <line class="cls-3" x1="214.66" y1="203.98" x2="246.36" y2="236.17"/>
        <line class="cls-3" x1="148.83" y1="137.13" x2="185.74" y2="174.61"/>
        <line class="cls-3" x1="90.75" y1="78.14" x2="144.19" y2="132.41"/>
        <line class="cls-3" x1="132.72" y1="144.51" x2="272.86" y2="183.22"/>
        <line class="cls-3" x1="54.05" y1="122.78" x2="126.28" y2="142.73"/>
        <line class="cls-3" x1="227.4" y1="137.13" x2="268.71" y2="126.4"/>
        <line class="cls-3" x1="144.19" y1="158.74" x2="212.59" y2="140.97"/>
        <line class="cls-3" x1="100.15" y1="170.18" x2="131.37" y2="162.07"/>
        <line class="cls-3" x1="37.44" y1="186.46" x2="62.41" y2="179.98"/>
        <line class="cls-3" x1="235.59" y1="83.7" x2="246.36" y2="73.1"/>
        <line class="cls-3" x1="206.44" y1="112.4" x2="227.4" y2="91.76"/>
        <line class="cls-3" x1="155.15" y1="162.91" x2="198.6" y2="120.13"/>
        <line class="cls-3" x1="84.94" y1="232.04" x2="129.24" y2="188.42"/>
        <line class="cls-3" x1="157.13" y1="181.25" x2="191.01" y2="58.62"/>
        <line class="cls-3" x1="144.19" y1="228.11" x2="155.15" y2="188.42"/>
        <line class="cls-3" x1="168.42" y1="187.74" x2="170.49" y2="209.46"/>
        <line class="cls-3" x1="164.14" y1="142.62" x2="166.54" y2="167.91"/>
        <line class="cls-3" x1="160.35" y1="102.81" x2="163.83" y2="139.44"/>
        <line class="cls-3" x1="133" y1="108.35" x2="153.98" y2="137.84"/>
        <line class="cls-3" x1="212.33" y1="174.61" x2="231.07" y2="183.18"/>
        <line class="cls-3" x1="155.81" y1="149.3" x2="186.85" y2="163.49"/>
        <line class="cls-3" x1="90.75" y1="119.54" x2="104.91" y2="126.02"/>
        <line class="cls-3" x1="158.65" y1="154.2" x2="187.97" y2="151.42"/>
        <line class="cls-3" x1="111.26" y1="158.71" x2="141.16" y2="155.87"/>
        <line class="cls-3" x1="153.8" y1="161.68" x2="203.87" y2="126.06"/>
        <line class="cls-3" x1="134.66" y1="175.29" x2="150.87" y2="163.76"/>
        <line class="cls-3" x1="121.95" y1="184.34" x2="128.66" y2="179.56"/>
        <circle class="cls-2" cx="121.5" cy="129.69" r="4.67"/>
        <circle class="cls-2" cx="196.5" cy="105.29" r="5.16"/>
        <circle class="cls-2" cx="87.3" cy="198.33" r="4.86"/>
        <circle class="cls-2" cx="227.4" cy="150.31" r="4.86"/>
        <g>
          <line class="cls-3" x1="101.15" y1="88.33" x2="113.04" y2="102.08"/>
          <line class="cls-3" x1="101.15" y1="102.08" x2="113.04" y2="88.33"/>
        </g>
        <g>
          <line class="cls-3" x1="144.92" y1="194.52" x2="156.81" y2="208.27"/>
          <line class="cls-3" x1="144.92" y1="208.27" x2="156.81" y2="194.52"/>
        </g>
        <g>
          <line class="cls-3" x1="237.58" y1="199.12" x2="245.49" y2="208.27"/>
          <line class="cls-3" x1="237.58" y1="208.27" x2="245.49" y2="199.12"/>
        </g>
        <g>
          <line class="cls-3" x1="165.89" y1="133.27" x2="173.8" y2="142.42"/>
          <line class="cls-3" x1="165.89" y1="142.42" x2="173.8" y2="133.27"/>
        </g>
      </g>
      <g>
        <line class="cls-2" x1="160.05" y1="150.31" x2="160.05" y2="284.85"/>
        <polygon class="cls-4" points="69.27 169.56 57.1 162.66 44.52 168.78 47.31 155.07 37.6 145 51.5 143.42 58.08 131.07 63.88 143.81 77.66 146.25 67.34 155.7 69.27 169.56"/>
        <polygon class="cls-4" points="204.75 202.64 192.58 195.75 180 201.87 182.79 188.16 173.08 178.08 186.98 176.5 193.56 164.16 199.36 176.89 213.14 179.33 202.82 188.78 204.75 202.64"/>
        <polygon class="cls-4" points="156.68 75.08 144.5 68.18 131.92 74.31 134.72 60.6 125.01 50.52 138.91 48.94 145.49 36.59 151.29 49.33 165.06 51.77 154.75 61.22 156.68 75.08"/>
        <line class="cls-5" x1="209.88" y1="200.92" x2="241.57" y2="233.11"/>
        <line class="cls-5" x1="144.05" y1="134.07" x2="180.96" y2="171.55"/>
        <line class="cls-5" x1="85.96" y1="75.08" x2="139.41" y2="129.35"/>
        <line class="cls-5" x1="127.94" y1="141.45" x2="268.08" y2="180.16"/>
        <line class="cls-5" x1="49.27" y1="119.71" x2="121.5" y2="139.67"/>
        <line class="cls-5" x1="222.62" y1="134.07" x2="263.93" y2="123.34"/>
        <line class="cls-5" x1="139.41" y1="155.68" x2="207.81" y2="137.91"/>
        <line class="cls-5" x1="95.37" y1="167.11" x2="126.59" y2="159.01"/>
        <line class="cls-5" x1="32.66" y1="183.4" x2="57.63" y2="176.91"/>
        <line class="cls-5" x1="230.81" y1="80.64" x2="241.57" y2="70.04"/>
        <line class="cls-5" x1="201.66" y1="109.34" x2="222.62" y2="88.7"/>
        <line class="cls-5" x1="160.05" y1="150.31" x2="193.82" y2="117.07"/>
        <line class="cls-5" x1="80.16" y1="228.98" x2="124.46" y2="185.36"/>
        <line class="cls-5" x1="152.35" y1="178.19" x2="186.23" y2="55.56"/>
        <line class="cls-5" x1="139.41" y1="225.05" x2="150.37" y2="185.36"/>
        <line class="cls-5" x1="163.64" y1="184.68" x2="165.71" y2="206.4"/>
        <line class="cls-5" x1="159.35" y1="139.56" x2="161.76" y2="164.85"/>
        <line class="cls-5" x1="155.57" y1="99.75" x2="159.05" y2="136.37"/>
        <line class="cls-5" x1="128.21" y1="105.29" x2="149.2" y2="134.78"/>
        <line class="cls-5" x1="207.54" y1="171.55" x2="226.29" y2="180.12"/>
        <line class="cls-5" x1="85.96" y1="116.47" x2="100.13" y2="122.95"/>
        <line class="cls-5" x1="106.48" y1="155.65" x2="136.38" y2="152.8"/>
        <line class="cls-5" x1="149.01" y1="158.62" x2="199.09" y2="122.99"/>
        <line class="cls-5" x1="129.88" y1="172.23" x2="146.09" y2="160.7"/>
        <line class="cls-6" x1="117.17" y1="181.28" x2="123.88" y2="176.5"/>
        <circle class="cls-5" cx="119.17" cy="127.63" r="4.67"/>
        <circle class="cls-5" cx="194.93" cy="104.18" r="5.16"/>
        <circle class="cls-5" cx="85.02" cy="196.06" r="4.86"/>
        <circle class="cls-5" cx="225.2" cy="148.36" r="4.86"/>
        <g>
          <line class="cls-6" x1="100.54" y1="81.83" x2="112.43" y2="95.58"/>
          <line class="cls-6" x1="100.54" y1="95.58" x2="112.43" y2="81.83"/>
        </g>
        <g>
          <line class="cls-7" x1="140.14" y1="191.45" x2="152.03" y2="205.2"/>
          <line class="cls-7" x1="140.14" y1="205.2" x2="152.03" y2="191.45"/>
        </g>
        <g>
          <line class="cls-6" x1="232.8" y1="196.06" x2="240.71" y2="205.2"/>
          <line class="cls-6" x1="232.8" y1="205.2" x2="240.71" y2="196.06"/>
        </g>
        <g>
          <line class="cls-6" x1="161.11" y1="130.21" x2="169.02" y2="139.35"/>
          <line class="cls-6" x1="161.11" y1="139.35" x2="169.02" y2="130.21"/>
        </g>
      </g>
    </g>
  </g>
</svg>
