<svg id="Слой_1" data-name="Слой 1" xmlns="http://www.w3.org/2000/svg" viewBox="0 0 321.27 321.29">
  <defs>
    <style>
      .cls-1 {
        fill: #DBF6EF;
      }

      .cls-2 {
        fill: #fff;
      }

      .cls-3 {
        fill: #f54e56;
      }

      .cls-4 {
        fill: none;
        stroke: #3A5842;
        stroke-linecap: round;
        stroke-linejoin: round;
        stroke-width: 2.3px;
      }
    </style>
  </defs>
  <title>Для 2 стр</title>
  <g>
    <circle class="cls-1" cx="160.63" cy="160.65" r="160.63"/>
    <g>
      <g>
        <rect class="cls-2" x="63.19" y="182.43" width="188.51" height="60.89" rx="17.34"/>
        <path class="cls-3" d="M230.52,154.31h34.15c0-49.38-43.85-89.4-94-89.4"/>
        <path class="cls-4" d="M229.21,154h36.53c0-51.41-43.48-93.09-97.11-93.09"/>
        <circle class="cls-2" cx="248.11" cy="130.7" r="33.46"/>
        <circle class="cls-4" cx="246.04" cy="128.63" r="35.53"/>
        <path class="cls-4" d="M261.1,147.53a35.45,35.45,0,0,1-15.74,6.93"/>
        <path class="cls-4" d="M271,132.22a35,35,0,0,1-4.08,8.36"/>
        <path class="cls-3" d="M171.65,64.91a89.29,89.29,0,0,0-72.6,37.15,71.64,71.64,0,0,0-16.7,46.05v31.65H229.19l0-26.32s4.49-38.7-21-56.8"/>
        <path class="cls-4" d="M168.63,60.89c-32.55,0-61.33,15.36-78.95,38.92a73.4,73.4,0,0,0-18.17,48.24v33.16h157.7V154"/>
        <rect class="cls-4" x="57.54" y="181.21" width="188.51" height="58.49" rx="17"/>
        <path class="cls-4" d="M90.85,226.6a17,17,0,0,1-17-17"/>
        <line class="cls-4" x1="117.8" y1="226.6" x2="99.61" y2="226.6"/>
        <path class="cls-4" d="M119.19,98.3a73.44,73.44,0,0,0-26.11,44.45"/>
        <path class="cls-4" d="M211,98.36a73.39,73.39,0,0,1,18.16,48.24v33.16"/>
        <line class="cls-4" x1="93.08" y1="153.3" x2="93.08" y2="158.97"/>
      </g>
      <g>
        <path class="cls-4" d="M144.13,111.88a20.28,20.28,0,0,1,12.92-4.45c10.18,0,18.44,6.95,18.44,15.52s-8.26,15.52-18.44,15.52v12.07"/>
        <ellipse class="cls-4" cx="157.05" cy="159.96" rx="1.93" ry="1.63"/>
      </g>
    </g>
  </g>
</svg>
