<svg id="Слой_1" data-name="Слой 1" xmlns="http://www.w3.org/2000/svg" viewBox="0 0 321.27 321.29">
  <defs>
    <style>
      .cls-1 {
        fill: #fcc;
      }

      .cls-2 {
        fill: #fff;
      }

      .cls-3 {
        opacity: 0.4;
      }

      .cls-4 {
        fill: #f54e56;
      }

      .cls-5, .cls-6, .cls-7 {
        fill: none;
        stroke-linecap: round;
        stroke-linejoin: round;
      }

      .cls-5, .cls-6 {
        stroke: #339;
      }

      .cls-5 {
        stroke-width: 2.09px;
      }

      .cls-6 {
        stroke-width: 1.91px;
      }

      .cls-7 {
        stroke: #fff;
        stroke-width: 1.42px;
      }
    </style>
  </defs>
  <title>Для 2 стр</title>
  <g>
    <circle class="cls-1" cx="160.63" cy="160.65" r="160.63"/>
    <g>
      <polygon class="cls-2" points="62.95 220.4 79.61 227.31 124.84 111.25 110.69 105.38 62.95 220.4"/>
      <g class="cls-3">
        <path class="cls-2" d="M219.33,156.16l17.76-22h0a31.12,31.12,0,1,0-54.06-21,31.13,31.13,0,1,0-54.05,21h0L183,201.24l36.33-45.08"/>
      </g>
      <rect class="cls-2" x="134.44" y="121.82" width="87.05" height="104.37"/>
      <rect class="cls-4" x="169.55" y="121.68" width="20.98" height="104.51"/>
      <polyline class="cls-5" points="245.27 121.68 245.27 227.31 120.74 227.31 120.74 121.82"/>
      <line class="cls-5" x1="221.5" y1="171.22" x2="221.5" y2="189.39"/>
      <line class="cls-5" x1="221.5" y1="158.46" x2="221.5" y2="164.59"/>
      <g>
        <path class="cls-4" d="M67.82,150.14H80.93a3.48,3.48,0,0,1,3.48,3.48v16.59a0,0,0,0,1,0,0H64.34a0,0,0,0,1,0,0V153.62A3.48,3.48,0,0,1,67.82,150.14Z" transform="translate(-102.08 167.47) rotate(-67.46)"/>
        <path class="cls-4" d="M69.41,110.89h17a10.35,10.35,0,0,1,10.35,10.35V139.5a10.35,10.35,0,0,1-10.35,10.35H59.05a0,0,0,0,1,0,0v-28.6A10.35,10.35,0,0,1,69.41,110.89Z" transform="translate(-72.38 152.34) rotate(-67.46)"/>
        <path class="cls-4" d="M36.91,164.24H64.25A10.35,10.35,0,0,1,74.6,174.59v18.25A10.35,10.35,0,0,1,64.25,203.2h-17a10.35,10.35,0,0,1-10.35-10.35v-28.6a0,0,0,0,1,0,0Z" transform="translate(246.81 202.65) rotate(112.54)"/>
        <polyline class="cls-5" points="98.81 178.05 79.61 227.31 62.95 220.4 110.69 105.38 124.84 111.25 120.74 121.82"/>
        <path class="cls-5" d="M71.23,148.44H84.34a3.48,3.48,0,0,1,3.48,3.48v16.59a0,0,0,0,1,0,0H67.75a0,0,0,0,1,0,0V151.92A3.48,3.48,0,0,1,71.23,148.44Z" transform="translate(-98.4 169.57) rotate(-67.46)"/>
        <path class="cls-5" d="M72.23,109.58h17a10.35,10.35,0,0,1,10.35,10.35v17a10.35,10.35,0,0,1-10.35,10.35H61.88a0,0,0,0,1,0,0V119.94a10.35,10.35,0,0,1,10.35-10.35Z" transform="translate(-68.84 153.75) rotate(-67.46)"/>
        <path class="cls-5" d="M69.07,135.86a12.47,12.47,0,0,1-2.26-6.14"/>
        <line class="cls-5" x1="90.12" y1="139.39" x2="88.28" y2="143.82"/>
        <path class="cls-5" d="M86.78,121.68a12.37,12.37,0,0,1,4.48,15"/>
        <path class="cls-5" d="M62.94,193.21a12.48,12.48,0,0,0,5.94-2.74"/>
        <path class="cls-5" d="M60.48,170.65a12.38,12.38,0,0,0-13.76,7.4"/>
        <path class="cls-5" d="M39.74,162.93H67.07a10.35,10.35,0,0,1,10.35,10.35v17a10.35,10.35,0,0,1-10.35,10.35h-17a10.35,10.35,0,0,1-10.35-10.35V162.93a0,0,0,0,1,0,0Z" transform="translate(248.92 197.35) rotate(112.54)"/>
      </g>
      <rect class="cls-6" x="173.58" y="123.75" width="20.07" height="103.56"/>
      <line class="cls-5" x1="134.44" y1="153.16" x2="134.44" y2="162.01"/>
      <polyline class="cls-5" points="134.44 146.62 134.44 121.82 160.89 121.68"/>
      <line class="cls-5" x1="205.81" y1="121.82" x2="230.47" y2="121.82"/>
      <line class="cls-5" x1="103.37" y1="166.35" x2="111.83" y2="144.65"/>
      <g>
        <path class="cls-5" d="M160.31,48a25.75,25.75,0,0,1,17.12,3c11.34,6.27,16.26,19.08,11,28.63s-18.75,12.19-30.09,5.92L150.9,99"/>
        <ellipse class="cls-5" cx="145.11" cy="109.5" rx="2.07" ry="2.46" transform="matrix(0.48, -0.88, 0.88, 0.48, -20.93, 183.53)"/>
      </g>
      <g>
        <path class="cls-5" d="M182.68,100.1a8.59,8.59,0,0,1,4.56-3.54c4.07-1.39,8.32.27,9.49,3.69s-1.18,7.34-5.26,8.73l1.65,4.83"/>
        <ellipse class="cls-5" cx="194.4" cy="117.57" rx="0.82" ry="0.69" transform="matrix(0.95, -0.32, 0.32, 0.95, -27.54, 69.01)"/>
      </g>
      <g>
        <path class="cls-7" d="M205.81,80a17.57,17.57,0,0,1,7.1-9.46c7.3-4.94,16.59-4,20.75,2.18s1.61,15.13-5.69,20.07l5.86,8.65"/>
        <ellipse class="cls-7" cx="238.39" cy="108.18" rx="1.67" ry="1.41" transform="translate(-19.67 152.2) rotate(-34.09)"/>
      </g>
      <line class="cls-5" x1="46.72" y1="227.31" x2="287.55" y2="227.31"/>
      <line class="cls-5" x1="138.71" y1="245.84" x2="230.47" y2="245.84"/>
      <line class="cls-5" x1="81.82" y1="258.14" x2="173.58" y2="258.14"/>
    </g>
  </g>
</svg>
