<svg id="Слой_1" data-name="Слой 1" xmlns="http://www.w3.org/2000/svg" viewBox="0 0 321.27 321.29">
  <defs>
    <style>
      .cls-1 {
        fill: #E9F3F8;
      }

      .cls-2, .cls-6 {
        fill: #fff;
      }

      .cls-10, .cls-2, .cls-4, .cls-7, .cls-8 {
        stroke: #339;
      }

      .cls-10, .cls-11, .cls-12, .cls-2, .cls-4, .cls-7, .cls-8, .cls-9 {
        stroke-linecap: round;
        stroke-linejoin: round;
      }

      .cls-10, .cls-11, .cls-2 {
        stroke-width: 2.3px;
      }

      .cls-3 {
        fill: #f54e56;
      }

      .cls-10, .cls-11, .cls-12, .cls-4, .cls-7, .cls-8, .cls-9 {
        fill: none;
      }

      .cls-4 {
        stroke-width: 2.25px;
      }

      .cls-5 {
        fill: #339;
      }

      .cls-7, .cls-8, .cls-9 {
        stroke-width: 2.21px;
      }

      .cls-8, .cls-9 {
        stroke-dasharray: 30.54 11.45;
      }

      .cls-11, .cls-12, .cls-9 {
        stroke: #fff;
      }

      .cls-12 {
        stroke-width: 2.13px;
      }
    </style>
  </defs>
  <title>Для 2 стр</title>
  <g>
    <circle class="cls-1" cx="160.63" cy="160.72" r="160.63"/>
    <g>
      <g>
        <path class="cls-2" d="M225.15,135.12a13,13,0,0,1,12.95,12.95v31.57a14.18,14.18,0,0,1-14.18,14.18H211V149.3a14.18,14.18,0,0,1,14.18-14.18h0"/>
        <path class="cls-2" d="M85.94,135.12H98.89a14.18,14.18,0,0,1,14.18,14.18v31.57a12.95,12.95,0,0,1-12.95,12.95h0a14.18,14.18,0,0,1-14.18-14.18V135.12A0,0,0,0,1,85.94,135.12Z" transform="translate(199.02 328.94) rotate(-180)"/>
        <path class="cls-3" d="M232,146h5.4a0,0,0,0,1,0,0v37.11a10.29,10.29,0,0,1-10.29,10.29H216.89a0,0,0,0,1,0,0V161.12A15.1,15.1,0,0,1,232,146Z"/>
        <path class="cls-3" d="M86.65,146H96.87a10.29,10.29,0,0,1,10.29,10.29V193.4a0,0,0,0,1,0,0h-5.4a15.1,15.1,0,0,1-15.1-15.1V146a0,0,0,0,1,0,0Z" transform="translate(193.8 339.42) rotate(180)"/>
        <path class="cls-4" d="M113.08,135.3H211a0,0,0,0,1,0,0v50.93a42.91,42.91,0,0,1-42.91,42.91H156a42.91,42.91,0,0,1-42.91-42.91V135.3a0,0,0,0,1,0,0Z"/>
        <g>
          <path class="cls-5" d="M241.07,58.91c-17.35,18.7-22.92,43.79-18.7,66.82l-111.08,2.88c-1.12-44.58,36.47-81.07,84-81.51A90.57,90.57,0,0,1,248.1,63.34"/>
          <g>
            <ellipse class="cls-6" cx="255.81" cy="55.27" rx="12.55" ry="13.39" transform="translate(173.72 303.78) rotate(-83.91)"/>
            <path class="cls-6" d="M204.76,142.14,119.92,142c-8,0-14.53-6.09-14.63-13.59l-.05-4.37,117.28.21v1.06C222.65,134.62,214.69,142.16,204.76,142.14Z"/>
            <path class="cls-7" d="M222.48,123.5A76.36,76.36,0,0,1,242,57.38"/>
            <path class="cls-8" d="M237.72,90.62a76.26,76.26,0,0,1,6.88-17.57"/>
            <path class="cls-7" d="M105.19,122.64c-1.12-44.57,36.47-81.06,84-81.5A90.5,90.5,0,0,1,242,57.38"/>
            <path class="cls-9" d="M136.92,79.08a80.94,80.94,0,0,1,5.89-7.32"/>
            <path class="cls-9" d="M123,117.09a75.89,75.89,0,0,1,7.9-28"/>
            <ellipse class="cls-7" cx="255.45" cy="55.38" rx="12.55" ry="13.39" transform="translate(173.29 303.52) rotate(-83.91)"/>
            <path class="cls-8" d="M265.54,73.46a13.08,13.08,0,0,1-3.87,2.34"/>
            <path class="cls-8" d="M252.59,77a13.88,13.88,0,0,1-8-4"/>
            <path class="cls-7" d="M204.74,141.61l-84.85-.15c-8,0-14.53-6.09-14.63-13.59l-.05-4.37,117.28.21v1.06C222.62,134.09,214.67,141.63,204.74,141.61Z"/>
          </g>
        </g>
        <path class="cls-10" d="M178.09,177.28a7.5,7.5,0,0,1,15,0"/>
        <path class="cls-10" d="M134.73,177.28a7.5,7.5,0,1,1,15,0"/>
        <path class="cls-10" d="M179.57,205.73a35.28,35.28,0,0,1-34,0"/>
        <circle class="cls-3" cx="192.97" cy="194.43" r="7.41"/>
        <circle class="cls-3" cx="134.79" cy="194.43" r="7.41"/>
        <path class="cls-10" d="M225.15,135.12a13,13,0,0,1,12.95,12.95v31.57a14.18,14.18,0,0,1-14.18,14.18H211V149.3a14.18,14.18,0,0,1,14.18-14.18h0"/>
        <path class="cls-10" d="M85.94,135.12H98.89a14.18,14.18,0,0,1,14.18,14.18v31.57a12.95,12.95,0,0,1-12.95,12.95h0a14.18,14.18,0,0,1-14.18-14.18V135.12A0,0,0,0,1,85.94,135.12Z" transform="translate(199.02 328.94) rotate(-180)"/>
      </g>
      <g>
        <path class="cls-3" d="M156.71,239.69h14.94a3.59,3.59,0,0,1,3.59,3.59v15.81a0,0,0,0,1,0,0H153.12a0,0,0,0,1,0,0V243.28A3.59,3.59,0,0,1,156.71,239.69Z" transform="translate(328.35 498.77) rotate(180)"/>
        <path class="cls-3" d="M122.28,238.46h20.16a10.68,10.68,0,0,1,10.68,10.68v16.28a10.68,10.68,0,0,1-10.68,10.68H111.59a0,0,0,0,1,0,0v-27a10.68,10.68,0,0,1,10.68-10.68Z" transform="translate(264.71 514.57) rotate(-180)"/>
        <path class="cls-3" d="M175.23,238.46h30.84a10.68,10.68,0,0,1,10.68,10.68v16.28a10.68,10.68,0,0,1-10.68,10.68H185.92a10.68,10.68,0,0,1-10.68-10.68v-27A0,0,0,0,1,175.23,238.46Z"/>
        <path class="cls-10" d="M153.53,237.28h14.94a3.59,3.59,0,0,1,3.59,3.59v15.81a0,0,0,0,1,0,0H149.94a0,0,0,0,1,0,0V240.87A3.59,3.59,0,0,1,153.53,237.28Z" transform="translate(322 493.95) rotate(180)"/>
        <path class="cls-10" d="M119.1,237.28h20.16A10.68,10.68,0,0,1,149.94,248V263a10.68,10.68,0,0,1-10.68,10.68H108.42a0,0,0,0,1,0,0V248A10.68,10.68,0,0,1,119.1,237.28Z" transform="translate(258.36 510.97) rotate(180)"/>
        <path class="cls-10" d="M141.67,263.12a13.1,13.1,0,0,1-5.3,4.3"/>
        <line class="cls-10" x1="136.37" y1="243.04" x2="141.66" y2="243.04"/>
        <path class="cls-10" d="M119.76,252.57c1.27-5.44,6.76-9.53,13.34-9.53"/>
        <path class="cls-10" d="M202.62,247.36a13.16,13.16,0,0,0-5.3-4.29"/>
        <path class="cls-10" d="M180.7,257.91c1.27,5.44,6.76,9.54,13.35,9.54"/>
        <path class="cls-10" d="M172.06,237.28H202.9A10.68,10.68,0,0,1,213.58,248V263a10.68,10.68,0,0,1-10.68,10.68H182.74A10.68,10.68,0,0,1,172.06,263V237.28a0,0,0,0,1,0,0Z"/>
      </g>
    </g>
    <g>
      <line class="cls-4" x1="82.64" y1="60.88" x2="93.2" y2="73.09"/>
      <line class="cls-4" x1="82.64" y1="73.09" x2="93.2" y2="60.88"/>
    </g>
    <g>
      <line class="cls-4" x1="46.53" y1="202.16" x2="57.09" y2="214.37"/>
      <line class="cls-4" x1="46.53" y1="214.37" x2="57.09" y2="202.16"/>
    </g>
    <g>
      <line class="cls-11" x1="237.28" y1="112.26" x2="250.88" y2="127.99"/>
      <line class="cls-11" x1="237.28" y1="127.99" x2="250.88" y2="112.26"/>
    </g>
    <g>
      <path class="cls-12" d="M30.75,159c0,8.11-5.64,14.68-12.6,14.68S5.55,167.12,5.55,159"/>
      <path class="cls-12" d="M68.56,171.59c-7,0-12.61-6.57-12.61-14.68"/>
      <path class="cls-12" d="M30.75,159c0-8.11,5.64-14.69,12.6-14.69S56,150.9,56,159"/>
    </g>
    <g>
      <path class="cls-4" d="M301.29,228.13c0,8.11-5.64,14.68-12.6,14.68s-12.6-6.57-12.6-14.68"/>
      <path class="cls-4" d="M250.88,230.23c0-8.11,5.65-14.69,12.61-14.69s12.6,6.58,12.6,14.69"/>
    </g>
  </g>
</svg>
