<svg xmlns="http://www.w3.org/2000/svg" viewBox="0 0 1920 305.7"><defs><style>.cls-1{fill:#f54e56;}.cls-2,.cls-4{fill:#004f60;}.cls-3{fill:#e9f3f8;}.cls-4{font-size:9.41px;font-family:HammerFat, Hammer Fat;}</style></defs><g id="стр2"><circle class="cls-1" cx="636.36" cy="305.31" r="26.57"/><polygon class="cls-2" points="110.38 130.42 126.57 103.21 145.36 114.39 119 158.69 100.22 147.51 110.38 130.42"/><polygon class="cls-2" points="131.99 136.86 148.41 109.26 164.77 119 138.04 163.93 121.67 154.2 131.99 136.86"/><path class="cls-2" d="M102.64,149,84.29,138c6.32-10.62,19.66-14.35,29.79-8.32Z"/><rect class="cls-3" x="144.67" y="108.28" width="19.21" height="10.22" transform="translate(79.66 -62.93) rotate(30.75)"/><path class="cls-2" d="M160.08,123.32,142.78,113l5.69-9.57,17.3,10.29Zm-16-10.61,15.71,9.35,4.76-8-15.72-9.35Z"/><rect class="cls-3" x="125.55" y="102.85" width="19.21" height="10.22" transform="translate(74.19 -53.92) rotate(30.75)"/><path class="cls-2" d="M141,117.9l-17.3-10.3L129.35,98l17.3,10.29Zm-16-10.62,15.72,9.35,4.75-8-15.72-9.35Z"/><path class="cls-2" d="M116.77,158.11a.39.39,0,0,1-.23-.07l-19-11.27a.46.46,0,1,1,.47-.79l18.55,11,28.76-48.34-18.16-10.8L109.5,127.66a.46.46,0,0,1-.63.16.47.47,0,0,1-.17-.64l18-30.17a.44.44,0,0,1,.28-.22.43.43,0,0,1,.35.06l19,11.27a.46.46,0,0,1,.16.63l-29.23,49.13a.43.43,0,0,1-.28.21Z"/><path class="cls-2" d="M135.91,163.5a.46.46,0,0,1-.23-.06l-16.51-9.82a.46.46,0,0,1,.47-.8l16.11,9.59,28.76-48.34-15.72-9.35L131.08,134.5a.46.46,0,0,1-.8-.47l18-30.18a.46.46,0,0,1,.63-.16l16.51,9.82a.49.49,0,0,1,.21.28.47.47,0,0,1-.05.35l-29.23,49.14A.47.47,0,0,1,135.91,163.5Z"/><path class="cls-2" d="M100.27,148.29a.42.42,0,0,1-.24-.07l-18.51-11a.46.46,0,0,1-.21-.28.48.48,0,0,1,0-.35c6.35-10.67,20-14.3,30.42-8.1a.46.46,0,0,1-.47.79,21.35,21.35,0,0,0-28.91,7.39l18.1,10.77a.46.46,0,0,1,.16.63A.45.45,0,0,1,100.27,148.29Z"/><path class="cls-3" d="M94.38,132a.47.47,0,0,1-.23-.87c.67-.38,1.37-.73,2.06-1a.46.46,0,0,1,.61.24.47.47,0,0,1-.23.61,19.33,19.33,0,0,0-2,1A.46.46,0,0,1,94.38,132Z"/><path class="cls-3" d="M86.27,140a.53.53,0,0,1-.24-.06.47.47,0,0,1-.16-.64,23.09,23.09,0,0,1,5.23-6.07.46.46,0,1,1,.58.72,21.79,21.79,0,0,0-5,5.83A.47.47,0,0,1,86.27,140Z"/><path class="cls-2" d="M159.92,123.15a.48.48,0,0,1-.24-.06l-16.51-9.82A.48.48,0,0,1,143,113a.45.45,0,0,1,0-.34l5.23-8.79a.46.46,0,0,1,.63-.16l16.51,9.82a.49.49,0,0,1,.21.28.47.47,0,0,1-.05.35l-5.23,8.79A.46.46,0,0,1,159.92,123.15ZM144,112.71l15.71,9.35,4.76-8-15.72-9.35Z"/><path class="cls-2" d="M140.8,117.72a.48.48,0,0,1-.24-.06l-16.51-9.82a.46.46,0,0,1-.16-.63l5.23-8.79a.47.47,0,0,1,.63-.16l16.51,9.82a.47.47,0,0,1,.16.64l-5.23,8.78a.46.46,0,0,1-.28.21Zm-15.88-10.44,15.72,9.35,4.75-8-15.72-9.35Z"/><path class="cls-3" d="M115,131.41a.5.5,0,0,1-.24-.06l-1.67-1a.47.47,0,0,1-.16-.64.46.46,0,0,1,.63-.16l1.28.76,1.1-1.87a.48.48,0,0,1,.64-.16.47.47,0,0,1,.16.64l-1.35,2.26A.46.46,0,0,1,115,131.41Z"/><path class="cls-3" d="M139.19,150.29a.51.51,0,0,1-.24-.07.46.46,0,0,1-.16-.63l1.31-2.2a.46.46,0,1,1,.79.47l-1.31,2.2A.47.47,0,0,1,139.19,150.29Z"/><path class="cls-3" d="M142.05,145.46a.46.46,0,0,1-.23-.06.46.46,0,0,1-.16-.63l2.45-4.12a.45.45,0,0,1,.63-.16.46.46,0,0,1,.16.63l-2.45,4.12A.46.46,0,0,1,142.05,145.46Z"/><path class="cls-3" d="M117.35,127.53a.44.44,0,0,1-.24-.07.46.46,0,0,1-.16-.63l2.13-3.58a.45.45,0,0,1,.63-.16.46.46,0,0,1,.17.63l-2.13,3.58A.46.46,0,0,1,117.35,127.53Z"/><path class="cls-3" d="M1733.33,169.5a27.94,27.94,0,1,1,26-38.15h0a27.94,27.94,0,0,1-26,38.15Zm0-53.14a25.2,25.2,0,1,0,23.44,16h0a25.23,25.23,0,0,0-23.44-16Z"/><path class="cls-2" d="M1212.8,167.59a27.32,27.32,0,1,1,10-1.9A27.25,27.25,0,0,1,1212.8,167.59Zm0-53.15a25.88,25.88,0,1,0,24.12,16.42h0A25.93,25.93,0,0,0,1212.77,114.44Z"/><text class="cls-4" transform="matrix(0.93, -0.37, 0.37, 0.93, 776.25, 51.53)">02</text><text class="cls-4" transform="matrix(0.93, -0.37, 0.37, 0.93, 770.22, 235.68)">03</text><text class="cls-4" transform="matrix(0.93, -0.37, 0.37, 0.93, 958.68, 153.2)">06</text><rect class="cls-2" x="606.94" y="278.61" width="8.36" height="35.3" rx="2.85" transform="matrix(0.93, -0.37, 0.37, 0.93, -65.99, 243.8)"/><rect class="cls-2" x="1036.61" y="109.93" width="8.36" height="35.3" rx="2.85" transform="translate(25.35 389.14) rotate(-21.43)"/><rect class="cls-2" x="1145.17" y="67.32" width="8.36" height="35.3" rx="2.85" transform="translate(48.43 425.86) rotate(-21.43)"/><rect class="cls-2" x="1253.73" y="24.7" width="8.36" height="35.3" rx="2.85" transform="translate(71.51 462.58) rotate(-21.43)"/><rect class="cls-2" x="1362.29" y="-17.91" width="8.36" height="35.3" rx="2.85" transform="translate(94.59 499.3) rotate(-21.43)"/><rect class="cls-3" x="1890.6" y="168.67" width="41.27" height="8.81" transform="translate(68.93 710.35) rotate(-21.43)"/><rect class="cls-1" x="1581.38" y="283.27" width="8.36" height="35.3" rx="2.85" transform="translate(-0.31 600.19) rotate(-21.43)"/><rect class="cls-1" x="1689.94" y="240.65" width="8.36" height="35.3" rx="2.85" transform="translate(22.77 636.91) rotate(-21.43)"/><rect class="cls-1" x="1798.5" y="198.04" width="8.36" height="35.3" rx="2.85" transform="translate(45.85 673.63) rotate(-21.43)"/><rect class="cls-1" x="32.85" y="30.29" width="8.36" height="35.3" rx="2.85" transform="translate(-14.96 16.85) rotate(-21.43)"/><rect class="cls-1" x="141.41" y="-12.33" width="8.36" height="35.3" rx="2.85" transform="translate(8.12 53.57) rotate(-21.43)"/><path class="cls-2" d="M597.24,117.83a.68.68,0,0,1-.64-.44c-2.05-5.23,0-10.93,4.5-12.71s9.9,1,11.95,6.25a.69.69,0,0,1-.39.89.68.68,0,0,1-.89-.39c-1.77-4.52-6.33-7-10.17-5.47s-5.5,6.41-3.72,10.93a.69.69,0,0,1-.39.89A.74.74,0,0,1,597.24,117.83Z"/><path class="cls-2" d="M620.85,118.22a8.76,8.76,0,0,1-4.09-1,11,11,0,0,1-5-5.74.69.69,0,1,1,1.28-.5,9.57,9.57,0,0,0,4.36,5,6.68,6.68,0,0,0,9.76-3.83,9.58,9.58,0,0,0-.23-6.64.69.69,0,0,1,1.28-.51,10.9,10.9,0,0,1,.24,7.6,8.22,8.22,0,0,1-4.74,5.11A7.86,7.86,0,0,1,620.85,118.22Z"/><path class="cls-2" d="M627.58,105.91a.69.69,0,0,1-.64-.43c-2.05-5.23,0-10.93,4.51-12.71s9.89,1,11.95,6.25a.7.7,0,0,1-.39.89.69.69,0,0,1-.89-.39c-1.78-4.52-6.34-7-10.17-5.47s-5.5,6.4-3.73,10.92a.68.68,0,0,1-.39.89A.53.53,0,0,1,627.58,105.91Z"/><path class="cls-2" d="M651.2,106.31a8.66,8.66,0,0,1-4.09-1.06,10.93,10.93,0,0,1-5-5.73.69.69,0,1,1,1.28-.5,9.55,9.55,0,0,0,4.35,5,6.68,6.68,0,0,0,9.76-3.83,9.55,9.55,0,0,0-.22-6.65.68.68,0,0,1,.39-.89.69.69,0,0,1,.89.39,11,11,0,0,1,.24,7.6,8.21,8.21,0,0,1-4.75,5.11A7.81,7.81,0,0,1,651.2,106.31Z"/><path class="cls-2" d="M657.93,94a.68.68,0,0,1-.64-.44,11,11,0,0,1-.24-7.6,8.05,8.05,0,0,1,11.7-4.59,11,11,0,0,1,5,5.74.68.68,0,0,1-.39.89.7.7,0,0,1-.89-.39,9.53,9.53,0,0,0-4.36-5,6.67,6.67,0,0,0-9.75,3.83,9.52,9.52,0,0,0,.22,6.64.69.69,0,0,1-.39.89A.74.74,0,0,1,657.93,94Z"/><path class="cls-2" d="M681.57,94.39c-3.75,0-7.47-2.62-9.11-6.78a.69.69,0,1,1,1.28-.5c1.78,4.52,6.34,7,10.17,5.47s5.5-6.41,3.73-10.93a.68.68,0,1,1,1.27-.5c2.06,5.23,0,10.93-4.5,12.71A7.85,7.85,0,0,1,681.57,94.39Z"/><path class="cls-2" d="M688.27,82.09a.68.68,0,0,1-.63-.44c-2.06-5.22,0-10.93,4.5-12.71s9.9,1,12,6.25a.69.69,0,1,1-1.28.5c-1.78-4.51-6.34-7-10.17-5.47s-5.5,6.41-3.73,10.93a.69.69,0,0,1-.38.89A.8.8,0,0,1,688.27,82.09Z"/><path class="cls-2" d="M711.89,82.49a8.78,8.78,0,0,1-4.09-1.06,10.92,10.92,0,0,1-5-5.74.68.68,0,0,1,.39-.89.7.7,0,0,1,.89.39,9.53,9.53,0,0,0,4.36,5,6.66,6.66,0,0,0,9.75-3.83,9.52,9.52,0,0,0-.22-6.64.69.69,0,0,1,.39-.89.68.68,0,0,1,.89.39,11,11,0,0,1,.24,7.6,8.23,8.23,0,0,1-4.74,5.1A7.71,7.71,0,0,1,711.89,82.49Z"/><path class="cls-2" d="M1006.46,67.24a.7.7,0,0,1-.64-.44,11,11,0,0,1-.24-7.6,8.24,8.24,0,0,1,4.75-5.11c4.53-1.78,9.89,1,11.94,6.25a.68.68,0,0,1-.39.89.69.69,0,0,1-.89-.38c-1.77-4.52-6.33-7-10.16-5.48a6.87,6.87,0,0,0-4,4.28,9.55,9.55,0,0,0,.22,6.65.68.68,0,0,1-.39.89A.74.74,0,0,1,1006.46,67.24Z"/><path class="cls-2" d="M1030.1,67.63c-3.74,0-7.47-2.62-9.11-6.78a.69.69,0,0,1,.39-.89.68.68,0,0,1,.89.38c1.78,4.52,6.34,7,10.17,5.48a6.87,6.87,0,0,0,4-4.28,9.66,9.66,0,0,0-.22-6.65.69.69,0,1,1,1.28-.5,11,11,0,0,1,.24,7.6,8.26,8.26,0,0,1-4.75,5.11A7.77,7.77,0,0,1,1030.1,67.63Z"/><path class="cls-2" d="M1036.81,55.33a.68.68,0,0,1-.64-.44,10.9,10.9,0,0,1-.24-7.6,8,8,0,0,1,11.7-4.59,11,11,0,0,1,5,5.73.69.69,0,0,1-1.28.5,9.61,9.61,0,0,0-4.36-5,6.68,6.68,0,0,0-9.76,3.83,9.61,9.61,0,0,0,.23,6.65.7.7,0,0,1-.39.89A.74.74,0,0,1,1036.81,55.33Z"/><path class="cls-2" d="M1060.44,55.72c-3.74,0-7.47-2.63-9.1-6.79a.69.69,0,0,1,.39-.89.7.7,0,0,1,.89.39c1.77,4.52,6.33,7,10.17,5.47s5.5-6.4,3.72-10.92a.69.69,0,0,1,1.28-.51c2,5.23,0,10.93-4.5,12.71A7.67,7.67,0,0,1,1060.44,55.72Z"/><path class="cls-2" d="M1067.15,43.41a.69.69,0,0,1-.64-.43,11,11,0,0,1-.24-7.6,8.06,8.06,0,0,1,11.7-4.6,11,11,0,0,1,5,5.74.68.68,0,1,1-1.27.5,9.61,9.61,0,0,0-4.36-5,6.68,6.68,0,0,0-9.76,3.83,9.63,9.63,0,0,0,.22,6.64.67.67,0,0,1-.64.94Z"/><path class="cls-2" d="M1090.79,43.81c-3.74,0-7.47-2.63-9.1-6.79a.69.69,0,0,1,.38-.89.68.68,0,0,1,.89.39c1.78,4.52,6.34,7,10.17,5.47a6.87,6.87,0,0,0,3.95-4.28,9.6,9.6,0,0,0-.22-6.65.68.68,0,0,1,.39-.89.7.7,0,0,1,.89.39,11,11,0,0,1,.24,7.6,8.21,8.21,0,0,1-4.75,5.11A7.78,7.78,0,0,1,1090.79,43.81Z"/><path class="cls-2" d="M1097.5,31.5a.67.67,0,0,1-.64-.44,10.93,10.93,0,0,1-.24-7.59,8.22,8.22,0,0,1,4.74-5.11c4.54-1.79,9.9,1,12,6.25a.68.68,0,0,1-.39.89.7.7,0,0,1-.89-.39c-1.77-4.52-6.33-7-10.16-5.47a6.87,6.87,0,0,0-3.95,4.28,9.52,9.52,0,0,0,.22,6.64.69.69,0,0,1-.39.89A.56.56,0,0,1,1097.5,31.5Z"/><path class="cls-2" d="M1121.12,31.9a8.6,8.6,0,0,1-4.09-1.06,11,11,0,0,1-5-5.73.69.69,0,0,1,.39-.89.68.68,0,0,1,.89.39,9.65,9.65,0,0,0,4.36,5,6.9,6.9,0,0,0,5.81.45c3.83-1.5,5.5-6.41,3.73-10.93a.68.68,0,1,1,1.27-.5c2.06,5.23,0,10.93-4.5,12.71A7.85,7.85,0,0,1,1121.12,31.9Z"/><path class="cls-2" d="M205.91,255.34a.7.7,0,0,1-.64-.44,11,11,0,0,1-.24-7.6,8,8,0,0,1,11.7-4.59,11,11,0,0,1,5,5.73.7.7,0,0,1-.39.89.68.68,0,0,1-.89-.39,9.61,9.61,0,0,0-4.36-5,6.68,6.68,0,0,0-9.76,3.83,9.66,9.66,0,0,0,.22,6.65.68.68,0,0,1-.39.89A.7.7,0,0,1,205.91,255.34Z"/><path class="cls-2" d="M229.55,255.73c-3.74,0-7.47-2.63-9.1-6.79a.69.69,0,0,1,.38-.89.7.7,0,0,1,.9.39c1.77,4.52,6.33,7,10.16,5.47s5.5-6.4,3.73-10.92a.68.68,0,0,1,.39-.89.69.69,0,0,1,.89.38c2,5.23,0,10.93-4.51,12.71A7.58,7.58,0,0,1,229.55,255.73Z"/><path class="cls-2" d="M236.26,243.42a.68.68,0,0,1-.64-.43c-2.05-5.23,0-10.93,4.5-12.71s9.9,1,11.95,6.25a.68.68,0,0,1-.39.89.69.69,0,0,1-.89-.39c-1.77-4.52-6.33-7-10.16-5.47s-5.51,6.4-3.73,10.92a.68.68,0,0,1-.39.89A.56.56,0,0,1,236.26,243.42Z"/><path class="cls-2" d="M259.9,243.82c-3.75,0-7.47-2.63-9.11-6.79a.69.69,0,0,1,.39-.89.68.68,0,0,1,.89.39c1.78,4.52,6.33,7,10.17,5.47a6.9,6.9,0,0,0,3.95-4.28,9.61,9.61,0,0,0-.23-6.65.7.7,0,0,1,.39-.89.69.69,0,0,1,.89.39,10.9,10.9,0,0,1,.24,7.6,8.2,8.2,0,0,1-4.74,5.11A7.86,7.86,0,0,1,259.9,243.82Z"/><path class="cls-2" d="M266.6,231.51a.69.69,0,0,1-.64-.44,11,11,0,0,1-.24-7.6,8.25,8.25,0,0,1,4.75-5.1c4.54-1.79,9.89,1,11.95,6.25a.69.69,0,0,1-.39.89.7.7,0,0,1-.89-.39c-1.78-4.52-6.34-7-10.17-5.48a6.94,6.94,0,0,0-4,4.29,9.64,9.64,0,0,0,.22,6.64.68.68,0,0,1-.38.89A.8.8,0,0,1,266.6,231.51Z"/><path class="cls-2" d="M290.24,231.9c-3.74,0-7.47-2.62-9.1-6.78a.69.69,0,0,1,1.28-.5c1.77,4.52,6.33,7,10.16,5.47s5.51-6.41,3.73-10.93a.69.69,0,0,1,.39-.89.68.68,0,0,1,.89.39c2.05,5.23,0,10.93-4.51,12.71A7.77,7.77,0,0,1,290.24,231.9Z"/><path class="cls-2" d="M297,219.6a.7.7,0,0,1-.64-.44c-2.05-5.23,0-10.93,4.51-12.71s9.89,1,11.94,6.25a.69.69,0,0,1-1.28.5c-1.77-4.52-6.33-7-10.16-5.47s-5.5,6.41-3.73,10.93a.68.68,0,0,1-.39.89A.74.74,0,0,1,297,219.6Z"/><path class="cls-2" d="M320.57,220a8.75,8.75,0,0,1-4.09-1.06,10.94,10.94,0,0,1-5-5.74.69.69,0,0,1,1.28-.5,9.61,9.61,0,0,0,4.36,5,6.66,6.66,0,0,0,9.76-3.83,9.64,9.64,0,0,0-.22-6.64.69.69,0,0,1,1.28-.5,11,11,0,0,1,.24,7.6,8.25,8.25,0,0,1-4.75,5.1A7.65,7.65,0,0,1,320.57,220Z"/><path class="cls-3" d="M1403.33,176.13a.69.69,0,0,1-.64-.44,11,11,0,0,1-.24-7.6,8.24,8.24,0,0,1,4.75-5.11c4.53-1.78,9.89,1,11.94,6.25a.69.69,0,0,1-.39.9.7.7,0,0,1-.89-.39c-1.77-4.52-6.33-7-10.16-5.48a6.89,6.89,0,0,0-4,4.29,9.52,9.52,0,0,0,.22,6.64.69.69,0,0,1-.39.89A.74.74,0,0,1,1403.33,176.13Z"/><path class="cls-3" d="M1427,176.53a8.75,8.75,0,0,1-4.09-1.06,11,11,0,0,1-5-5.73.69.69,0,0,1,1.28-.51,9.63,9.63,0,0,0,4.36,5,6.68,6.68,0,0,0,9.76-3.83,9.66,9.66,0,0,0-.22-6.65.69.69,0,0,1,.38-.89.7.7,0,0,1,.9.39,11,11,0,0,1,.24,7.6,8.26,8.26,0,0,1-4.75,5.11A7.85,7.85,0,0,1,1427,176.53Z"/><path class="cls-3" d="M1433.68,164.22a.68.68,0,0,1-.64-.44,11,11,0,0,1-.25-7.6,8.29,8.29,0,0,1,4.75-5.11,8.2,8.2,0,0,1,7,.52,11,11,0,0,1,5,5.73.69.69,0,1,1-1.28.5,9.65,9.65,0,0,0-4.36-5,6.68,6.68,0,0,0-9.76,3.83,9.61,9.61,0,0,0,.23,6.65.7.7,0,0,1-.39.89A.79.79,0,0,1,1433.68,164.22Z"/><path class="cls-3" d="M1457.31,164.61c-3.74,0-7.47-2.63-9.1-6.79a.68.68,0,0,1,.39-.89.7.7,0,0,1,.89.39c1.77,4.52,6.33,7,10.16,5.48s5.51-6.41,3.73-10.93a.69.69,0,0,1,1.28-.5c2,5.22,0,10.92-4.5,12.7A7.67,7.67,0,0,1,1457.31,164.61Z"/><path class="cls-3" d="M1464,152.3a.69.69,0,0,1-.64-.43,11,11,0,0,1-.24-7.6,8.24,8.24,0,0,1,4.75-5.11c4.53-1.78,9.89,1,11.94,6.25a.69.69,0,0,1-.38.89.69.69,0,0,1-.9-.39c-1.77-4.52-6.33-7-10.16-5.47a6.87,6.87,0,0,0-4,4.28,9.55,9.55,0,0,0,.22,6.65.68.68,0,0,1-.39.89A.69.69,0,0,1,1464,152.3Z"/><path class="cls-3" d="M1487.66,152.7c-3.74,0-7.47-2.63-9.11-6.79a.7.7,0,0,1,.39-.89.69.69,0,0,1,.89.39c1.78,4.52,6.33,7,10.17,5.47a6.87,6.87,0,0,0,4-4.28,9.63,9.63,0,0,0-.22-6.64.69.69,0,0,1,.39-.9.7.7,0,0,1,.89.39,11,11,0,0,1,.24,7.6,8.24,8.24,0,0,1-4.75,5.11A7.78,7.78,0,0,1,1487.66,152.7Z"/><path class="cls-3" d="M1494.37,140.39a.67.67,0,0,1-.64-.43c-2-5.23,0-10.93,4.5-12.71s9.9,1,12,6.25a.69.69,0,0,1-.39.89.7.7,0,0,1-.89-.39c-1.77-4.52-6.33-7-10.17-5.47s-5.5,6.4-3.72,10.92a.68.68,0,0,1-.39.89A.56.56,0,0,1,1494.37,140.39Z"/><path class="cls-3" d="M1518,140.79c-3.74,0-7.47-2.63-9.1-6.79a.69.69,0,0,1,.39-.89.68.68,0,0,1,.89.39c1.77,4.52,6.34,7,10.17,5.47a6.9,6.9,0,0,0,4-4.28,9.61,9.61,0,0,0-.23-6.65.69.69,0,0,1,1.28-.5,10.9,10.9,0,0,1,.24,7.6,8.22,8.22,0,0,1-4.74,5.11A7.87,7.87,0,0,1,1518,140.79Z"/><path class="cls-3" d="M1114.46,97.7a1.37,1.37,0,0,1-1.28-.87c-2.19-5.58,0-11.68,4.89-13.6s10.65,1.06,12.84,6.64a1.37,1.37,0,0,1-2.56,1c-1.63-4.17-5.79-6.44-9.27-5.08s-5,5.86-3.34,10a1.37,1.37,0,0,1-.78,1.78A1.24,1.24,0,0,1,1114.46,97.7Z"/><path class="cls-3" d="M1138.1,98.09c-4,0-8-2.79-9.75-7.22a1.37,1.37,0,1,1,2.56-1c1.64,4.17,5.8,6.45,9.28,5.08a6.22,6.22,0,0,0,3.55-3.87,8.92,8.92,0,0,0-.21-6.16,1.37,1.37,0,1,1,2.55-1,11.68,11.68,0,0,1,.26,8.08,8.94,8.94,0,0,1-5.15,5.52A8.3,8.3,0,0,1,1138.1,98.09Z"/><path class="cls-3" d="M1144.81,85.79a1.37,1.37,0,0,1-1.28-.87,11.62,11.62,0,0,1-.25-8.08,8.74,8.74,0,0,1,12.67-5,11.68,11.68,0,0,1,5.31,6.09,1.38,1.38,0,1,1-2.56,1,8.93,8.93,0,0,0-4-4.67,6,6,0,0,0-8.79,3.45,8.94,8.94,0,0,0,.21,6.17,1.37,1.37,0,0,1-.77,1.78A1.31,1.31,0,0,1,1144.81,85.79Z"/><path class="cls-3" d="M1168.42,86.19a9.38,9.38,0,0,1-4.41-1.14A11.64,11.64,0,0,1,1158.7,79a1.38,1.38,0,0,1,2.56-1,8.89,8.89,0,0,0,4,4.67,6,6,0,0,0,8.79-3.45,9,9,0,0,0-.22-6.17,1.37,1.37,0,1,1,2.56-1,11.61,11.61,0,0,1,.25,8.08,9,9,0,0,1-5.14,5.52A8.64,8.64,0,0,1,1168.42,86.19Z"/><path class="cls-2" d="M841.79,140.87,814.22,76.14c-7.8-21.71-2-44.95,17.91-54.79s44.14-1.29,54.14,19.12l33.56,61.78Z"/><path class="cls-2" d="M860,18.69c20.23,3.55,39,17.19,51.56,36.69l23,37.58-15.29,7.83Z"/><path class="cls-2" d="M831.2,21.81c-32.13,15.9-41,52.46-28.93,88.48L816,152.68l26.4-13.17Z"/><path class="cls-1" d="M985.1,178.06a75.93,75.93,0,0,1,22-13.31c38.68-15.18,82.19,3.47,97.18,41.66s-4.21,81.45-42.89,96.63-82.19-3.46-97.18-41.65A73.83,73.83,0,0,1,970,195.9Z"/><polygon class="cls-1" points="980.77 200.93 959.27 183.41 971.7 167.48 993.21 185 980.77 200.93"/><path class="cls-2" d="M824.44,224.88c-45.75,18.47-42.23,25.26-40.66,29.25l37.93,96.62,46.08-18.08-1.74-5-23.54-60,23.54,60L901,314l-36-91.72C863.41,218.26,854.67,212.67,824.44,224.88Z"/><path class="cls-3" d="M914.86,100.32l6,11.25L914,98.74,929.62,91l4.66,7.61a5.15,5.15,0,0,1-2,7.32l-11.45,5.65Z"/><path class="cls-2" d="M921.12,112.18l-.3-.61-.61.32h0l-7.15-13.45,16.81-8.34,5,8.14a6,6,0,0,1,.65,4.75,5.64,5.64,0,0,1-2.95,3.54ZM915.47,100l5.64,10.66L932,105.3a4.25,4.25,0,0,0,2.22-2.69,4.56,4.56,0,0,0-.5-3.65l-4.33-7.07L914.94,99l.51,1Z"/><polygon class="cls-3" points="920.89 111.21 838.81 151.84 836.55 138.75 914.8 100.02 920.89 111.21"/><polygon class="cls-2" points="838.29 152.86 835.78 138.37 914.5 99.4 915.11 100.63 837.31 139.14 839.33 150.81 920.58 110.6 921.19 111.83 838.29 152.86"/><path class="cls-3" d="M810.78,149.82l25.15-12.45,4.53,10.36a3.36,3.36,0,0,1-1.54,4.38l-17.64,8.74a5.82,5.82,0,0,1-8.07-3.54Z"/><path class="cls-2" d="M818.78,162.12a6.39,6.39,0,0,1-2.5-.51,6.66,6.66,0,0,1-3.73-4.09l-2.61-8.05,26.34-13,4.81,11a4.05,4.05,0,0,1-1.86,5.28l-17.65,8.73A6.26,6.26,0,0,1,818.78,162.12Zm-7.16-11.94,2.24,6.92a5.23,5.23,0,0,0,3,3.24,5,5,0,0,0,4.15-.11l17.65-8.73a2.68,2.68,0,0,0,1.21-3.5l-4.24-9.69Z"/><path class="cls-3" d="M806.06,35.75s-2.86-14.75,19-23.87c22.31-9.31,27.43,3.95,27.43,3.95h0a39.33,39.33,0,0,0-25.18,3.32l-.93.47A59.68,59.68,0,0,0,806.06,35.75Z"/><path class="cls-2" d="M805.67,37.34l-.28-1.46c0-.15-2.71-15.4,19.41-24.64,8.81-3.68,16.07-4.35,21.56-2a12.54,12.54,0,0,1,6.77,6.36l.45,1.16-1.22-.24a38.39,38.39,0,0,0-24.75,3.26l-.93.46a59.15,59.15,0,0,0-20.08,16Zm33.49-28.1a36.72,36.72,0,0,0-13.83,3.27C808.48,19.54,806.67,30,806.64,34a60.61,60.61,0,0,1,19.43-15l.93-.46a39.8,39.8,0,0,1,24.21-3.64,11.94,11.94,0,0,0-5.43-4.42A16.77,16.77,0,0,0,839.16,9.24Z"/><path class="cls-3" d="M921,112.18a.69.69,0,0,1-.61-.36l-39.64-73a41.11,41.11,0,0,0-14.28-16.27.68.68,0,0,1-.2-.95.69.69,0,0,1,1-.2A42.4,42.4,0,0,1,882,38.21l39.63,72.95a.68.68,0,0,1-.28.93A.62.62,0,0,1,921,112.18Z"/><path class="cls-2" d="M808,42.72a.51.51,0,0,1-.21,0,.69.69,0,0,1-.45-.86,37.68,37.68,0,0,1,19.6-23.06,39.94,39.94,0,0,1,32.47-1.39.69.69,0,0,1-.5,1.29A38.52,38.52,0,0,0,827.52,20a36.28,36.28,0,0,0-18.9,22.23A.67.67,0,0,1,808,42.72Z"/><path class="cls-3" d="M806.08,52.94H806a.68.68,0,0,1-.64-.73,47.18,47.18,0,0,1,.87-6.34.69.69,0,0,1,1.35.28,45.75,45.75,0,0,0-.85,6.15A.67.67,0,0,1,806.08,52.94Z"/><path class="cls-3" d="M836.88,139.61a.7.7,0,0,1-.64-.42L808.67,74.45A56.18,56.18,0,0,1,805.3,57a.69.69,0,0,1,.67-.71.65.65,0,0,1,.7.67A54.81,54.81,0,0,0,810,74l27.56,64.7a.69.69,0,0,1-.37.9A.58.58,0,0,1,836.88,139.61Z"/><path class="cls-2" d="M921,112.18a.7.7,0,0,1-.62-.39.69.69,0,0,1,.31-.92L932,105.29a4.26,4.26,0,0,0,2.23-2.69,4.6,4.6,0,0,0-.5-3.65L906,53.78c-12.69-19.63-31.32-32.89-51.09-36.37a.69.69,0,0,1,.24-1.36c20.15,3.55,39.1,17,52,37l27.68,45.18a6,6,0,0,1,.65,4.75,5.63,5.63,0,0,1-2.94,3.54L921.3,112.1A.67.67,0,0,1,921,112.18Z"/><path class="cls-2" d="M818.78,162.12a6.39,6.39,0,0,1-2.5-.51,6.66,6.66,0,0,1-3.73-4.09l-2.41-7.45a.19.19,0,0,1,0-.07L796.7,108.54c-6.13-18.37-6.86-36.42-2.1-52.19A59.76,59.76,0,0,1,826,19.24a.69.69,0,0,1,.61,1.23C796.44,35.39,785.21,69.8,798,108.11l13.19,40.74,24.44-12.09a.68.68,0,0,1,.54,0,.65.65,0,0,1,.39.37l4.53,10.35a4.05,4.05,0,0,1-1.86,5.28l-17.65,8.73A6.26,6.26,0,0,1,818.78,162.12Zm-7.16-11.94,2.24,6.92a5.23,5.23,0,0,0,3,3.24,5,5,0,0,0,4.15-.11l17.65-8.73a2.68,2.68,0,0,0,1.21-3.5l-4.24-9.69Z"/><path class="cls-3" d="M808.87,128a.71.71,0,0,1-.66-.48l-2-6.12a.7.7,0,0,1,.45-.87.69.69,0,0,1,.86.44l2,6.13a.68.68,0,0,1-.44.86A.52.52,0,0,1,808.87,128Z"/><path class="cls-3" d="M813,140.68a.68.68,0,0,1-.65-.48l-3.05-9.4a.69.69,0,1,1,1.31-.42l3,9.4a.68.68,0,0,1-.44.86A.52.52,0,0,1,813,140.68Z"/><path class="cls-2" d="M819.18,158.19a.57.57,0,0,1-.18,0,6.57,6.57,0,0,1-3.74-2.65.69.69,0,0,1,1.14-.77,5.24,5.24,0,0,0,3,2.09.69.69,0,0,1-.18,1.36Z"/><path class="cls-2" d="M820.7,158.38a.68.68,0,0,1-.69-.68.7.7,0,0,1,.68-.7,4.76,4.76,0,0,0,2.15-.51l1.08-.53a.69.69,0,1,1,.61,1.23l-1.08.53a6.29,6.29,0,0,1-2.75.66Z"/><path class="cls-2" d="M836.66,139.71a.69.69,0,0,1-.31-1.3L914,100l-.52-.95a.68.68,0,0,1-.05-.54.65.65,0,0,1,.35-.41l15.57-7.71a.7.7,0,0,1,.92.32.69.69,0,0,1-.31.92L915,99l6.6,12.15a.69.69,0,0,1-1.21.66l-5.77-10.62L837,139.64A.66.66,0,0,1,836.66,139.71Z"/><path class="cls-2" d="M806,36.68a.68.68,0,0,1-.67-.56c0-.15-2.71-15.41,19.41-24.64,8.81-3.68,16.07-4.35,21.56-2A12.55,12.55,0,0,1,853,15.82a.69.69,0,0,1-1.28.5,11.38,11.38,0,0,0-6.06-5.6c-5.14-2.17-12-1.49-20.46,2-21.1,8.8-18.62,23-18.59,23.11a.68.68,0,0,1-.54.8Z"/><path class="cls-3" d="M835,65.1a.7.7,0,0,1-.61-.37l-4.72-9a.69.69,0,0,1,.29-.93.7.7,0,0,1,.93.29l4.72,9a.68.68,0,0,1-.29.93A.72.72,0,0,1,835,65.1Z"/><path class="cls-3" d="M832.61,60.61a.68.68,0,0,1-.34-1.28l1.87-1a.68.68,0,1,1,.67,1.19L833,60.53A.68.68,0,0,1,832.61,60.61Z"/><path class="cls-3" d="M838,61.89a.7.7,0,0,1-.59-.35l-3.11-5.4a.69.69,0,0,1,1.19-.68l3.11,5.39a.69.69,0,0,1-.25.94A.64.64,0,0,1,838,61.89Z"/><path class="cls-3" d="M842.77,59.62A3.3,3.3,0,0,1,841,59a8.22,8.22,0,0,1-2.4-2.66c-1.52-2.57-1.59-5.14-.17-6a2.37,2.37,0,0,1,2.32.12.69.69,0,1,1-.63,1.22,1.12,1.12,0,0,0-1-.15c-.53.31-.55,2.06.65,4.09a7,7,0,0,0,2,2.21c.54.36,1,.48,1.29.33s.48-.85.23-2a.68.68,0,0,1,.52-.82.7.7,0,0,1,.82.52c.37,1.64,0,2.89-.87,3.44A1.9,1.9,0,0,1,842.77,59.62Z"/><path class="cls-3" d="M843.39,55.21a.68.68,0,0,1-.62-.4c-.11-.24-.24-.48-.38-.72a8.31,8.31,0,0,0-1.16-1.53.68.68,0,0,1,0-1,.7.7,0,0,1,1,0,9.58,9.58,0,0,1,1.36,1.79,8.46,8.46,0,0,1,.44.84.68.68,0,0,1-.33.91A.59.59,0,0,1,843.39,55.21Z"/><path class="cls-3" d="M850,56.27a.7.7,0,0,1-.63-.4l-3.8-8.29a.69.69,0,0,1,.34-.91.68.68,0,0,1,.91.33l3.8,8.29a.69.69,0,0,1-.34.92A.71.71,0,0,1,850,56.27Z"/><path class="cls-3" d="M848.11,52.12a.69.69,0,0,1-.31-1.3l1.7-.84a.69.69,0,0,1,.61,1.23l-1.7.84A.66.66,0,0,1,848.11,52.12Z"/><path class="cls-3" d="M852.63,53.1a.7.7,0,0,1-.62-.38l-1.11-2.21a.68.68,0,1,1,1.22-.62l1.12,2.21a.68.68,0,0,1-.3.92A.6.6,0,0,1,852.63,53.1Z"/><path class="cls-3" d="M857.36,51.73h-.05a.68.68,0,0,1-.67-.7.7.7,0,0,1,.7-.67.24.24,0,0,0,.19,0c.46-.23.53-1.8-.41-3.61a6.16,6.16,0,0,0-1.65-2.06c-.44-.33-.86-.47-1.07-.36s-.46.92-.19,2.05a.68.68,0,0,1-.5.83.7.7,0,0,1-.83-.51c-.42-1.74-.09-3.08.89-3.59a2.37,2.37,0,0,1,2.52.48,7.44,7.44,0,0,1,2.05,2.53c1.25,2.41,1.17,4.76-.18,5.46A1.66,1.66,0,0,1,857.36,51.73Z"/><path class="cls-3" d="M855.53,50.76a.69.69,0,0,1-.48-.2,8.31,8.31,0,0,1-1.46-2,.69.69,0,0,1,1.22-.64,6.82,6.82,0,0,0,1.2,1.68.69.69,0,0,1-.48,1.18Z"/><path class="cls-2" d="M904.68,326.35l-4.7-12-.13-.32-36.09-92a7.1,7.1,0,0,0-4.11-3.8c-.3-.13-.62-.25-1-.37-5.33-1.79-16.17-1.76-38.06,7.07-47.81,19.27-45,26.49-43.24,30.8l41.83,106.58.08.19a3.87,3.87,0,0,0,.25.55,9.23,9.23,0,0,0,8.23,5.16,8.93,8.93,0,0,0,3-.54l32.85-12.89a9.19,9.19,0,0,0,5.11-5c.1-.24.19-.49.27-.73s.15-.5.21-.75.11-.5.15-.75a.15.15,0,0,0,0-.07c0-.23.06-.46.08-.69h0a.47.47,0,0,0,.26-.05l31.51-12.36a6.07,6.07,0,0,0,3.38-3.31A6.33,6.33,0,0,0,904.68,326.35Zm-126-71.06c-1.37-3.44-3.86-9.75,37.42-26.94l.52-.22q2.19-.91,4.55-1.86c15.31-6.17,24.94-7.88,30.92-7.88a17.67,17.67,0,0,1,7,1.17,6,6,0,0,1,3.38,3l35.84,91.32.26.64.12.32.13.32,4.57,11.65a4.89,4.89,0,0,1,0,3.74,4.7,4.7,0,0,1-2.61,2.57l-31.27,12.27c0-.21,0-.42-.07-.63l0-.2q0-.3-.12-.6a.29.29,0,0,0,0-.09,6.09,6.09,0,0,0-.17-.61c-.07-.24-.15-.47-.24-.7l-3.52-9-.21-.54a.68.68,0,0,0-.89-.39l-.15.09a.67.67,0,0,0-.24.8l.21.54,0,.1,3.48,8.87a8.19,8.19,0,0,1-.06,6.21,7.79,7.79,0,0,1-4.34,4.26l-32.66,12.82a7.71,7.71,0,0,1-9.34-3.21c-.14-.24-.29-.48-.41-.74s-.16-.35-.24-.54l-3.59-9.16-.25-.64-.26-.64-37.67-96Z"/><path class="cls-3" d="M839.21,231.51a.69.69,0,0,1-.2-1.35c2.37-.69,6.75-1.8,8.86-2.24a.68.68,0,0,1,.28,1.34c-2.08.44-6.42,1.54-8.75,2.22Z"/><path class="cls-3" d="M831.9,233.89a.69.69,0,0,1-.23-1.34l2.59-.89a.68.68,0,1,1,.43,1.3c-.83.28-1.68.57-2.56.89A.85.85,0,0,1,831.9,233.89Z"/><path class="cls-3" d="M839,269.17a.67.67,0,0,1-.64-.44.68.68,0,0,1,.39-.89,10.07,10.07,0,0,0,5.57-5.4.69.69,0,0,1,1.26.55,11.4,11.4,0,0,1-6.33,6.13A.74.74,0,0,1,839,269.17Z"/><path class="cls-3" d="M863.82,332.4a.68.68,0,0,1-.64-.44l-24.82-63.23a.68.68,0,0,1,.39-.89.69.69,0,0,1,.89.39l24.82,63.23a.7.7,0,0,1-.39.89A.79.79,0,0,1,863.82,332.4Z"/><path class="cls-2" d="M817.77,215.1a.69.69,0,0,1-.64-.43l-3.85-9.82a.7.7,0,0,1,.35-.88l.41-.18a.68.68,0,0,1,.74,1.13l3.63,9.25a.68.68,0,0,1-.39.89A.69.69,0,0,1,817.77,215.1Zm.3-11.73a.69.69,0,0,1-.29-1.31l10-4.61a.7.7,0,0,1,.91.34.68.68,0,0,1-.34.91l-10,4.61A.75.75,0,0,1,818.07,203.37ZM831.8,197a.7.7,0,0,1-.63-.4.69.69,0,0,1,.34-.91l10-4.61a.69.69,0,1,1,.57,1.25l-10,4.6A.65.65,0,0,1,831.8,197Zm13.73-6.33a.69.69,0,0,1-.29-1.32l10-4.6a.69.69,0,1,1,.57,1.25l-10,4.6A.82.82,0,0,1,845.53,190.71Zm13.73-6.34a.7.7,0,0,1-.63-.4.69.69,0,0,1,.34-.91l10-4.6a.69.69,0,0,1,.91.33.68.68,0,0,1-.34.91l-10,4.61A.79.79,0,0,1,859.26,184.37ZM873,178a.7.7,0,0,1-.63-.4.69.69,0,0,1,.34-.91l10-4.61a.69.69,0,1,1,.57,1.25l-10,4.61A.79.79,0,0,1,873,178Zm12.43-6.85a.7.7,0,0,1-.64-.44l-4-10.24A.68.68,0,1,1,882,160l4,10.24a.68.68,0,0,1-.39.89A.7.7,0,0,1,885.42,171.19Zm-5.52-14.08a.67.67,0,0,1-.64-.43l-4-10.24a.69.69,0,0,1,.39-.89.68.68,0,0,1,.89.39l4,10.23a.68.68,0,0,1-.39.89A.56.56,0,0,1,879.9,157.11Z"/><path class="cls-2" d="M944.68,167.51a.69.69,0,0,1-.63-.41,23.67,23.67,0,0,0-6.13-8.64.68.68,0,0,1-.08-1,.67.67,0,0,1,1-.08,24.89,24.89,0,0,1,6.5,9.13.68.68,0,0,1-.35.91A.66.66,0,0,1,944.68,167.51Zm-17.07-1.36a8.21,8.21,0,0,1-4.28-1.35.58.58,0,0,1-.18-.17,6.74,6.74,0,0,1-1.47-4.06,4.9,4.9,0,0,1,.05-.77.68.68,0,0,1,.78-.59.69.69,0,0,1,.58.78,3.69,3.69,0,0,0,0,.58,5.38,5.38,0,0,0,1.12,3.13,5.82,5.82,0,0,0,5.33.7.69.69,0,0,1,.51,1.28A6.49,6.49,0,0,1,927.61,166.15Zm5.39-2.89a.68.68,0,0,1-.52-1.13,24,24,0,0,0,4.42-9.63.69.69,0,0,1,1.34.34A25.4,25.4,0,0,1,933.52,163,.67.67,0,0,1,933,163.26Zm-8.53-6.14a.7.7,0,0,1-.54-.26.68.68,0,0,1,.1-1,9.45,9.45,0,0,1,6-2,12.49,12.49,0,0,1,5.17,1.16.69.69,0,0,1-.57,1.26,11,11,0,0,0-4.6-1A8.09,8.09,0,0,0,924.9,157,.66.66,0,0,1,924.47,157.12Zm13.92-7.81h-.11a.68.68,0,0,1-.57-.78,44.38,44.38,0,0,0,.52-6.05c0-.2,0-.4,0-.6a36.31,36.31,0,0,0-.25-4.13.69.69,0,0,1,1.37-.16,36.93,36.93,0,0,1,.25,4.29c0,.21,0,.42,0,.63a45.55,45.55,0,0,1-.53,6.23A.69.69,0,0,1,938.39,149.31Zm-.4-15a.68.68,0,0,1-.67-.54,40.82,40.82,0,0,0-3.64-10.14.69.69,0,1,1,1.2-.67,41.42,41.42,0,0,1,3.78,10.52.68.68,0,0,1-.52.81A.39.39,0,0,1,938,134.28Z"/><path class="cls-2" d="M1036.5,322.24a79.44,79.44,0,0,1-32.68-7.1A83,83,0,0,1,966.25,198.3a.69.69,0,0,1,1.18.7,81.63,81.63,0,0,0,37,114.89,76.92,76.92,0,0,0,60.2,1.63c31.41-12.33,51.18-43.72,49.21-78.12a.7.7,0,0,1,.65-.73.72.72,0,0,1,.72.65c2,35-18.12,66.94-50.08,79.48A78.15,78.15,0,0,1,1036.5,322.24Z"/><path class="cls-2" d="M982.52,180.17a.69.69,0,0,1-.51-.23.68.68,0,0,1,.06-1,78.3,78.3,0,0,1,13.69-9.73.69.69,0,1,1,.67,1.2A76.94,76.94,0,0,0,983,180,.67.67,0,0,1,982.52,180.17Z"/><path class="cls-3" d="M1120.76,269a.63.63,0,0,1-.19,0,.68.68,0,0,1-.46-.86,81.36,81.36,0,0,0,3.29-18.78.71.71,0,0,1,.72-.65.68.68,0,0,1,.65.72,82,82,0,0,1-3.35,19.11A.68.68,0,0,1,1120.76,269Z"/><path class="cls-3" d="M1124.16,242.82a.69.69,0,0,1-.69-.66,81.41,81.41,0,0,0-3.92-22.36.68.68,0,0,1,.44-.86.69.69,0,0,1,.87.44,83.67,83.67,0,0,1,4,22.73.69.69,0,0,1-.67.71Z"/><path class="cls-3" d="M1117.43,212.9a.69.69,0,0,1-.63-.42c-1-2.24-2-4.47-3.2-6.62a.69.69,0,0,1,1.21-.66c1.18,2.19,2.27,4.46,3.26,6.74a.72.72,0,0,1-.36.91A.92.92,0,0,1,1117.43,212.9Z"/><path class="cls-2" d="M959.6,216.2h-.14a.68.68,0,0,1-.53-.81,16.84,16.84,0,0,0-12.51-19.79.68.68,0,0,1-.52-.76l1.57-11.49a.68.68,0,0,1,.77-.59.69.69,0,0,1,.59.77l-1.49,10.89a18.22,18.22,0,0,1,12.93,21.25A.68.68,0,0,1,959.6,216.2Z"/><path class="cls-2" d="M970.41,202.24a.68.68,0,0,1-.43-.15L946.52,183a.69.69,0,0,1-.11-1l15.25-19.53a.7.7,0,0,1,.46-.26.7.7,0,0,1,.51.15l7.29,5.94a.69.69,0,1,1-.87,1.06l-6.74-5.49-14.4,18.45L970.85,201a.69.69,0,0,1,.09,1A.66.66,0,0,1,970.41,202.24Z"/><path class="cls-2" d="M989.1,171.81a17.4,17.4,0,0,1-7.18-1.56,18,18,0,0,1-9.14-9.29l-9.13,3.58a.69.69,0,0,1-.9-.39.7.7,0,0,1,.39-.89l9.76-3.83a.7.7,0,0,1,.53,0,.64.64,0,0,1,.36.38,16.67,16.67,0,0,0,8.69,9.17,15.85,15.85,0,0,0,12.4.34.69.69,0,1,1,.5,1.28A17.13,17.13,0,0,1,989.1,171.81Z"/><path class="cls-3" d="M998.83,284.51a.73.73,0,0,1-.38-.11,82.6,82.6,0,0,1-10.1-8,.69.69,0,1,1,.93-1,79.6,79.6,0,0,0,9.93,7.82.69.69,0,0,1,.19,1A.67.67,0,0,1,998.83,284.51Z"/><path class="cls-3" d="M1008.31,290a.63.63,0,0,1-.3-.07c-1.26-.61-2.52-1.27-3.74-1.95a.67.67,0,0,1-.27-.93.69.69,0,0,1,.93-.27c1.21.67,2.45,1.31,3.68,1.91a.7.7,0,0,1,.32.92A.69.69,0,0,1,1008.31,290Z"/><path class="cls-3" d="M1027.72,296.52l-.13,0a79.34,79.34,0,0,1-12.41-3.53.69.69,0,1,1,.48-1.29,80.53,80.53,0,0,0,12.19,3.48.67.67,0,0,1,.54.8A.68.68,0,0,1,1027.72,296.52Z"/><path class="cls-3" d="M985.65,182.72a.72.72,0,0,1-.43-.16l-15.63-12.73a.67.67,0,0,1-.1-1,.69.69,0,0,1,1-.1l15.63,12.72a.69.69,0,0,1-.44,1.23Z"/><path class="cls-2" d="M1114.49,238.05a.69.69,0,0,1-.69-.65,81.59,81.59,0,0,0-2.91-17.38.69.69,0,0,1,.48-.85.7.7,0,0,1,.85.48,83,83,0,0,1,3,17.67.7.7,0,0,1-.64.73Z"/><path class="cls-3" d="M1111.55,220.52a.69.69,0,0,1-.66-.5c-.75-2.67-1.64-5.33-2.66-7.93-13.49-34.37-47.9-55.28-83.67-50.86a.69.69,0,0,1-.17-1.37c36.4-4.49,71.4,16.78,85.12,51.73a83.83,83.83,0,0,1,2.71,8.06.7.7,0,0,1-.48.85Z"/><path class="cls-2" d="M996.1,170.53a.69.69,0,0,1-.34-1.29,79.77,79.77,0,0,1,9.62-4.55,78.53,78.53,0,0,1,19-4.83.68.68,0,0,1,.76.6.69.69,0,0,1-.59.77,77,77,0,0,0-18.68,4.74,79.2,79.2,0,0,0-9.45,4.47A.66.66,0,0,1,996.1,170.53Z"/><path class="cls-3" d="M1064.7,200.62a.71.71,0,0,1-.48-.2,79.85,79.85,0,0,0-21-14.63.69.69,0,0,1,.59-1.24,81.31,81.31,0,0,1,21.41,14.89.69.69,0,0,1,0,1A.7.7,0,0,1,1064.7,200.62Z"/><path class="cls-3" d="M1073.55,195.67a.69.69,0,0,1-.47-.18,79.87,79.87,0,0,0-21.29-14.27.69.69,0,0,1,.57-1.25A81.2,81.2,0,0,1,1074,194.48a.69.69,0,0,1-.46,1.19Z"/><path class="cls-2" d="M962.44,159.73a11.67,11.67,0,0,1-10.72-16.35,11.67,11.67,0,1,1,10.72,16.35Zm0-22a10.34,10.34,0,1,0,4.12.87A10.26,10.26,0,0,0,962.43,137.73Z"/><path class="cls-1" d="M1316.29,195.51a20.85,20.85,0,1,1,17.48-32.21.69.69,0,0,1-.21.95.7.7,0,0,1-1-.2,19.47,19.47,0,1,0,1.8,3.5c-.11-.29-.23-.57-.35-.84a.68.68,0,0,1,.35-.91.67.67,0,0,1,.9.35c.14.29.26.59.38.89a20.86,20.86,0,0,1-19.4,28.47Z"/><path class="cls-2" d="M661.74,186.35a11.69,11.69,0,1,1,4.25-.81A11.7,11.7,0,0,1,661.74,186.35Zm0-22a10.31,10.31,0,1,0,9.61,6.54h0A10.34,10.34,0,0,0,661.71,164.35Z"/><circle class="cls-1" cx="1841.46" cy="133.95" r="11"/><circle class="cls-1" cx="1071.79" cy="84.64" r="11"/><circle class="cls-1" cx="79.18" cy="167.48" r="11"/><path class="cls-2" d="M240.73,70.56a11.68,11.68,0,1,1,4.65-22.39,11.58,11.58,0,0,1,6.21,6.44,11.69,11.69,0,0,1-10.86,16Zm0-22a10.36,10.36,0,1,0,4.11.87A10.26,10.26,0,0,0,240.72,48.56Z"/><path class="cls-2" d="M1729.84,62a1.32,1.32,0,0,1-.64-.16l-9.74-5.12a1.37,1.37,0,0,1,1.28-2.43l9.74,5.12a1.38,1.38,0,0,1-.64,2.59Zm-13.39-7a1.5,1.5,0,0,1-.64-.15l-9.73-5.12a1.37,1.37,0,1,1,1.28-2.43l9.73,5.11a1.39,1.39,0,0,1,.58,1.86A1.37,1.37,0,0,1,1716.45,55Z"/><path class="cls-2" d="M1714.29,69.16a1.48,1.48,0,0,1-.46-.08,1.38,1.38,0,0,1-.84-1.75L1716.65,57a1.37,1.37,0,0,1,2.59.92l-3.65,10.37A1.39,1.39,0,0,1,1714.29,69.16Zm5-14.26a1.48,1.48,0,0,1-.46-.08,1.37,1.37,0,0,1-.84-1.75l3.66-10.38a1.37,1.37,0,0,1,2.59.92L1720.61,54A1.38,1.38,0,0,1,1719.32,54.9Z"/><path class="cls-2" d="M1114.51,312.24a.72.72,0,0,1-.32-.08l-15.09-7.93a.69.69,0,1,1,.64-1.22l15.09,7.93a.68.68,0,0,1,.29.93A.69.69,0,0,1,1114.51,312.24Z"/><path class="cls-2" d="M1104.13,316.31a.62.62,0,0,1-.23,0,.68.68,0,0,1-.42-.87l5.67-16.09a.69.69,0,0,1,1.3.46l-5.67,16.08A.68.68,0,0,1,1104.13,316.31Z"/><path class="cls-2" d="M766.61,39.32a.61.61,0,0,1-.32-.08l-15.1-7.93a.68.68,0,1,1,.64-1.21L766.93,38a.69.69,0,0,1,.28.93A.68.68,0,0,1,766.61,39.32Z"/><path class="cls-2" d="M756.23,43.4a.59.59,0,0,1-.23,0,.69.69,0,0,1-.42-.88l5.67-16.08a.67.67,0,0,1,.87-.42.69.69,0,0,1,.42.88l-5.67,16.08A.69.69,0,0,1,756.23,43.4Z"/><path class="cls-3" d="M454.41,89a1.32,1.32,0,0,1-.64-.16L429.52,76.1a1.38,1.38,0,1,1,1.28-2.44L455.05,86.4a1.38,1.38,0,0,1-.64,2.6Z"/><path class="cls-3" d="M437.73,95.54a1.19,1.19,0,0,1-.45-.08,1.36,1.36,0,0,1-.84-1.75l9.1-25.83a1.37,1.37,0,0,1,2.59.91L439,94.63A1.38,1.38,0,0,1,437.73,95.54Z"/><path class="cls-3" d="M103.43,92.71a1.46,1.46,0,0,1-.64-.15L78.54,79.82a1.38,1.38,0,0,1,1.28-2.44l24.25,12.74a1.37,1.37,0,0,1-.64,2.59Z"/><path class="cls-3" d="M86.75,99.26a1.19,1.19,0,0,1-.45-.08,1.37,1.37,0,0,1-.84-1.75l9.1-25.83a1.38,1.38,0,0,1,2.6.91L88.05,98.34A1.37,1.37,0,0,1,86.75,99.26Z"/><path class="cls-1" d="M314.13,83.86a.69.69,0,0,1-.64-.44.7.7,0,0,1,.39-.89l10.24-4a.7.7,0,0,1,.89.39.68.68,0,0,1-.39.89l-10.23,4A.6.6,0,0,1,314.13,83.86Zm14.08-5.52a.69.69,0,0,1-.64-.44A.68.68,0,0,1,328,77l10.23-4a.69.69,0,0,1,.51,1.28l-10.24,4A.74.74,0,0,1,328.21,78.34Zm14.07-5.53a.69.69,0,0,1-.25-1.33l10.24-4a.68.68,0,1,1,.5,1.27l-10.24,4A.53.53,0,0,1,342.28,72.81Zm14.08-5.52a.69.69,0,0,1-.25-1.33l10.23-4a.69.69,0,1,1,.5,1.28l-10.23,4A.74.74,0,0,1,356.36,67.29Zm14.07-5.53a.69.69,0,0,1-.25-1.33l10.24-4a.68.68,0,1,1,.5,1.27l-10.24,4A.7.7,0,0,1,370.43,61.76Zm14.08-5.52a.69.69,0,0,1-.26-1.33l6.21-2.44a.69.69,0,1,1,.5,1.28l-6.2,2.44A.79.79,0,0,1,384.51,56.24Z"/><path class="cls-1" d="M378,74.87a.69.69,0,0,1-.25-1.33l10.23-4a.7.7,0,0,1,.89.39.68.68,0,0,1-.39.89l-10.23,4A.79.79,0,0,1,378,74.87Zm14.07-5.53a.69.69,0,0,1-.25-1.33l10.24-4a.68.68,0,0,1,.89.39.7.7,0,0,1-.39.89l-10.24,4A.56.56,0,0,1,392.07,69.34Zm14.08-5.52a.69.69,0,0,1-.26-1.33l10.24-4a.69.69,0,0,1,.89.39.68.68,0,0,1-.39.89l-10.23,4A.79.79,0,0,1,406.15,63.82Zm14.07-5.53A.68.68,0,0,1,420,57l3.49-1.37a.68.68,0,1,1,.5,1.27l-3.49,1.37A.56.56,0,0,1,420.22,58.29Z"/><path class="cls-2" d="M1008.38,24.08a.69.69,0,0,1-.64-.44.68.68,0,0,1,.39-.89l10.23-4a.69.69,0,0,1,.51,1.28l-10.24,4A.74.74,0,0,1,1008.38,24.08Zm14.07-5.53a.69.69,0,0,1-.25-1.33l10.24-4a.68.68,0,0,1,.89.39.69.69,0,0,1-.39.89l-10.24,4A.53.53,0,0,1,1022.45,18.55ZM1036.53,13a.69.69,0,0,1-.25-1.33l10.23-4A.69.69,0,0,1,1047,9l-10.23,4A.74.74,0,0,1,1036.53,13ZM1050.6,7.5a.69.69,0,0,1-.25-1.33l10.24-4a.68.68,0,1,1,.5,1.27l-10.24,4A.53.53,0,0,1,1050.6,7.5ZM1064.68,2a.68.68,0,0,1-.64-.44.69.69,0,0,1,.38-.89l10.24-4a.7.7,0,0,1,.89.39.68.68,0,0,1-.39.89l-10.23,4A.79.79,0,0,1,1064.68,2Zm14.07-5.53a.69.69,0,0,1-.64-.44.69.69,0,0,1,.39-.89l7.79-3.06a.7.7,0,0,1,.89.39.68.68,0,0,1-.39.89L1079-3.6A.56.56,0,0,1,1078.75-3.55Z"/><path class="cls-2" d="M1585.79,139.29a.68.68,0,0,1-.25-1.32l10.24-4a.68.68,0,0,1,.89.39.69.69,0,0,1-.39.89l-10.24,4A.53.53,0,0,1,1585.79,139.29Zm14.08-5.52a.69.69,0,0,1-.25-1.33l10.23-4a.7.7,0,0,1,.89.39.69.69,0,0,1-.38.89l-10.24,4A.74.74,0,0,1,1599.87,133.77Zm14.07-5.53a.69.69,0,0,1-.64-.43.68.68,0,0,1,.39-.89l10.24-4a.68.68,0,0,1,.89.39.69.69,0,0,1-.39.89l-10.24,4A.53.53,0,0,1,1613.94,128.24Zm14.08-5.52a.69.69,0,0,1-.25-1.33l10.23-4a.69.69,0,0,1,.89.39.68.68,0,0,1-.39.89l-10.23,4A.74.74,0,0,1,1628,122.72Zm14.07-5.53a.69.69,0,0,1-.64-.43.68.68,0,0,1,.39-.89l10.24-4a.68.68,0,0,1,.89.39.69.69,0,0,1-.39.89l-10.24,4A.53.53,0,0,1,1642.09,117.19Zm14.08-5.52a.69.69,0,0,1-.25-1.33l7.79-3.06a.69.69,0,1,1,.5,1.28l-7.79,3.06A.79.79,0,0,1,1656.17,111.67Z"/><path class="cls-2" d="M1399.6,285.13a.7.7,0,0,1-.64-.44.69.69,0,0,1,.39-.89l10.24-4a.7.7,0,0,1,.89.39.69.69,0,0,1-.39.89l-10.24,4A.7.7,0,0,1,1399.6,285.13Zm14.08-5.53a.67.67,0,0,1-.64-.43.68.68,0,0,1,.38-.89l10.24-4a.69.69,0,1,1,.5,1.28l-10.23,4A.77.77,0,0,1,1413.68,279.6Zm14.07-5.52a.7.7,0,0,1-.64-.44.69.69,0,0,1,.39-.89l10.24-4a.69.69,0,0,1,.5,1.28L1428,274A.74.74,0,0,1,1427.75,274.08Zm14.07-5.53a.68.68,0,0,1-.25-1.32l10.24-4a.69.69,0,0,1,.5,1.28l-10.23,4A.78.78,0,0,1,1441.82,268.55ZM1455.9,263a.69.69,0,0,1-.64-.44.68.68,0,0,1,.39-.89l10.23-4a.7.7,0,0,1,.89.39.68.68,0,0,1-.38.89l-10.24,4A.74.74,0,0,1,1455.9,263ZM1470,257.5a.68.68,0,0,1-.25-1.32l10.24-4a.68.68,0,0,1,.89.39.69.69,0,0,1-.39.89l-10.24,4A.69.69,0,0,1,1470,257.5Zm14.08-5.52a.69.69,0,0,1-.25-1.33l10.23-4a.7.7,0,0,1,.89.39.68.68,0,0,1-.39.89l-10.23,4A.74.74,0,0,1,1484.05,252Zm14.07-5.53a.68.68,0,0,1-.25-1.32l10.24-4a.68.68,0,0,1,.89.39.69.69,0,0,1-.39.89l-10.24,4A.69.69,0,0,1,1498.12,246.45Zm14.08-5.52a.69.69,0,0,1-.25-1.33l10.23-4a.7.7,0,0,1,.89.39.68.68,0,0,1-.39.89l-10.23,4A.74.74,0,0,1,1512.2,240.93Zm14.07-5.53a.68.68,0,0,1-.25-1.32l10.24-4a.68.68,0,0,1,.89.39.69.69,0,0,1-.39.89l-10.24,4A.73.73,0,0,1,1526.27,235.4Zm14.07-5.52a.68.68,0,0,1-.63-.44.69.69,0,0,1,.38-.89l10.24-4a.69.69,0,0,1,.89.39.68.68,0,0,1-.39.89l-10.23,4A.8.8,0,0,1,1540.34,229.88Z"/><path class="cls-3" d="M983.79,16.35a.67.67,0,0,1-.64-.43.68.68,0,0,1,.38-.89l10.24-4a.69.69,0,0,1,.5,1.28L984,16.3A.59.59,0,0,1,983.79,16.35Zm14.07-5.52a.7.7,0,0,1-.64-.44.69.69,0,0,1,.39-.89l10.24-4a.69.69,0,1,1,.5,1.28l-10.24,4A.74.74,0,0,1,997.86,10.83Zm14.07-5.53a.68.68,0,0,1-.25-1.32l10.24-4a.68.68,0,0,1,.89.39.69.69,0,0,1-.39.89l-10.23,4A.78.78,0,0,1,1011.93,5.3ZM1026-.22a.69.69,0,0,1-.64-.44.68.68,0,0,1,.39-.89l4.62-1.81a.69.69,0,0,1,.9.38.69.69,0,0,1-.39.89l-4.63,1.82A.74.74,0,0,1,1026-.22Z"/><path class="cls-3" d="M1270.92,306.12a.69.69,0,0,1-.25-1.33l10.23-4a.69.69,0,0,1,.51,1.28l-10.24,4A.74.74,0,0,1,1270.92,306.12Zm14.07-5.53a.69.69,0,0,1-.25-1.33l10.24-4a.68.68,0,0,1,.89.39.69.69,0,0,1-.39.89l-10.24,4A.53.53,0,0,1,1285,300.59Zm14.08-5.52a.69.69,0,0,1-.25-1.33l10.23-4a.7.7,0,0,1,.89.39.68.68,0,0,1-.39.89l-10.23,4A.74.74,0,0,1,1299.07,295.07Zm14.07-5.53a.69.69,0,0,1-.64-.43.68.68,0,0,1,.39-.89l10.24-4a.68.68,0,0,1,.89.39.69.69,0,0,1-.39.89l-10.24,4A.53.53,0,0,1,1313.14,289.54Zm14.08-5.52a.69.69,0,0,1-.26-1.33l5.73-2.25a.69.69,0,0,1,.89.39.68.68,0,0,1-.39.89l-5.72,2.25A.79.79,0,0,1,1327.22,284Z"/><path class="cls-3" d="M123.37,275.64a28,28,0,1,1,10.22-1.95A27.91,27.91,0,0,1,123.37,275.64Zm0-53.15a25.19,25.19,0,1,0,23.48,16A25.15,25.15,0,0,0,123.35,222.49Z"/><path class="cls-3" d="M164.12,129.22a27.94,27.94,0,1,1,26-38.15h0a27.94,27.94,0,0,1-26,38.15Zm0-53.15a25.28,25.28,0,1,0,10.06,2.12A25.24,25.24,0,0,0,164.1,76.07Z"/><path class="cls-3" d="M156.88,177.59a.69.69,0,0,1-.64-.44,11,11,0,0,1-.24-7.6,8.25,8.25,0,0,1,4.75-5.1c4.53-1.78,9.89,1,11.94,6.25a.68.68,0,1,1-1.27.5c-1.78-4.52-6.34-7-10.17-5.47A6.87,6.87,0,0,0,157.3,170a9.64,9.64,0,0,0,.22,6.64.68.68,0,0,1-.39.89A.53.53,0,0,1,156.88,177.59Z"/><path class="cls-3" d="M180.52,178c-3.74,0-7.47-2.62-9.1-6.78a.69.69,0,0,1,.38-.89.68.68,0,0,1,.89.39c1.78,4.52,6.34,7,10.17,5.47a6.87,6.87,0,0,0,3.95-4.28,9.6,9.6,0,0,0-.22-6.65.68.68,0,0,1,.39-.89.7.7,0,0,1,.89.39,11,11,0,0,1,.24,7.6,8.26,8.26,0,0,1-4.75,5.11A7.77,7.77,0,0,1,180.52,178Z"/><path class="cls-3" d="M187.23,165.68a.68.68,0,0,1-.64-.44,11,11,0,0,1-.24-7.6,8,8,0,0,1,11.7-4.59,11,11,0,0,1,5,5.73.68.68,0,0,1-.39.89.69.69,0,0,1-.89-.38,9.59,9.59,0,0,0-4.36-5,6.67,6.67,0,0,0-9.75,3.84,9.52,9.52,0,0,0,.22,6.64.69.69,0,0,1-.39.89A.74.74,0,0,1,187.23,165.68Z"/><path class="cls-3" d="M210.84,166.08a8.78,8.78,0,0,1-4.09-1.06,11,11,0,0,1-5-5.73.69.69,0,1,1,1.28-.51,9.63,9.63,0,0,0,4.36,5,6.67,6.67,0,0,0,9.76-3.84,9.58,9.58,0,0,0-.23-6.64.7.7,0,0,1,.39-.89.68.68,0,0,1,.89.39,10.9,10.9,0,0,1,.24,7.6,8.25,8.25,0,0,1-4.74,5.11A7.86,7.86,0,0,1,210.84,166.08Z"/><path class="cls-3" d="M217.57,153.77a.7.7,0,0,1-.64-.44,11,11,0,0,1-.24-7.6,8.24,8.24,0,0,1,4.75-5.11c4.54-1.78,9.89,1,11.95,6.25a.69.69,0,0,1-.39.89.68.68,0,0,1-.89-.39c-1.78-4.52-6.34-7-10.17-5.47a6.87,6.87,0,0,0-3.95,4.28,9.66,9.66,0,0,0,.22,6.65.69.69,0,0,1-.38.89A.8.8,0,0,1,217.57,153.77Z"/><path class="cls-3" d="M241.21,154.16c-3.74,0-7.47-2.63-9.1-6.79a.68.68,0,0,1,.39-.89.7.7,0,0,1,.89.39c1.77,4.52,6.33,7,10.16,5.47a6.87,6.87,0,0,0,3.95-4.28,9.52,9.52,0,0,0-.22-6.64.69.69,0,0,1,1.28-.5,10.93,10.93,0,0,1,.24,7.59,8.21,8.21,0,0,1-4.75,5.11A7.58,7.58,0,0,1,241.21,154.16Z"/><path class="cls-3" d="M247.92,141.85a.69.69,0,0,1-.64-.43,11,11,0,0,1-.24-7.6,8.06,8.06,0,0,1,11.7-4.6,11,11,0,0,1,5,5.74.69.69,0,1,1-1.28.5,9.55,9.55,0,0,0-4.35-5,6.68,6.68,0,0,0-9.76,3.83,9.55,9.55,0,0,0,.22,6.65.69.69,0,0,1-.39.89A.73.73,0,0,1,247.92,141.85Z"/><path class="cls-3" d="M271.56,142.25c-3.74,0-7.47-2.63-9.11-6.79a.69.69,0,0,1,.39-.89.68.68,0,0,1,.89.39c1.78,4.52,6.34,7,10.17,5.47s5.5-6.4,3.73-10.92a.69.69,0,0,1,.39-.9.7.7,0,0,1,.89.39c2,5.23,0,10.93-4.51,12.71A7.78,7.78,0,0,1,271.56,142.25Z"/><path class="cls-2" d="M337.77,185a.67.67,0,0,1-.64-.43.69.69,0,0,1,.39-.9l10.23-4a.68.68,0,0,1,.89.38.69.69,0,0,1-.39.9l-10.23,4A.56.56,0,0,1,337.77,185Zm14.07-5.52a.7.7,0,0,1-.64-.44.69.69,0,0,1,.39-.89l10.24-4a.69.69,0,0,1,.5,1.28l-10.24,4A.74.74,0,0,1,351.84,179.46Zm14.08-5.53a.67.67,0,0,1-.64-.43.69.69,0,0,1,.38-.9l10.24-4a.69.69,0,1,1,.5,1.28l-10.23,4A.59.59,0,0,1,365.92,173.93ZM380,168.41a.7.7,0,0,1-.64-.44.69.69,0,0,1,.39-.89l10.24-4a.69.69,0,0,1,.89.39.7.7,0,0,1-.39.89l-10.24,4A.74.74,0,0,1,380,168.41Zm14.07-5.53a.69.69,0,0,1-.64-.44.7.7,0,0,1,.39-.89l10.24-4a.68.68,0,0,1,.89.39.69.69,0,0,1-.39.89l-10.23,4A.6.6,0,0,1,394.06,162.88Zm14.08-5.52a.69.69,0,0,1-.64-.44.68.68,0,0,1,.39-.89l10.23-4a.69.69,0,0,1,.51,1.28l-10.24,4A.74.74,0,0,1,408.14,157.36Zm14.07-5.53a.69.69,0,0,1-.25-1.33l10.24-4a.68.68,0,1,1,.5,1.27l-10.24,4A.53.53,0,0,1,422.21,151.83Zm14.08-5.52A.69.69,0,0,1,436,145l10.23-4a.69.69,0,0,1,.5,1.28l-10.23,4A.74.74,0,0,1,436.29,146.31Zm14.07-5.53a.69.69,0,0,1-.25-1.33l10.24-4a.69.69,0,0,1,.89.38.7.7,0,0,1-.39.9l-10.24,4A.53.53,0,0,1,450.36,140.78Zm14.08-5.52a.69.69,0,0,1-.25-1.33l10.23-4a.69.69,0,0,1,.5,1.28l-10.23,4A.79.79,0,0,1,464.44,135.26Zm14.07-5.53a.69.69,0,0,1-.25-1.33l10.24-4a.69.69,0,0,1,.89.38.71.71,0,0,1-.39.9l-10.24,4A.56.56,0,0,1,478.51,129.73Z"/><path class="cls-1" d="M302.1,295.54a.68.68,0,0,1-.25-1.32l10.23-4a.69.69,0,0,1,.9.39.7.7,0,0,1-.39.89l-10.24,4A.73.73,0,0,1,302.1,295.54ZM316.17,290a.69.69,0,0,1-.25-1.33l10.24-4a.7.7,0,0,1,.89.39.69.69,0,0,1-.39.89l-10.24,4A.7.7,0,0,1,316.17,290Zm14.08-5.53a.68.68,0,0,1-.25-1.32l10.23-4a.68.68,0,0,1,.89.39.69.69,0,0,1-.38.89l-10.24,4A.73.73,0,0,1,330.25,284.49ZM344.32,279a.7.7,0,0,1-.64-.44.69.69,0,0,1,.39-.89l10.24-4a.7.7,0,0,1,.89.39.69.69,0,0,1-.39.89l-10.24,4A.7.7,0,0,1,344.32,279Zm14.08-5.53a.67.67,0,0,1-.64-.43.68.68,0,0,1,.39-.89l10.23-4a.69.69,0,1,1,.5,1.28l-10.23,4A.73.73,0,0,1,358.4,273.44Zm14.07-5.52a.7.7,0,0,1-.64-.44.69.69,0,0,1,.39-.89l10.24-4a.7.7,0,0,1,.89.39.68.68,0,0,1-.39.89l-10.24,4A.7.7,0,0,1,372.47,267.92Zm14.08-5.53a.67.67,0,0,1-.64-.43.68.68,0,0,1,.38-.89l10.24-4a.69.69,0,0,1,.5,1.28l-10.23,4A.77.77,0,0,1,386.55,262.39Zm14.07-5.52a.7.7,0,0,1-.64-.44.69.69,0,0,1,.39-.89l10.23-4a.71.71,0,0,1,.9.39.69.69,0,0,1-.39.89l-10.24,4A.74.74,0,0,1,400.62,256.87Zm14.07-5.52a.69.69,0,0,1-.25-1.33l10.24-4a.69.69,0,1,1,.5,1.28l-10.23,4A.8.8,0,0,1,414.69,251.35Zm14.08-5.53a.69.69,0,0,1-.64-.44.68.68,0,0,1,.39-.89l10.23-4a.69.69,0,0,1,.89.39.68.68,0,0,1-.38.89l-10.24,4A.74.74,0,0,1,428.77,245.82Zm14.07-5.52a.7.7,0,0,1-.64-.44.69.69,0,0,1,.39-.89l10.24-4a.68.68,0,0,1,.89.39.69.69,0,0,1-.39.89l-10.24,4A.7.7,0,0,1,442.84,240.3Z"/><path class="cls-3" d="M244.24,188.37a.68.68,0,0,1-.25-1.32l10.24-4a.68.68,0,0,1,.89.39.69.69,0,0,1-.39.89l-10.24,4A.69.69,0,0,1,244.24,188.37Zm14.08-5.52a.69.69,0,0,1-.25-1.33l10.23-4a.69.69,0,0,1,.89.39.68.68,0,0,1-.39.89l-10.23,4A.74.74,0,0,1,258.32,182.85Zm14.07-5.53a.68.68,0,0,1-.25-1.32l10.24-4a.68.68,0,0,1,.89.39.69.69,0,0,1-.39.89l-10.24,4A.69.69,0,0,1,272.39,177.32Zm14.08-5.52a.69.69,0,0,1-.25-1.33l10.23-4a.7.7,0,0,1,.89.39.68.68,0,0,1-.39.89l-10.23,4A.74.74,0,0,1,286.47,171.8Zm14.07-5.53a.68.68,0,0,1-.25-1.32L306,162.7a.68.68,0,0,1,.89.39.69.69,0,0,1-.39.89l-5.73,2.25A.73.73,0,0,1,300.54,166.27Z"/><path class="cls-1" d="M1365.78,60.68a.68.68,0,0,1-.64-.44c-2.06-5.23,0-10.93,4.5-12.71s9.9,1,11.95,6.25a.69.69,0,0,1-.39.89.68.68,0,0,1-.89-.39c-1.78-4.52-6.34-7-10.17-5.47s-5.5,6.41-3.72,10.93a.7.7,0,0,1-.39.89A.74.74,0,0,1,1365.78,60.68Z"/><path class="cls-1" d="M1389.39,61.07a8.76,8.76,0,0,1-4.09-1,11,11,0,0,1-5-5.74.68.68,0,0,1,.39-.89.7.7,0,0,1,.89.39,9.57,9.57,0,0,0,4.36,5,6.88,6.88,0,0,0,5.8.45c3.83-1.5,5.51-6.4,3.73-10.92a.69.69,0,1,1,1.28-.51c2,5.23,0,10.93-4.5,12.71A7.86,7.86,0,0,1,1389.39,61.07Z"/><path class="cls-1" d="M1396.12,48.76a.69.69,0,0,1-.64-.43c-2-5.23,0-10.93,4.51-12.71s9.89,1,11.94,6.25a.68.68,0,1,1-1.27.5c-1.78-4.52-6.34-7-10.17-5.47s-5.5,6.4-3.73,10.92a.68.68,0,0,1-.39.89A.53.53,0,0,1,1396.12,48.76Z"/><path class="cls-1" d="M1419.76,49.16c-3.74,0-7.47-2.63-9.1-6.79a.69.69,0,0,1,.38-.89.68.68,0,0,1,.89.39c1.78,4.52,6.33,7,10.17,5.47a6.87,6.87,0,0,0,4-4.28,9.6,9.6,0,0,0-.22-6.65.68.68,0,0,1,.39-.89.7.7,0,0,1,.89.39,11,11,0,0,1,.24,7.6,8.24,8.24,0,0,1-4.75,5.11A7.78,7.78,0,0,1,1419.76,49.16Z"/><path class="cls-1" d="M1426.47,36.85a.68.68,0,0,1-.64-.44c-2-5.22,0-10.92,4.5-12.7a8.22,8.22,0,0,1,7,.51,11,11,0,0,1,5,5.74.68.68,0,0,1-.39.89.7.7,0,0,1-.89-.39,9.63,9.63,0,0,0-4.36-5,6.9,6.9,0,0,0-5.81-.45c-3.83,1.51-5.5,6.41-3.72,10.93a.69.69,0,0,1-.39.89A.74.74,0,0,1,1426.47,36.85Z"/><path class="cls-1" d="M1450.1,37.24c-3.74,0-7.47-2.62-9.1-6.78a.69.69,0,0,1,1.28-.5c1.77,4.52,6.34,7,10.17,5.47s5.5-6.41,3.72-10.93a.7.7,0,0,1,.39-.89.68.68,0,0,1,.89.39c2.06,5.22,0,10.93-4.5,12.71A7.86,7.86,0,0,1,1450.1,37.24Z"/><path class="cls-1" d="M1456.81,24.94a.7.7,0,0,1-.64-.44,11,11,0,0,1-.24-7.6,8.26,8.26,0,0,1,4.75-5.11c4.53-1.78,9.89,1,12,6.25a.69.69,0,0,1-1.28.5c-1.78-4.52-6.34-7-10.17-5.47a6.87,6.87,0,0,0-4,4.28,9.66,9.66,0,0,0,.22,6.65.68.68,0,0,1-.39.89A.7.7,0,0,1,1456.81,24.94Z"/><path class="cls-1" d="M1480.43,25.34a8.78,8.78,0,0,1-4.09-1.06,10.92,10.92,0,0,1-5-5.74.68.68,0,0,1,.39-.89.7.7,0,0,1,.89.39,9.55,9.55,0,0,0,4.35,5,6.68,6.68,0,0,0,9.76-3.83,9.52,9.52,0,0,0-.22-6.64.69.69,0,0,1,1.28-.5,11,11,0,0,1,.24,7.6,8.2,8.2,0,0,1-4.75,5.1A7.62,7.62,0,0,1,1480.43,25.34Z"/><path class="cls-2" d="M1316.29,49.52a.7.7,0,0,1-.64-.44.69.69,0,0,1,.39-.89l10.24-4a.68.68,0,0,1,.89.39.69.69,0,0,1-.39.89l-10.24,4A.7.7,0,0,1,1316.29,49.52ZM1330.37,44a.67.67,0,0,1-.64-.44.69.69,0,0,1,.38-.89l10.24-4a.69.69,0,1,1,.5,1.28l-10.23,4A.79.79,0,0,1,1330.37,44Zm14.07-5.52a.7.7,0,0,1-.64-.44.68.68,0,0,1,.39-.89l10.23-4a.69.69,0,1,1,.51,1.28l-10.24,4A.74.74,0,0,1,1344.44,38.47Zm14.07-5.53a.69.69,0,0,1-.64-.44.7.7,0,0,1,.39-.89l10.24-4a.68.68,0,1,1,.5,1.27l-10.24,4A.53.53,0,0,1,1358.51,32.94Zm14.08-5.52a.69.69,0,0,1-.25-1.33l10.23-4a.68.68,0,0,1,.89.39.69.69,0,0,1-.38.89l-10.24,4A.74.74,0,0,1,1372.59,27.42Zm14.07-5.53a.7.7,0,0,1-.64-.44.69.69,0,0,1,.39-.89l7.79-3.06a.7.7,0,0,1,.89.39.68.68,0,0,1-.38.89l-7.8,3.06A.7.7,0,0,1,1386.66,21.89Z"/><path class="cls-2" d="M1475.5,83.81a.67.67,0,0,1-.64-.43.69.69,0,0,1,.39-.9l10.23-4a.68.68,0,0,1,.89.38.69.69,0,0,1-.38.9l-10.24,4A.56.56,0,0,1,1475.5,83.81Zm14.07-5.52a.7.7,0,0,1-.64-.44.69.69,0,0,1,.39-.89l10.24-4a.69.69,0,0,1,.5,1.28l-10.24,4A.7.7,0,0,1,1489.57,78.29Zm14.08-5.53a.67.67,0,0,1-.64-.43.69.69,0,0,1,.39-.9l10.23-4a.69.69,0,1,1,.5,1.28l-10.23,4A.56.56,0,0,1,1503.65,72.76Zm14.07-5.52a.7.7,0,0,1-.64-.44.69.69,0,0,1,.39-.89l10.24-4a.69.69,0,1,1,.5,1.28l-10.24,4A.74.74,0,0,1,1517.72,67.24Zm14.07-5.53a.66.66,0,0,1-.63-.44.69.69,0,0,1,.38-.89l10.24-4a.69.69,0,0,1,.5,1.28l-10.23,4A.6.6,0,0,1,1531.79,61.71Zm14.08-5.52a.7.7,0,0,1-.64-.44.69.69,0,0,1,.39-.89l10.23-4a.71.71,0,0,1,.9.39.7.7,0,0,1-.39.89l-10.24,4A.74.74,0,0,1,1545.87,56.19Zm14.07-5.53a.69.69,0,0,1-.64-.44.7.7,0,0,1,.39-.89l10.24-4a.68.68,0,0,1,.89.39.69.69,0,0,1-.39.89l-10.23,4A.6.6,0,0,1,1559.94,50.66ZM1574,45.14a.69.69,0,0,1-.64-.44.68.68,0,0,1,.39-.89l10.23-4a.69.69,0,0,1,.5,1.28l-10.23,4A.74.74,0,0,1,1574,45.14Zm14.07-5.53a.69.69,0,0,1-.25-1.33l10.24-4a.69.69,0,0,1,.89.38.7.7,0,0,1-.39.9l-10.24,4A.53.53,0,0,1,1588.09,39.61Zm14.08-5.52a.69.69,0,0,1-.25-1.33l10.23-4a.7.7,0,0,1,.89.39.68.68,0,0,1-.39.89l-10.23,4A.74.74,0,0,1,1602.17,34.09Zm14.07-5.53a.69.69,0,0,1-.25-1.33l10.24-4a.69.69,0,0,1,.89.38.7.7,0,0,1-.39.9l-10.24,4A.53.53,0,0,1,1616.24,28.56Z"/><path class="cls-3" d="M1453.14,71.46a.69.69,0,0,1-.25-1.33l10.23-4a.69.69,0,0,1,.5,1.28l-10.23,4A.74.74,0,0,1,1453.14,71.46Zm14.07-5.53a.69.69,0,0,1-.25-1.33l10.24-4a.68.68,0,0,1,.89.39.69.69,0,0,1-.39.89l-10.24,4A.53.53,0,0,1,1467.21,65.93Zm14.08-5.52a.69.69,0,0,1-.25-1.33l10.23-4a.7.7,0,0,1,.89.39.68.68,0,0,1-.39.89l-10.23,4A.74.74,0,0,1,1481.29,60.41Zm14.07-5.53a.69.69,0,0,1-.25-1.33l10.24-4a.68.68,0,0,1,.89.39.69.69,0,0,1-.39.89l-10.24,4A.56.56,0,0,1,1495.36,54.88Zm14.08-5.52a.69.69,0,0,1-.26-1.33l5.73-2.25a.7.7,0,0,1,.89.39.68.68,0,0,1-.39.89l-5.72,2.25A.79.79,0,0,1,1509.44,49.36Z"/><path class="cls-2" d="M1724.12,147.69c-5.5,7.41-6.79,16.94-4.75,25.47l-38.21,3.67c-1.52-16.67,10.51-31.22,26.87-32.49a29.52,29.52,0,0,1,18.63,4.85Z"/><ellipse class="cls-3" cx="1729.57" cy="145.95" rx="4.61" ry="4.72" transform="translate(66.27 642.1) rotate(-21.43)"/><path class="cls-3" d="M1714.18,179.68l-29.24,1.93a5.13,5.13,0,0,1-5.39-4.75l-.13-1.63,40.43-2.67,0,.4A6.16,6.16,0,0,1,1714.18,179.68Z"/><path class="cls-2" d="M1719.82,173a.68.68,0,0,1-.67-.52,31,31,0,0,1,5.16-25.8.69.69,0,0,1,1-.14.68.68,0,0,1,.14,1,29.68,29.68,0,0,0-4.93,24.66.67.67,0,0,1-.5.82A.47.47,0,0,1,1719.82,173Z"/><path class="cls-2" d="M1724.23,160.3h-.11a.69.69,0,0,1-.57-.79,31.18,31.18,0,0,1,2-6.89.69.69,0,1,1,1.27.53,29.62,29.62,0,0,0-1.88,6.58A.69.69,0,0,1,1724.23,160.3Z"/><path class="cls-2" d="M1679.37,175.39a.68.68,0,0,1-.68-.62,30.66,30.66,0,0,1,7.08-22.76,29.55,29.55,0,0,1,20.41-10.48,30.12,30.12,0,0,1,19.06,5,.69.69,0,1,1-.76,1.15,28.64,28.64,0,0,0-18.19-4.74,28.18,28.18,0,0,0-19.47,10,29.34,29.34,0,0,0-6.77,21.74.68.68,0,0,1-.62.75Z"/><path class="cls-3" d="M1689.2,158.34a.69.69,0,0,1-.6-1,29.36,29.36,0,0,1,1.89-2.94.69.69,0,0,1,1-.16.7.7,0,0,1,.15,1,28.64,28.64,0,0,0-1.8,2.82A.7.7,0,0,1,1689.2,158.34Z"/><path class="cls-3" d="M1685.35,172.9h0a.68.68,0,0,1-.68-.69,31.2,31.2,0,0,1,2.06-10.9.68.68,0,0,1,.89-.4.69.69,0,0,1,.39.89,29.65,29.65,0,0,0-2,10.42A.69.69,0,0,1,1685.35,172.9Z"/><path class="cls-2" d="M1729.52,151.4a5.45,5.45,0,0,1-5.36-5,5.34,5.34,0,0,1,1.23-4,5.2,5.2,0,0,1,3.58-1.83,5.45,5.45,0,0,1,4.53,8.93,5.16,5.16,0,0,1-3.57,1.83Zm-.14-9.42h-.31a3.83,3.83,0,0,0-2.63,1.35,4,4,0,0,0-.91,3,4,4,0,0,0,4.29,3.71,3.79,3.79,0,0,0,2.63-1.35,4,4,0,0,0,.92-3A4.06,4.06,0,0,0,1729.38,142Z"/><path class="cls-2" d="M1732.11,154.19a.69.69,0,0,1-.31-1.3,3.77,3.77,0,0,0,1.08-.82.69.69,0,0,1,1,.93,5.31,5.31,0,0,1-1.46,1.12A.71.71,0,0,1,1732.11,154.19Z"/><path class="cls-2" d="M1729,154.86h0a5.4,5.4,0,0,1-3.28-1.49.69.69,0,0,1,0-1,.67.67,0,0,1,1,0,4.07,4.07,0,0,0,2.44,1.11.69.69,0,0,1-.06,1.37Z"/><path class="cls-2" d="M1684.6,182.29a5.85,5.85,0,0,1-5.75-5.39l-.13-1.64a.71.71,0,0,1,.17-.5.68.68,0,0,1,.48-.24l40.42-2.67a.7.7,0,0,1,.73.64l0,.39a7,7,0,0,1-1.66,5.14,6.73,6.73,0,0,1-4.67,2.33L1685,182.28Zm-4.45-6.44.08.94a4.42,4.42,0,0,0,4.65,4.11l29.25-1.92h0a5.37,5.37,0,0,0,3.72-1.86,5.6,5.6,0,0,0,1.35-3.85Z"/></g></svg>