<svg id="Слой_1" data-name="Слой 1" xmlns="http://www.w3.org/2000/svg" viewBox="0 0 149.7 149.7">
  <defs>
    <style>
      .cls-1 {
        fill: #fcc;
      }

      .cls-2 {
        fill: #fff;
      }

      .cls-3 {
        fill: #f54e56;
      }

      .cls-4 {
        fill: none;
        stroke: #339;
        stroke-linecap: round;
        stroke-linejoin: round;
        stroke-width: 1.27px;
      }
    </style>
  </defs>
  <title>иллюстрат</title>
  <g>
    <circle class="cls-1" cx="74.85" cy="74.85" r="74.85"/>
    <g>
      <rect class="cls-2" x="45.47" y="43.49" width="52.67" height="75.94"/>
      <rect class="cls-3" x="66.71" y="43.39" width="12.7" height="76.04"/>
      <path class="cls-3" d="M69.51,31.25h7.94a2.1,2.1,0,0,1,2.1,2.1v10a0,0,0,0,1,0,0H67.41a0,0,0,0,1,0,0v-10A2.1,2.1,0,0,1,69.51,31.25Z"/>
      <path class="cls-3" d="M85.82,20.59H96.09a6.26,6.26,0,0,1,6.26,6.26v11a6.26,6.26,0,0,1-6.26,6.26H79.55a0,0,0,0,1,0,0V26.85A6.26,6.26,0,0,1,85.82,20.59Z"/>
      <path class="cls-3" d="M44.6,20.59H61.14a6.26,6.26,0,0,1,6.26,6.26v11a6.26,6.26,0,0,1-6.26,6.26H50.87A6.26,6.26,0,0,1,44.6,37.9V20.59A0,0,0,0,1,44.6,20.59Z" transform="translate(112.01 64.75) rotate(-180)"/>
      <rect class="cls-4" x="37.18" y="44.9" width="75.35" height="75.35"/>
      <line class="cls-4" x1="98.14" y1="86.31" x2="98.14" y2="97.31"/>
      <line class="cls-4" x1="98.14" y1="78.59" x2="98.14" y2="82.3"/>
      <path class="cls-4" d="M71.25,32.76h7.94a2.1,2.1,0,0,1,2.1,2.1v10a0,0,0,0,1,0,0H69.15a0,0,0,0,1,0,0v-10A2.1,2.1,0,0,1,71.25,32.76Z"/>
      <path class="cls-4" d="M87.56,22.1H97.83a6.26,6.26,0,0,1,6.26,6.26V38.64a6.26,6.26,0,0,1-6.26,6.26H81.29a0,0,0,0,1,0,0V28.36A6.26,6.26,0,0,1,87.56,22.1Z"/>
      <path class="cls-4" d="M85.84,28.72A7.46,7.46,0,0,1,88.75,26"/>
      <line class="cls-4" x1="88.75" y1="41.29" x2="85.84" y2="41.29"/>
      <path class="cls-4" d="M97.87,35.32a7.47,7.47,0,0,1-7.32,6"/>
      <path class="cls-4" d="M52.37,38.59a7.51,7.51,0,0,0,2.91,2.68"/>
      <path class="cls-4" d="M64.4,32a7.48,7.48,0,0,0-7.32-6"/>
      <path class="cls-4" d="M46.35,22.1H62.88a6.26,6.26,0,0,1,6.26,6.26V38.64a6.26,6.26,0,0,1-6.26,6.26H52.61a6.26,6.26,0,0,1-6.26-6.26V22.1a0,0,0,0,1,0,0Z" transform="translate(115.5 67) rotate(-180)"/>
      <rect class="cls-4" x="69.15" y="44.9" width="12.14" height="75.35"/>
      <line class="cls-4" x1="45.47" y1="71.73" x2="45.47" y2="77.09"/>
      <line class="cls-4" x1="45.47" y1="52.77" x2="45.47" y2="67.78"/>
    </g>
  </g>
</svg>
