<svg id="Слой_1" data-name="Слой 1" xmlns="http://www.w3.org/2000/svg" viewBox="0 0 321.27 321.29">
  <defs>
    <style>
      .cls-1 {
        fill: #fcc;
      }

      .cls-2, .cls-6, .cls-7 {
        fill: #fff;
      }

      .cls-3 {
        fill: #f54e56;
      }

      .cls-4, .cls-5 {
        fill: none;
      }

      .cls-4, .cls-5, .cls-6, .cls-7 {
        stroke: #339;
        stroke-linecap: round;
        stroke-linejoin: round;
      }

      .cls-4 {
        stroke-width: 2.3px;
      }

      .cls-5 {
        stroke-width: 0.8px;
      }

      .cls-6, .cls-7 {
        stroke-width: 1.82px;
      }

      .cls-6 {
        opacity: 0.4;
      }
    </style>
  </defs>
  <title>Для 2 стр</title>
  <g>
    <circle class="cls-1" cx="160.63" cy="160.64" r="160.63"/>
    <g>
      <g>
        <rect class="cls-2" x="106.41" y="145.48" width="95.92" height="119.03"/>
        <rect class="cls-3" x="145.1" y="143.07" width="23.12" height="121.44"/>
        <path class="cls-3" d="M150,123.67h14.94a3.59,3.59,0,0,1,3.59,3.59v15.81a0,0,0,0,1,0,0H146.36a0,0,0,0,1,0,0V127.26A3.59,3.59,0,0,1,150,123.67Z"/>
        <path class="cls-3" d="M179.16,106.65h20.16A10.68,10.68,0,0,1,210,117.34v16.28a10.68,10.68,0,0,1-10.68,10.68H168.48a0,0,0,0,1,0,0v-27A10.68,10.68,0,0,1,179.16,106.65Z"/>
        <path class="cls-3" d="M104.84,106.65h30.84a10.68,10.68,0,0,1,10.68,10.68v16.28a10.68,10.68,0,0,1-10.68,10.68H115.53a10.68,10.68,0,0,1-10.68-10.68v-27a0,0,0,0,1,0,0Z" transform="translate(251.21 250.95) rotate(-180)"/>
        <rect class="cls-4" x="91.32" y="145.48" width="137.21" height="120.34"/>
        <line class="cls-4" x1="202.33" y1="211.61" x2="202.33" y2="229.18"/>
        <line class="cls-4" x1="202.33" y1="199.29" x2="202.33" y2="205.21"/>
        <path class="cls-4" d="M153.13,126.09h14.94a3.59,3.59,0,0,1,3.59,3.59v15.81a0,0,0,0,1,0,0H149.54a0,0,0,0,1,0,0V129.68A3.59,3.59,0,0,1,153.13,126.09Z"/>
        <path class="cls-4" d="M182.34,109.06h20.16a10.68,10.68,0,0,1,10.68,10.68V134.8a10.68,10.68,0,0,1-10.68,10.68H171.65a0,0,0,0,1,0,0V119.75A10.68,10.68,0,0,1,182.34,109.06Z"/>
        <path class="cls-4" d="M179.93,119.63a13.2,13.2,0,0,1,5.29-4.29"/>
        <line class="cls-4" x1="185.23" y1="139.72" x2="179.94" y2="139.72"/>
        <path class="cls-4" d="M201.84,130.18c-1.27,5.45-6.76,9.54-13.34,9.54"/>
        <path class="cls-4" d="M119,135.4a13.16,13.16,0,0,0,5.3,4.29"/>
        <path class="cls-4" d="M140.89,124.85c-1.27-5.45-6.76-9.54-13.34-9.54"/>
        <path class="cls-4" d="M108,109.06h30.84a10.68,10.68,0,0,1,10.68,10.68V134.8a10.68,10.68,0,0,1-10.68,10.68H118.7A10.68,10.68,0,0,1,108,134.8V109.06a0,0,0,0,1,0,0Z" transform="translate(257.55 254.55) rotate(-180)"/>
        <rect class="cls-4" x="149.54" y="145.48" width="22.12" height="120.34"/>
        <line class="cls-4" x1="106.41" y1="188.33" x2="106.41" y2="196.89"/>
        <line class="cls-4" x1="106.41" y1="158.05" x2="106.41" y2="182.02"/>
      </g>
      <g>
        <polygon class="cls-5" points="165.03 59.14 116.24 40.13 133.9 66.94 165.03 59.14"/>
        <polygon class="cls-4" points="165.03 58.75 116.24 39.74 147.38 31.94 165.03 58.75"/>
        <rect class="cls-2" x="119.41" y="34.7" width="40.31" height="38.52" transform="translate(29.1 -46.98) rotate(21.28)"/>
        <polygon class="cls-6" points="116.24 40.13 102.76 74.75 133.9 66.94 116.24 40.13"/>
        <polygon class="cls-6" points="102.66 74.36 151.44 93.36 133.79 66.55 102.66 74.36"/>
        <polygon class="cls-6" points="133.9 66.55 151.55 93.36 165.03 58.75 133.9 66.55"/>
        <polygon class="cls-4" points="116.14 39.74 102.66 74.36 133.79 66.55 116.14 39.74"/>
        <polygon class="cls-4" points="102.66 74.36 151.44 93.36 133.79 66.55 102.66 74.36"/>
        <polygon class="cls-4" points="133.79 66.55 151.44 93.36 164.93 58.75 133.79 66.55"/>
        <line class="cls-4" x1="128.61" y1="38.48" x2="136.84" y2="41.69"/>
        <line class="cls-4" x1="139.43" y1="42.7" x2="153.95" y2="48.35"/>
        <line class="cls-4" x1="137.62" y1="47.34" x2="152.14" y2="53"/>
        <line class="cls-4" x1="135.53" y1="52.7" x2="150.05" y2="58.36"/>
        <circle class="cls-4" cx="130.31" cy="44.89" r="2.55"/>
      </g>
      <g>
        <path class="cls-6" d="M197.24,78.68a13,13,0,0,0,16.38,20.15l28.19-22.9L225.43,55.77Z"/>
        <path class="cls-4" d="M193.56,94a12.72,12.72,0,0,0,1.8,2.92,13,13,0,0,0,18.26,1.89l28.19-22.9L225.43,55.77,197.24,78.68A13,13,0,0,0,193.56,94M201,92.88a2.19,2.19,0,1,1,.32-3.08A2.17,2.17,0,0,1,201,92.88Z"/>
        <line class="cls-4" x1="217.13" y1="78.76" x2="226.52" y2="71.17"/>
        <path class="cls-4" d="M199.11,92.25a2.21,2.21,0,0,1,1.12.49c1.94,1.64.5,6.75-3.23,12.85"/>
        <path class="cls-4" d="M179.94,105.5c4.51-5.34,9.27-9.46,13-11.56"/>
      </g>
      <line class="cls-4" x1="228.52" y1="158.05" x2="182.58" y2="158.05"/>
      <line class="cls-7" x1="228.52" y1="237.46" x2="268.84" y2="237.46"/>
      <line class="cls-7" x1="52.43" y1="237.46" x2="91.32" y2="237.46"/>
      <line class="cls-7" x1="64.23" y1="246.48" x2="83.67" y2="246.48"/>
      <line class="cls-7" x1="248.04" y1="247.99" x2="267.48" y2="247.99"/>
      <line class="cls-4" x1="139.57" y1="158.05" x2="91.32" y2="158.05"/>
    </g>
  </g>
</svg>
